<?xml version="1.0" standalone="no"?><!DOCTYPE svg PUBLIC "-//W3C//DTD SVG 1.1//EN" "http://www.w3.org/Graphics/SVG/1.1/DTD/svg11.dtd" ><svg xmlns="http://www.w3.org/2000/svg"><metadata></metadata><defs><font id="2.000;ADBO;SourceHanSansCN-Medium;ADOBE" horiz-adv-x="2048"><font-face font-family="Source Han Sans CN Medium" font-weight="500" font-stretch="normal" units-per-em="2048" panose-1="2 11 6 0 0 0 0 0 0 0" ascent="2376" descent="-590" x-height="0" bbox="-98 -506 2001 1802" underline-thickness="102" underline-position="-307" unicode-range="U+0030-ff09" /><missing-glyph horiz-adv-x="2048" d="M205 -246 l0 2048 l1638 0 l0 -2048 l-1638 0 ZM1024 862 l651 838 l-1302 0 l651 -838 ZM1090 778 l651 -837 l0 1675 l-651 -838 ZM373 -143 l1302 0 l-651 837 l-651 -837 ZM307 1616 l0 -1675 l651 837 l-651 838 Z" /><glyph glyph-name="" unicode="0" d="M584 -27 q-222 0 -355 197 q-133 197 -133 590 q0 391 133 583.5 q133 192.5 355 192.5 q221 0 354 -193 q133 -193 133 -583 q0 -393 -133 -590 q-133 -197 -354 -197 ZM584 160 q76 0 135.5 59 q59.5 59 93 191 q33.5 132 33.5 350 q0 216 -33.5 345.5 q-33.5 129.5 -93 187 q-59.5 57.5 -135.5 57.5 q-77 0 -136 -57.5 q-59 -57.5 -92.5 -187 q-33.5 -129.5 -33.5 -345.5 q0 -218 33.5 -350 q33.5 -132 92.5 -191 q59 -59 136 -59 Z" /><glyph glyph-name="" unicode="1" d="M176 0 l0 195 l330 0 l0 1048 l-270 0 l0 150 q106 20 184.5 47.5 q78.5 27.5 142.5 68.5 l178 0 l0 -1314 l295 0 l0 -195 l-860 0 Z" /><glyph glyph-name="" unicode="2" d="M90 0 l0 137 q333 295 503.5 521.5 q170.5 226.5 170.5 412.5 q0 123 -64.5 200 q-64.5 77 -191.5 77 q-89 0 -163 -49.5 q-74 -49.5 -134 -118.5 l-133 131 q97 106 204 165.5 q107 59.5 255 59.5 q138 0 240 -56.5 q102 -56.5 158 -158 q56 -101.5 56 -238.5 q0 -145 -71 -293.5 q-71 -148.5 -195.5 -299.5 q-124.5 -151 -284.5 -304 q59 7 125 11 q66 4 121 4 l377 0 l0 -201 l-973 0 Z" /><glyph glyph-name="" unicode="3" d="M549 -27 q-178 0 -297 61.5 q-119 61.5 -195 145.5 l115 152 q66 -68 153 -117 q87 -49 203 -49 q128 0 207.5 67 q79.5 67 79.5 185 q0 83 -40.5 144.5 q-40.5 61.5 -138 95.5 q-97.5 34 -267.5 34 l0 174 q148 0 234.5 34.5 q86.5 34.5 123.5 94.5 q37 60 37 135 q0 100 -62 158 q-62 58 -170 60 q-87 -2 -161.5 -40.5 q-74.5 -38.5 -139.5 -101.5 l-122 148 q89 80 195 131 q106 51 237 51 q135 0 239 -45.5 q104 -45.5 162.5 -132.5 q58.5 -87 58.5 -211 q0 -131 -70 -220.5 q-70 -89.5 -190 -133.5 l0 -11 q131 -32 221.5 -128 q90.5 -96 90.5 -248 q0 -137 -68.5 -233.5 q-68.5 -96.5 -183 -148 q-114.5 -51.5 -252.5 -51.5 Z" /><glyph glyph-name="" unicode="4" d="M279 588 l415 0 l0 395 q0 61 3.5 145.5 q3.5 84.5 7.5 147.5 l-9 0 q-27 -58 -57.5 -116.5 q-30.5 -58.5 -63.5 -117.5 l-296 -454 ZM694 0 l0 406 l-653 0 l0 157 l600 946 l274 0 l0 -921 l191 0 l0 -182 l-191 0 l0 -406 l-221 0 Z" /><glyph glyph-name="" unicode="5" d="M549 -27 q-178 0 -296 61.5 q-118 61.5 -198 139.5 l113 154 q64 -65 149 -113.5 q85 -48.5 203 -48.5 q128 0 213.5 85.5 q85.5 85.5 85.5 235.5 q0 151 -78.5 233.5 q-78.5 82.5 -208.5 82.5 q-72 0 -123.5 -21.5 q-51.5 -21.5 -117.5 -64.5 l-115 76 l45 716 l764 0 l0 -200 l-559 0 l-35 -387 q49 24 97.5 38.5 q48.5 14.5 109.5 14.5 q126 0 230 -51 q104 -51 166.5 -157.5 q62.5 -106.5 62.5 -270.5 q0 -167 -72 -284 q-72 -117 -188 -178 q-116 -61 -248 -61 Z" /><glyph glyph-name="" unicode="6" d="M612 770 q-64 0 -138.5 -39.5 q-74.5 -39.5 -141.5 -136.5 q18 -224 95.5 -332 q77.5 -108 199.5 -108 q98 0 166.5 84 q68.5 84 68.5 231 q0 144 -64 222.5 q-64 78.5 -186 78.5 ZM629 -27 q-144 0 -262 81.5 q-118 81.5 -188 248 q-70 166.5 -70 422.5 q0 217 46.5 371.5 q46.5 154.5 126.5 251.5 q80 97 182.5 142.5 q102.5 45.5 213.5 45.5 q126 0 219 -47 q93 -47 158 -115 l-129 -143 q-42 49 -106 80.5 q-64 31.5 -130 31.5 q-96 0 -176.5 -54 q-80.5 -54 -130.5 -180 q-50 -126 -55 -341 q66 81 156 127.5 q90 46.5 171 46.5 q191 0 307.5 -117.5 q116.5 -117.5 116.5 -355.5 q0 -150 -61.5 -261 q-61.5 -111 -163.5 -173 q-102 -62 -225 -62 Z" /><glyph glyph-name="" unicode="7" d="M395 0 q10 207 35.5 380.5 q25.5 173.5 72.5 328 q47 154.5 122 301.5 q75 147 184 299 l-709 0 l0 200 l971 0 l0 -145 q-133 -165 -214.5 -317 q-81.5 -152 -126 -309 q-44.5 -157 -64.5 -337 q-20 -180 -29 -401 l-242 0 Z" /><glyph glyph-name="" unicode="8" d="M586 -27 q-142 0 -253 52 q-111 52 -175 142.5 q-64 90.5 -64 207.5 q0 99 38.5 177 q38.5 78 100.5 134.5 q62 56.5 132 93.5 l0 11 q-85 59 -144 145.5 q-59 86.5 -59 206.5 q0 118 56 205 q56 87 153.5 135.5 q97.5 48.5 220.5 48.5 q131 0 226.5 -51 q95.5 -51 147.5 -141 q52 -90 52 -207 q0 -77 -30 -145 q-30 -68 -76 -121.5 q-46 -53.5 -93 -88.5 l0 -10 q68 -38 125.5 -92 q57.5 -54 93 -129.5 q35.5 -75.5 35.5 -177.5 q0 -112 -61 -201.5 q-61 -89.5 -171 -142 q-110 -52.5 -255 -52.5 ZM684 838 q135 126 135 280 q0 105 -60.5 174.5 q-60.5 69.5 -170.5 69.5 q-92 0 -153.5 -59 q-61.5 -59 -61.5 -160 q0 -82 42.5 -138 q42.5 -56 113.5 -95.5 q71 -39.5 155 -71.5 ZM590 143 q117 0 188.5 63 q71.5 63 71.5 169 q0 92 -50 151.5 q-50 59.5 -134 102 q-84 42.5 -187 84.5 q-78 -54 -127 -135.5 q-49 -81.5 -49 -180.5 q0 -112 82.5 -183 q82.5 -71 204.5 -71 Z" /><glyph glyph-name="" unicode="9" d="M307 1040 q0 -144 63 -223.5 q63 -79.5 181 -79.5 q71 0 146.5 44 q75.5 44 140.5 141 q-17 222 -96.5 327 q-79.5 105 -202.5 105 q-97 0 -164.5 -83 q-67.5 -83 -67.5 -231 ZM498 -27 q-131 0 -225 46.5 q-94 46.5 -160 113.5 l129 146 q44 -51 109.5 -82 q65.5 -31 135.5 -31 q92 0 170 54.5 q78 54.5 128 181 q50 126.5 57 341.5 q-66 -81 -156 -128.5 q-90 -47.5 -176 -47.5 q-189 0 -305.5 118.5 q-116.5 118.5 -116.5 354.5 q0 150 61.5 261.5 q61.5 111.5 163.5 173 q102 61.5 224 61.5 q144 0 262.5 -78.5 q118.5 -78.5 189 -240.5 q70.5 -162 70.5 -412 q0 -223 -46 -381 q-46 -158 -125.5 -257.5 q-79.5 -99.5 -180 -146.5 q-100.5 -47 -209.5 -47 Z" /><glyph glyph-name="" unicode="a" d="M487 819 l-61 -203 l412 0 l-60 203 q-38 123 -72.5 248.5 q-34.5 125.5 -68.5 253.5 l-10 0 q-33 -129 -68 -254 q-35 -125 -72 -248 ZM0 0 l500 1509 l274 0 l500 -1509 l-252 0 l-127 430 l-524 0 l-129 -430 l-242 0 Z" /><glyph glyph-name="" unicode="b" d="M199 0 l0 1509 l467 0 q154 0 274.5 -36 q120.5 -36 189 -118 q68.5 -82 68.5 -218 q0 -108 -57 -200 q-57 -92 -158 -126 l0 -10 q129 -28 213 -116.5 q84 -88.5 84 -242.5 q0 -149 -75 -247 q-75 -98 -205.5 -146.5 q-130.5 -48.5 -297.5 -48.5 l-503 0 ZM436 879 l203 0 q172 0 249 60.5 q77 60.5 77 166.5 q0 118 -80 167.5 q-80 49.5 -240 49.5 l-209 0 l0 -444 ZM436 186 l240 0 q176 0 273.5 65 q97.5 65 97.5 204 q0 127 -95.5 186 q-95.5 59 -275.5 59 l-240 0 l0 -514 Z" /><glyph glyph-name="" unicode="c" d="M786 -27 q-189 0 -340.5 91.5 q-151.5 91.5 -240 265 q-88.5 173.5 -88.5 420.5 q0 245 90.5 421.5 q90.5 176.5 244.5 270.5 q154 94 345 94 q141 0 250 -57.5 q109 -57.5 178 -132.5 l-129 -152 q-59 60 -131 97.5 q-72 37.5 -164 37.5 q-130 0 -229.5 -69 q-99.5 -69 -155.5 -197 q-56 -128 -56 -305 q0 -269 117.5 -423.5 q117.5 -154.5 317.5 -154.5 q104 0 185 43 q81 43 148 117 l127 -150 q-90 -104 -206.5 -160.5 q-116.5 -56.5 -262.5 -56.5 Z" /><glyph glyph-name="" unicode="d" d="M199 0 l0 1509 l391 0 q347 0 537 -190.5 q190 -190.5 190 -558.5 q0 -367 -188.5 -563.5 q-188.5 -196.5 -526.5 -196.5 l-403 0 ZM436 195 l137 0 q243 0 370.5 142 q127.5 142 127.5 423 q0 282 -127.5 418.5 q-127.5 136.5 -370.5 136.5 l-137 0 l0 -1120 Z" /><glyph glyph-name="" unicode="e" d="M199 0 l0 1509 l891 0 l0 -200 l-654 0 l0 -420 l553 0 l0 -201 l-553 0 l0 -487 l676 0 l0 -201 l-913 0 Z" /><glyph glyph-name="" unicode="f" d="M199 0 l0 1509 l893 0 l0 -200 l-656 0 l0 -461 l557 0 l0 -199 l-557 0 l0 -649 l-237 0 Z" /><glyph glyph-name="" unicode="g" d="M813 -27 q-201 0 -358 91.5 q-157 91.5 -247.5 265 q-90.5 173.5 -90.5 420.5 q0 245 92.5 421.5 q92.5 176.5 251.5 270.5 q159 94 358 94 q160 0 270 -59 q110 -59 179 -131 l-127 -152 q-57 57 -131 96 q-74 39 -183 39 q-140 0 -245 -69 q-105 -69 -163.5 -197 q-58.5 -128 -58.5 -305 q0 -269 122 -423.5 q122 -154.5 356 -154.5 q69 0 133 19.5 q64 19.5 104 54.5 l0 354 l-299 0 l0 195 l514 0 l0 -653 q-75 -76 -198.5 -126.5 q-123.5 -50.5 -278.5 -50.5 Z" /><glyph glyph-name="" unicode="h" d="M199 0 l0 1509 l237 0 l0 -616 l645 0 l0 616 l238 0 l0 -1509 l-238 0 l0 686 l-645 0 l0 -686 l-237 0 Z" /><glyph glyph-name="" unicode="i" d="M199 0 l0 1509 l237 0 l0 -1509 l-237 0 Z" /><glyph glyph-name="" unicode="j" d="M498 -27 q-152 0 -259 63 q-107 63 -178 187 l166 121 q48 -87 109 -125.5 q61 -38.5 135 -38.5 q114 0 170.5 68.5 q56.5 68.5 56.5 234.5 l0 1026 l238 0 l0 -1048 q0 -135 -45.5 -246 q-45.5 -111 -142.5 -176.5 q-97 -65.5 -250 -65.5 Z" /><glyph glyph-name="" unicode="k" d="M199 0 l0 1509 l237 0 l0 -714 l6 0 l574 714 l264 0 l-467 -583 l545 -926 l-264 0 l-426 739 l-232 -284 l0 -455 l-237 0 Z" /><glyph glyph-name="" unicode="l" d="M199 0 l0 1509 l237 0 l0 -1308 l639 0 l0 -201 l-876 0 Z" /><glyph glyph-name="" unicode="m" d="M199 0 l0 1509 l272 0 l277 -764 q26 -75 50 -151 q24 -76 50 -152 l10 0 q26 76 49 152 q23 76 49 151 l273 764 l274 0 l0 -1509 l-221 0 l0 745 q0 68 5 150.5 q5 82.5 12.5 165.5 q7.5 83 13.5 151 l-8 0 l-121 -348 l-262 -719 l-148 0 l-264 719 l-119 348 l-8 0 q5 -68 12 -151 q7 -83 12 -165.5 q5 -82.5 5 -150.5 l0 -745 l-213 0 Z" /><glyph glyph-name="" unicode="n" d="M199 0 l0 1509 l243 0 l500 -886 l158 -320 l10 0 q-9 117 -20 248 q-11 131 -11 254 l0 704 l226 0 l0 -1509 l-244 0 l-500 889 l-158 315 l-10 0 q9 -117 20 -243.5 q11 -126.5 11 -249.5 l0 -711 l-225 0 Z" /><glyph glyph-name="" unicode="o" d="M772 -27 q-193 0 -341 95.5 q-148 95.5 -231 272 q-83 176.5 -83 419.5 q0 242 83 416 q83 174 231 267 q148 93 341 93 q194 0 342 -93 q148 -93 232 -267 q84 -174 84 -416 q0 -243 -84 -419.5 q-84 -176.5 -232 -272 q-148 -95.5 -342 -95.5 ZM772 180 q125 0 218 71.5 q93 71.5 144.5 202 q51.5 130.5 51.5 306.5 q0 266 -113.5 417.5 q-113.5 151.5 -300.5 151.5 q-187 0 -299.5 -151.5 q-112.5 -151.5 -112.5 -417.5 q0 -176 51 -306.5 q51 -130.5 143.5 -202 q92.5 -71.5 217.5 -71.5 Z" /><glyph glyph-name="" unicode="p" d="M199 0 l0 1509 l456 0 q168 0 298 -43 q130 -43 204 -143 q74 -100 74 -270 q0 -165 -73.5 -271.5 q-73.5 -106.5 -202 -158.5 q-128.5 -52 -291.5 -52 l-228 0 l0 -571 l-237 0 ZM436 762 l205 0 q181 0 268.5 71 q87.5 71 87.5 220 q0 149 -92 206.5 q-92 57.5 -272 57.5 l-197 0 l0 -555 Z" /><glyph glyph-name="" unicode="q" d="M772 168 q125 0 218 72 q93 72 144.5 205 q51.5 133 51.5 315 q0 266 -113.5 417.5 q-113.5 151.5 -300.5 151.5 q-187 0 -299.5 -151.5 q-112.5 -151.5 -112.5 -417.5 q0 -182 51 -315 q51 -133 143.5 -205 q92.5 -72 217.5 -72 ZM1245 -391 q-219 0 -367.5 105.5 q-148.5 105.5 -218.5 267.5 q-162 27 -284.5 128.5 q-122.5 101.5 -190 266.5 q-67.5 165 -67.5 383 q0 242 83 416 q83 174 231 267 q148 93 341 93 q194 0 342 -93 q148 -93 232 -267 q84 -174 84 -416 q0 -212 -65 -374 q-65 -162 -181 -264 q-116 -102 -271 -134 q51 -96 148 -140.5 q97 -44.5 211 -44.5 q49 0 89 7 q40 7 71 16 l45 -178 q-37 -17 -97.5 -28 q-60.5 -11 -134.5 -11 Z" /><glyph glyph-name="" unicode="r" d="M199 0 l0 1509 l493 0 q156 0 279 -41.5 q123 -41.5 194.5 -137.5 q71.5 -96 71.5 -259 q0 -175 -86.5 -281 q-86.5 -106 -228.5 -151 l368 -639 l-268 0 l-342 608 l-244 0 l0 -608 l-237 0 ZM436 799 l228 0 q164 0 250.5 67.5 q86.5 67.5 86.5 204.5 q0 137 -86.5 191.5 q-86.5 54.5 -250.5 54.5 l-228 0 l0 -518 Z" /><glyph glyph-name="" unicode="s" d="M629 -27 q-155 0 -294.5 58.5 q-139.5 58.5 -242.5 163.5 l139 163 q82 -81 187.5 -129.5 q105.5 -48.5 214.5 -48.5 q137 0 211 59 q74 59 74 154 q0 69 -31.5 111 q-31.5 42 -86.5 71 q-55 29 -124 60 l-209 90 q-73 31 -143.5 81.5 q-70.5 50.5 -117 127.5 q-46.5 77 -46.5 186 q0 119 64 213 q64 94 176 148.5 q112 54.5 255 54.5 q132 0 251.5 -51.5 q119.5 -51.5 205.5 -138.5 l-125 -152 q-71 63 -151.5 99 q-80.5 36 -180.5 36 q-115 0 -184.5 -51.5 q-69.5 -51.5 -69.5 -140.5 q0 -66 35.5 -107.5 q35.5 -41.5 91.5 -69.5 q56 -28 117 -53 l207 -88 q134 -57 220.5 -149 q86.5 -92 86.5 -258 q0 -121 -64 -220.5 q-64 -99.5 -182.5 -159 q-118.5 -59.5 -283.5 -59.5 Z" /><glyph glyph-name="" unicode="t" d="M506 0 l0 1309 l-443 0 l0 200 l1125 0 l0 -200 l-445 0 l0 -1309 l-237 0 Z" /><glyph glyph-name="" unicode="u" d="M752 -27 q-167 0 -293.5 66 q-126.5 66 -197.5 214 q-71 148 -71 394 l0 862 l238 0 l0 -878 q0 -170 41.5 -268.5 q41.5 -98.5 114.5 -140.5 q73 -42 168 -42 q95 0 169.5 42 q74.5 42 117 140.5 q42.5 98.5 42.5 268.5 l0 878 l230 0 l0 -862 q0 -246 -70.5 -394 q-70.5 -148 -196 -214 q-125.5 -66 -292.5 -66 Z" /><glyph glyph-name="" unicode="v" d="M469 0 l-473 1509 l252 0 l223 -782 q38 -129 68.5 -246 q30.5 -117 68.5 -248 l10 0 q40 131 70.5 248 q30.5 117 67.5 246 l223 782 l242 0 l-471 -1509 l-281 0 Z" /><glyph glyph-name="" unicode="w" d="M354 0 l-307 1509 l244 0 l141 -786 q20 -120 40 -241 q20 -121 40 -242 l8 0 q25 121 50.5 242 q25.5 121 52.5 241 l194 786 l211 0 l195 -786 q26 -118 51 -239.5 q25 -121.5 51 -243.5 l10 0 q19 122 38.5 243.5 q19.5 121.5 37.5 239.5 l143 786 l228 0 l-297 -1509 l-293 0 l-203 838 q-20 89 -37 174.5 q-17 85.5 -32 171.5 l-9 0 q-17 -86 -35 -171.5 q-18 -85.5 -36 -174.5 l-199 -838 l-287 0 Z" /><glyph glyph-name="" unicode="x" d="M33 0 l432 778 l-406 731 l265 0 l182 -354 q28 -52 54.5 -106 q26.5 -54 60.5 -121 l10 0 q29 67 52.5 121 q23.5 54 49.5 106 l178 354 l250 0 l-405 -743 l434 -766 l-264 0 l-199 375 q-29 58 -59.5 117 q-30.5 59 -65.5 129 l-8 0 q-31 -70 -60 -129 q-29 -59 -57 -117 l-192 -375 l-252 0 Z" /><glyph glyph-name="" unicode="y" d="M446 0 l0 571 l-452 938 l254 0 l174 -401 q35 -85 69 -165.5 q34 -80.5 72 -166.5 l8 0 q37 86 73.5 166.5 q36.5 80.5 70.5 165.5 l176 401 l248 0 l-455 -938 l0 -571 l-238 0 Z" /><glyph glyph-name="" unicode="z" d="M96 0 l0 143 l756 1166 l-686 0 l0 200 l979 0 l0 -143 l-754 -1165 l762 0 l0 -201 l-1057 0 Z" /><glyph glyph-name="" unicode="a" d="M444 -27 q-146 0 -238.5 88.5 q-92.5 88.5 -92.5 237.5 q0 181 161 280 q161 99 512 138 q-1 65 -20 121 q-19 56 -65.5 90.5 q-46.5 34.5 -129.5 34.5 q-89 0 -171 -34.5 q-82 -34.5 -154 -80.5 l-88 160 q87 55 203 101 q116 46 251 46 q211 0 310.5 -126.5 q99.5 -126.5 99.5 -350.5 l0 -678 l-193 0 l-18 129 l-8 0 q-77 -66 -167 -111 q-90 -45 -192 -45 ZM516 160 q74 0 137.5 34 q63.5 34 132.5 97 l0 276 q-250 -29 -348 -92.5 q-98 -63.5 -98 -159.5 q0 -83 50.5 -119 q50.5 -36 125.5 -36 Z" /><glyph glyph-name="" unicode="b" d="M702 -27 q-76 0 -157.5 38 q-81.5 38 -153.5 106 l-6 0 l-23 -117 l-184 0 l0 1632 l236 0 l0 -432 l-8 -192 q72 63 159 105 q87 42 176 42 q143 0 242.5 -71 q99.5 -71 152 -200 q52.5 -129 52.5 -302 q0 -194 -68.5 -330 q-68.5 -136 -179.5 -207.5 q-111 -71.5 -238 -71.5 ZM657 168 q123 0 205 105.5 q82 105.5 82 304.5 q0 176 -61.5 278 q-61.5 102 -202.5 102 q-129 0 -266 -137 l0 -551 q64 -56 127.5 -79 q63.5 -23 115.5 -23 Z" /><glyph glyph-name="" unicode="c" d="M637 -27 q-153 0 -275 69.5 q-122 69.5 -193 201.5 q-71 132 -71 319 q0 188 77.5 320 q77.5 132 204.5 202 q127 70 275 70 q108 0 188.5 -37.5 q80.5 -37.5 141.5 -91.5 l-117 -154 q-46 42 -95 65.5 q-49 23.5 -105 23.5 q-96 0 -169.5 -50 q-73.5 -50 -115 -139.5 q-41.5 -89.5 -41.5 -208.5 q0 -180 89 -288.5 q89 -108.5 228 -108.5 q71 0 133.5 29.5 q62.5 29.5 112.5 72.5 l99 -155 q-79 -69 -174.5 -104.5 q-95.5 -35.5 -192.5 -35.5 Z" /><glyph glyph-name="" unicode="e" d="M647 -27 q-152 0 -276.5 70 q-124.5 70 -198.5 202 q-74 132 -74 318 q0 182 74 315 q74 133 191.5 205 q117.5 72 248.5 72 q150 0 252.5 -67 q102.5 -67 155.5 -187 q53 -120 53 -278 q0 -36 -4 -68 q-4 -32 -8 -53 l-731 0 q14 -162 108 -253 q94 -91 240 -91 q75 0 141 22 q66 22 127 62 l82 -150 q-78 -52 -174 -85.5 q-96 -33.5 -207 -33.5 ZM328 666 l540 0 q0 144 -64.5 224.5 q-64.5 80.5 -187.5 80.5 q-106 0 -188.5 -79 q-82.5 -79 -99.5 -226 Z" /><glyph glyph-name="" unicode="f" d="M217 0 l0 938 l-154 0 l0 176 l154 12 l0 142 q0 173 84 282 q84 109 272 109 q57 0 109 -11 q52 -11 90 -26 l-47 -178 q-64 29 -123 29 q-149 0 -149 -203 l0 -144 l227 0 l0 -188 l-227 0 l0 -938 l-236 0 Z" /><glyph glyph-name="" unicode="g" d="M563 -506 q-135 0 -240.5 33.5 q-105.5 33.5 -166 99.5 q-60.5 66 -60.5 164 q0 71 43 134.5 q43 63.5 121 111.5 l0 10 q-43 26 -72.5 71.5 q-29.5 45.5 -29.5 114.5 q0 67 39.5 121.5 q39.5 54.5 87.5 87.5 l0 9 q-59 44 -104.5 121.5 q-45.5 77.5 -45.5 179.5 q0 127 60.5 217 q60.5 90 160 138 q99.5 48 215.5 48 q48 0 90 -8 q42 -8 74 -21 l400 0 l0 -176 l-215 0 q32 -34 52.5 -88 q20.5 -54 20.5 -119 q0 -122 -56.5 -209 q-56.5 -87 -152 -132.5 q-95.5 -45.5 -213.5 -45.5 q-81 0 -157 35 q-28 -24 -45 -50.5 q-17 -26.5 -17 -68.5 q0 -50 40.5 -80 q40.5 -30 148.5 -30 l207 0 q199 0 302 -65 q103 -65 103 -210 q0 -108 -72.5 -197.5 q-72.5 -89.5 -205 -142.5 q-132.5 -53 -312.5 -53 ZM571 508 q88 0 150.5 65 q62.5 65 62.5 179 q0 112 -62 174.5 q-62 62.5 -151 62.5 q-89 0 -151 -62 q-62 -62 -62 -175 q0 -114 63 -179 q63 -65 150 -65 ZM598 -350 q147 0 237.5 61 q90.5 61 90.5 139 q0 71 -54 97 q-54 26 -157 26 l-170 0 q-40 0 -78 4.5 q-38 4.5 -74 12.5 q-50 -37 -73 -79 q-23 -42 -23 -85 q0 -83 80.5 -129.5 q80.5 -46.5 220.5 -46.5 Z" /><glyph glyph-name="" unicode="h" d="M178 0 l0 1632 l236 0 l0 -432 l-11 -223 q74 71 162 124.5 q88 53.5 203 53.5 q180 0 263 -115.5 q83 -115.5 83 -330.5 l0 -709 l-235 0 l0 680 q0 146 -45.5 209 q-45.5 63 -145.5 63 q-78 0 -139.5 -39 q-61.5 -39 -134.5 -114 l0 -799 l-236 0 Z" /><glyph glyph-name="" unicode="i" d="M178 0 l0 1126 l236 0 l0 -1126 l-236 0 ZM295 1337 q-65 0 -105 38.5 q-40 38.5 -40 103.5 q0 63 40 101 q40 38 105 38 q64 0 105.5 -38 q41.5 -38 41.5 -101 q0 -65 -41.5 -103.5 q-41.5 -38.5 -105.5 -38.5 Z" /><glyph glyph-name="" unicode="j" d="M76 -485 q-57 0 -100.5 9 q-43.5 9 -73.5 21 l43 176 q23 -6 48.5 -12 q25.5 -6 53.5 -6 q78 0 105.5 54.5 q27.5 54.5 27.5 154.5 l0 1214 l236 0 l0 -1210 q0 -118 -33 -208.5 q-33 -90.5 -107.5 -141.5 q-74.5 -51 -199.5 -51 ZM295 1337 q-65 0 -105 38.5 q-40 38.5 -40 103.5 q0 63 40 101 q40 38 105 38 q64 0 105.5 -38 q41.5 -38 41.5 -101 q0 -65 -41.5 -103.5 q-41.5 -38.5 -105.5 -38.5 Z" /><glyph glyph-name="" unicode="k" d="M178 0 l0 1632 l230 0 l0 -1052 l8 0 l440 546 l260 0 l-383 -456 l426 -670 l-256 0 l-305 510 l-190 -219 l0 -291 l-230 0 Z" /><glyph glyph-name="" unicode="l" d="M412 -27 q-128 0 -181 77 q-53 77 -53 214 l0 1368 l236 0 l0 -1380 q0 -48 16.5 -67 q16.5 -19 38.5 -19 q8 0 16 0.5 q8 0.5 23 3.5 l31 -178 q-22 -8 -52.5 -13.5 q-30.5 -5.5 -74.5 -5.5 Z" /><glyph glyph-name="" unicode="m" d="M178 0 l0 1126 l193 0 l18 -157 l6 0 q72 77 158 131.5 q86 54.5 190 54.5 q126 0 200.5 -55 q74.5 -55 111.5 -152 q83 89 171.5 148 q88.5 59 194.5 59 q177 0 261.5 -115.5 q84.5 -115.5 84.5 -330.5 l0 -709 l-235 0 l0 680 q0 146 -46.5 209 q-46.5 63 -142.5 63 q-112 0 -253 -153 l0 -799 l-236 0 l0 680 q0 146 -46 209 q-46 63 -142 63 q-114 0 -252 -153 l0 -799 l-236 0 Z" /><glyph glyph-name="" unicode="n" d="M178 0 l0 1126 l193 0 l18 -155 l6 0 q79 75 168.5 129.5 q89.5 54.5 204.5 54.5 q180 0 263 -115.5 q83 -115.5 83 -330.5 l0 -709 l-235 0 l0 680 q0 146 -45.5 209 q-45.5 63 -145.5 63 q-78 0 -139.5 -39 q-61.5 -39 -134.5 -114 l0 -799 l-236 0 Z" /><glyph glyph-name="" unicode="o" d="M629 -27 q-140 0 -261 69.5 q-121 69.5 -195.5 201.5 q-74.5 132 -74.5 319 q0 188 74.5 320 q74.5 132 195.5 202 q121 70 261 70 q139 0 260 -70 q121 -70 195.5 -202 q74.5 -132 74.5 -320 q0 -187 -74.5 -319 q-74.5 -132 -195.5 -201.5 q-121 -69.5 -260 -69.5 ZM629 166 q133 0 211 108.5 q78 108.5 78 288.5 q0 178 -78 288 q-78 110 -211 110 q-132 0 -209.5 -110 q-77.5 -110 -77.5 -288 q0 -180 77.5 -288.5 q77.5 -108.5 209.5 -108.5 Z" /><glyph glyph-name="" unicode="p" d="M178 -457 l0 1583 l193 0 l18 -122 l6 0 q74 61 163.5 106 q89.5 45 184.5 45 q143 0 242 -71 q99 -71 151 -200 q52 -129 52 -302 q0 -194 -68.5 -330 q-68.5 -136 -179.5 -207.5 q-111 -71.5 -238 -71.5 q-75 0 -149.5 33 q-74.5 33 -146.5 94 l8 -192 l0 -365 l-236 0 ZM657 168 q123 0 205 105.5 q82 105.5 82 304.5 q0 176 -61.5 278 q-61.5 102 -202.5 102 q-126 0 -266 -137 l0 -551 q66 -56 128.5 -79 q62.5 -23 114.5 -23 Z" /><glyph glyph-name="" unicode="q" d="M879 -457 l0 383 l10 195 q-65 -63 -148 -105.5 q-83 -42.5 -174 -42.5 q-212 0 -338.5 154.5 q-126.5 154.5 -126.5 435.5 q0 182 68.5 315 q68.5 133 179 205 q110.5 72 236.5 72 q95 0 169 -35 q74 -35 146 -102 l6 0 l21 108 l186 0 l0 -1583 l-235 0 ZM623 168 q136 0 256 137 l0 551 q-63 57 -124 79.5 q-61 22.5 -124 22.5 q-79 0 -143.5 -47.5 q-64.5 -47.5 -103 -135.5 q-38.5 -88 -38.5 -210 q0 -192 72 -294.5 q72 -102.5 205 -102.5 Z" /><glyph glyph-name="" unicode="r" d="M178 0 l0 1126 l193 0 l18 -202 l6 0 q60 109 144.5 170 q84.5 61 175.5 61 q41 0 71 -6 q30 -6 56 -19 l-43 -204 q-29 9 -54 13.5 q-25 4.5 -59 4.5 q-69 0 -144.5 -54 q-75.5 -54 -127.5 -188 l0 -702 l-236 0 Z" /><glyph glyph-name="" unicode="s" d="M483 -27 q-116 0 -228.5 44 q-112.5 44 -195.5 112 l111 152 q75 -59 152 -94 q77 -35 167 -35 q102 0 150.5 43.5 q48.5 43.5 48.5 107.5 q0 51 -36.5 85.5 q-36.5 34.5 -93.5 60 q-57 25.5 -118 49.5 q-75 28 -148.5 68 q-73.5 40 -121 102 q-47.5 62 -47.5 157 q0 142 107 236 q107 94 294 94 q112 0 204.5 -39.5 q92.5 -39.5 160.5 -93.5 l-111 -145 q-58 43 -119 70.5 q-61 27.5 -131 27.5 q-93 0 -137.5 -40.5 q-44.5 -40.5 -44.5 -98.5 q0 -49 33 -80 q33 -31 86 -53.5 q53 -22.5 115 -45.5 q78 -29 154.5 -68 q76.5 -39 126.5 -103 q50 -64 50 -171 q0 -94 -49 -171.5 q-49 -77.5 -144 -124 q-95 -46.5 -235 -46.5 Z" /><glyph glyph-name="" unicode="t" d="M557 -27 q-190 0 -266 108.5 q-76 108.5 -76 287.5 l0 569 l-164 0 l0 176 l176 12 l27 312 l197 0 l0 -312 l292 0 l0 -188 l-292 0 l0 -571 q0 -102 38 -153.5 q38 -51.5 125 -51.5 q30 0 63.5 8 q33.5 8 57.5 18 l43 -174 q-47 -15 -103.5 -28 q-56.5 -13 -117.5 -13 Z" /><glyph glyph-name="" unicode="u" d="M510 -27 q-181 0 -263.5 115 q-82.5 115 -82.5 330 l0 708 l235 0 l0 -680 q0 -144 44.5 -207 q44.5 -63 144.5 -63 q78 0 138.5 39.5 q60.5 39.5 131.5 128.5 l0 782 l236 0 l0 -1126 l-193 0 l-18 170 l-6 0 q-77 -89 -164.5 -143 q-87.5 -54 -202.5 -54 Z" /><glyph glyph-name="" unicode="v" d="M426 0 l-399 1126 l241 0 l193 -606 q24 -83 49 -168 q25 -85 49 -168 l8 0 q25 83 50.5 168 q25.5 85 48.5 168 l192 606 l229 0 l-389 -1126 l-272 0 Z" /><glyph glyph-name="" unicode="w" d="M360 0 l-305 1126 l238 0 l149 -608 q17 -83 31.5 -161.5 q14.5 -78.5 30.5 -159.5 l8 0 q18 81 36 160.5 q18 79.5 38 160.5 l159 608 l218 0 l161 -608 q20 -83 38 -161.5 q18 -78.5 38 -159.5 l8 0 q17 81 32 159.5 q15 78.5 34 161.5 l145 608 l221 0 l-290 -1126 l-283 0 l-143 557 q-20 80 -37 159 q-17 79 -35 167 l-10 0 q-17 -88 -33.5 -168 q-16.5 -80 -38.5 -160 l-137 -555 l-273 0 Z" /><glyph glyph-name="" unicode="x" d="M31 0 l364 588 l-338 538 l254 0 l135 -225 q25 -47 52 -95 q27 -48 55 -95 l8 0 q23 47 47 95 q24 48 47 95 l119 225 l246 0 l-338 -565 l362 -561 l-256 0 l-147 240 q-28 49 -57 100 q-29 51 -60 98 l-10 0 q-26 -47 -52 -97.5 q-26 -50.5 -52 -100.5 l-131 -240 l-248 0 Z" /><glyph glyph-name="" unicode="y" d="M229 -471 q-43 0 -77.5 6 q-34.5 6 -63.5 16 l45 185 q15 -5 38 -11 q23 -6 44 -6 q92 0 148.5 60.5 q56.5 60.5 87.5 150.5 l22 78 l-446 1118 l241 0 l209 -579 q25 -75 50.5 -157 q25.5 -82 52.5 -161 l10 0 q21 77 43.5 159 q22.5 82 44.5 159 l180 579 l229 0 l-413 -1194 q-44 -120 -102 -211 q-58 -91 -141 -141.5 q-83 -50.5 -202 -50.5 Z" /><glyph glyph-name="" unicode="z" d="M76 0 l0 127 l557 811 l-496 0 l0 188 l791 0 l0 -125 l-555 -813 l573 0 l0 -188 l-870 0 Z" /><glyph glyph-name="" unicode="&#x3001;" d="M543 -125 q-97 118 -218 240 q-121 122 -229 213 l168 147 q73 -59 155.5 -138 q82.5 -79 160.5 -161.5 q78 -82.5 137 -152.5 l-174 -148 Z" /><glyph glyph-name="" unicode="&#x4e0a;" d="M1061 129 l881 0 l0 -192 l-1833 0 l0 192 l747 0 l0 1561 l205 0 l0 -609 l739 0 l0 -190 l-739 0 l0 -762 Z" /><glyph glyph-name="" unicode="&#x4e0e;" d="M1384 510 l0 -182 l-1263 0 l0 182 l1263 0 ZM580 942 l1255 0 q0 0 -2 -33 q-2 -33 -6 -55 q-27 -288 -55.5 -471.5 q-28.5 -183.5 -64.5 -286.5 q-36 -103 -83 -149 q-44 -45 -93 -61.5 q-49 -16.5 -120 -20.5 q-60 -5 -161 -3.5 q-101 1.5 -210 7.5 q-3 41 -22.5 95 q-19.5 54 -48.5 95 q118 -10 226 -13 q108 -3 157 -3 q37 0 62 4 q25 4 46 21 q52 43 92.5 209 q40.5 166 71.5 489 l-1288 0 q24 87 50 199 q26 112 52 235.5 q26 123.5 49.5 246 q23.5 122.5 40.5 230.5 l195 -18 q-9 -49 -18.5 -101 q-9.5 -52 -20.5 -106 l1110 0 l0 -182 l-1145 0 q-17 -86 -35 -169.5 q-18 -83.5 -34 -158.5 Z" /><glyph glyph-name="" unicode="&#x4e13;" d="M1905 934 l-1082 0 q-17 -54 -33 -105 q-16 -51 -30 -100 l842 0 l32 10 l144 -86 q-106 -113 -243 -249 q-137 -136 -273 -267 q90 -35 170.5 -71 q80.5 -36 140.5 -70 l-113 -166 q-76 46 -186.5 97.5 q-110.5 51.5 -239.5 103 q-129 51.5 -261 96.5 q-132 45 -251 78 l105 143 q101 -26 213.5 -61 q112.5 -35 226.5 -76 q89 84 180.5 173 q91.5 89 169.5 167 l-930 0 q31 81 64.5 178 q33.5 97 69.5 205 l-500 0 l0 182 l557 0 q15 52 31.5 105.5 q16.5 53.5 31.5 105.5 l-456 0 l0 182 l506 0 q13 54 26.5 106 q13.5 52 26.5 101 l203 0 q-14 -49 -28 -101.5 q-14 -52.5 -30 -105.5 l768 0 l0 -182 l-817 0 q-17 -52 -32.5 -105.5 q-15.5 -53.5 -30.5 -105.5 l1028 0 l0 -182 Z" /><glyph glyph-name="" unicode="&#x4e1a;" d="M1722 1264 l174 -84 q-48 -122 -106 -251.5 q-58 -129.5 -118 -250.5 q-60 -121 -116 -217 l-157 82 q54 93 114.5 216.5 q60.5 123.5 115.5 255 q55 131.5 93 249.5 ZM616 545 l-190 -70 q-24 94 -66.5 222 q-42.5 128 -94 264 q-51.5 136 -101.5 253 l174 56 q51 -117 105.5 -250 q54.5 -133 100.5 -258 q46 -125 72 -217 ZM1374 127 l551 0 l0 -188 l-1800 0 l0 188 l551 0 l0 1565 l194 0 l0 -1565 l310 0 l0 1563 l194 0 l0 -1563 Z" /><glyph glyph-name="" unicode="&#x4e2a;" d="M924 -160 l0 1254 l196 0 l0 -1254 l-196 0 ZM1030 1720 l170 -80 q-14 -24 -28 -48.5 q-14 -24.5 -31 -47.5 q212 -230 424 -370 q212 -140 420 -234 q-39 -32 -78.5 -82 q-39.5 -50 -61.5 -96 q-199 101 -398 247 q-199 146 -419 384 q-166 -202 -377 -361.5 q-211 -159.5 -438 -265.5 q-25 41 -63 91.5 q-38 50.5 -78 88.5 q192 78 373 193.5 q181 115.5 332 262 q151 146.5 253 318.5 Z" /><glyph glyph-name="" unicode="&#x4e2d;" d="M1118 678 l533 0 l0 496 l-533 0 l0 -496 ZM389 678 l531 0 l0 496 l-531 0 l0 -496 ZM1118 1360 l731 0 l0 -979 l-198 0 l0 111 l-533 0 l0 -652 l-198 0 l0 652 l-531 0 l0 -121 l-190 0 l0 989 l721 0 l0 356 l198 0 l0 -356 Z" /><glyph glyph-name="" unicode="&#x4e50;" d="M475 575 l184 -61 q-57 -97 -128.5 -198 q-71.5 -101 -147 -192.5 q-75.5 -91.5 -143.5 -160.5 q-28 25 -77 62 q-49 37 -81 59 q70 62 142 143.5 q72 81.5 137 171 q65 89.5 114 176.5 ZM1886 727 l-721 0 l0 -651 q0 -85 -21.5 -130 q-21.5 -45 -76.5 -67 q-55 -24 -142.5 -30 q-87.5 -6 -217.5 -5 q-7 40 -25.5 96.5 q-18.5 56.5 -40.5 96.5 q92 -3 172 -3.5 q80 -0.5 107 1.5 q27 0 38 8.5 q11 8.5 11 34.5 l0 649 l-453 0 q-95 0 -161.5 -7.5 q-66.5 -7.5 -82.5 -21.5 q-9 31 -28.5 86 q-19.5 55 -36.5 90 q23 8 39.5 42 q16.5 34 29.5 90 q9 33 24.5 123 q15.5 90 29 208 q13.5 118 14.5 236 q175 4 361.5 13.5 q186.5 9.5 367.5 25 q181 15.5 341 37.5 q160 22 282 51 l102 -170 q-168 -40 -380 -66 q-212 -26 -440.5 -40.5 q-228.5 -14.5 -447.5 -20.5 q-12 -125 -33.5 -250.5 q-21.5 -125.5 -47.5 -234.5 l520 0 l0 385 l196 0 l0 -385 l723 0 l-2 -191 ZM1403 502 l166 69 q69 -77 145 -170.5 q76 -93.5 142.5 -184 q66.5 -90.5 107.5 -161.5 l-178 -86 q-38 69 -101.5 162 q-63.5 93 -137.5 190.5 q-74 97.5 -144 180.5 Z" /><glyph glyph-name="" unicode="&#x4e70;" d="M1655 1069 l-156 76 q37 55 75.5 126 q38.5 71 74.5 146 l-1422 0 l0 178 l1483 0 l0 2 l35 0 l33 11 l139 -58 q-57 -127 -126.5 -258 q-69.5 -131 -135.5 -223 ZM948 1110 l-108 -145 q-43 34 -111 76.5 q-68 42.5 -144 83 q-76 40.5 -145 71.5 l103 127 q67 -28 144 -64.5 q77 -36.5 146.5 -75.5 q69.5 -39 114.5 -73 ZM707 829 l-107 -139 q-42 33 -107.5 72 q-65.5 39 -139 77 q-73.5 38 -140.5 66 l104 125 q66 -24 140 -58.5 q74 -34.5 140.5 -71.5 q66.5 -37 109.5 -71 ZM1079 225 l99 135 q134 -54 269.5 -118 q135.5 -64 255.5 -129.5 q120 -65.5 206 -122.5 l-123 -150 q-82 60 -196.5 127.5 q-114.5 67.5 -246 134.5 q-131.5 67 -264.5 123 ZM1042 1313 l191 0 q-5 -195 -16 -363 q-11 -168 -41 -311 l741 0 l0 -176 l-793 0 q-58 -156 -167.5 -276.5 q-109.5 -120.5 -292.5 -208.5 q-183 -88 -461 -144 q-11 37 -41 84 q-30 47 -58 78 q237 44 397.5 109 q160.5 65 261.5 153.5 q101 88.5 159 204.5 l-779 0 l0 176 l842 0 q34 137 43.5 305 q9.5 168 13.5 369 Z" /><glyph glyph-name="" unicode="&#x4e86;" d="M1686 1577 l151 -111 q-90 -99 -206 -199.5 q-116 -100.5 -244.5 -192 q-128.5 -91.5 -253.5 -163.5 l0 -841 q0 -88 -26.5 -134.5 q-26.5 -46.5 -92.5 -66.5 q-66 -23 -172 -28.5 q-106 -5.5 -258 -4.5 q-6 42 -29.5 98 q-23.5 56 -46.5 95 q80 -3 155 -4.5 q75 -1.5 131.5 -1 q56.5 0.5 79.5 1.5 q33 1 46.5 11 q13.5 10 13.5 38 l0 934 q134 69 274.5 169 q140.5 100 247.5 201 l-1251 0 l0 189 l1437 0 l44 10 Z" /><glyph glyph-name="" unicode="&#x4e92;" d="M647 565 l686 0 q14 105 27 204 q13 99 22 183 l-653 0 q-21 -103 -41.5 -201 q-20.5 -98 -40.5 -186 ZM1460 88 l486 0 l0 -184 l-1833 0 l0 184 l1149 0 q12 71 22 146 q10 75 23 153 l-918 0 q29 101 59.5 228 q30.5 127 60 267.5 q29.5 140.5 56.5 281.5 q27 141 47 270 l-436 0 l0 182 l1710 0 l0 -182 l-1065 0 q-14 -73 -28.5 -150 q-14.5 -77 -28.5 -154 l655 0 l35 9 l143 -17 q-13 -142 -35.5 -319 q-22.5 -177 -49 -362.5 q-26.5 -185.5 -52.5 -352.5 Z" /><glyph glyph-name="" unicode="&#x4ea7;" d="M1849 1489 l0 -182 l-1622 0 l0 182 l736 0 q-22 44 -50 94 q-28 50 -59 90 l193 51 q43 -53 83 -119.5 q40 -66.5 62 -115.5 l657 0 ZM1901 954 l0 -186 l-1450 0 l0 -96 q0 -93 -9 -203.5 q-9 -110.5 -32.5 -226 q-23.5 -115.5 -66.5 -225 q-43 -109.5 -112 -199.5 q-15 19 -44.5 46 q-29.5 27 -61 52 q-31.5 25 -51.5 37 q80 107 117.5 235 q37.5 128 49 255 q11.5 127 11.5 233 l0 278 l440 0 q-24 60 -69.5 138 q-45.5 78 -92.5 143 l166 68 q49 -63 100.5 -143 q51.5 -80 75.5 -140 l-145 -66 l508 0 q41 71 86.5 166 q45.5 95 71.5 170 l211 -67 q-45 -69 -89 -139.5 q-44 -70.5 -85 -129.5 l471 0 Z" /><glyph glyph-name="" unicode="&#x2f08;&#x4eba;" d="M905 1712 l217 0 q-1 -58 -3.5 -136 q-2.5 -78 -10.5 -169 q7 -64 25 -169 q18 -105 54 -234.5 q36 -129.5 97.5 -269 q61.5 -139.5 155 -274 q93.5 -134.5 226 -249.5 q132.5 -115 310.5 -195 q-41 -32 -80 -77.5 q-39 -45.5 -59 -83.5 q-180 85 -315 206.5 q-135 121.5 -231.5 263 q-96.5 141.5 -161 289.5 q-64.5 148 -105.5 285 q-51 -192 -146 -386.5 q-95 -194.5 -250 -367.5 q-155 -173 -386 -301 q-25 37 -67.5 79 q-42.5 42 -90.5 73 q209 108 352 253.5 q143 145.5 232.5 310.5 q89.5 165 138 333.5 q48.5 168.5 69 325 q20.5 156.5 24.5 284 q4 127.5 5 209.5 Z" /><glyph glyph-name="" unicode="&#x4ef6;" d="M532 1710 l179 -53 q-40 -112 -91.5 -223.5 q-51.5 -111.5 -109.5 -219.5 l0 -1372 l-180 0 l0 1086 q-39 -54 -79.5 -105 q-40.5 -51 -80.5 -94 q-9 23 -27.5 59.5 q-18.5 36.5 -39.5 73.5 q-21 37 -37 60 q93 96 179.5 222.5 q86.5 126.5 160 271.5 q73.5 145 126.5 294 ZM1954 721 l0 -186 l-543 0 l0 -695 l-190 0 l0 695 l-568 0 l0 186 l568 0 l0 405 l-291 0 q-31 -83 -65 -156.5 q-34 -73.5 -72 -131.5 q-28 20 -79 48 q-51 28 -85 44 q86 123 148 306.5 q62 183.5 95 375.5 l185 -37 q-14 -66 -30.5 -132 q-16.5 -66 -35.5 -130 l230 0 l0 381 l190 0 l0 -381 l451 0 l0 -187 l-451 0 l0 -405 l543 0 Z" /><glyph glyph-name="" unicode="&#x4f01;" d="M1141 535 l0 -465 l755 0 l0 -174 l-1730 0 l0 174 l244 0 l0 733 l186 0 l0 -733 l344 0 l0 1083 l201 0 l0 -448 l569 0 l0 -170 l-569 0 ZM1008 1737 l172 -82 q-11 -17 -23 -33 q-12 -16 -24 -33 q193 -216 412 -345.5 q219 -129.5 448 -221.5 q-36 -31 -71 -76 q-35 -45 -52 -90 q-149 70 -291 152.5 q-142 82.5 -280 191.5 q-138 109 -273 258 q-167 -189 -383 -342 q-216 -153 -446 -258 q-22 37 -58.5 82.5 q-36.5 45.5 -72.5 79.5 q185 73 363 182 q178 109 327.5 245 q149.5 136 251.5 290 Z" /><glyph glyph-name="" unicode="&#x4f18;" d="M1833 1372 l-139 -108 q-28 42 -72.5 97 q-44.5 55 -96 112 q-51.5 57 -100.5 104 l131 92 q50 -44 103 -97.5 q53 -53.5 99 -106 q46 -52.5 75 -93.5 ZM537 1710 l180 -53 q-42 -117 -95.5 -232.5 q-53.5 -115.5 -113.5 -224.5 l0 -1360 l-182 0 l0 1071 q-37 -50 -73 -95 q-36 -45 -75 -87 q-8 24 -26.5 61 q-18.5 37 -40 73.5 q-21.5 36.5 -37.5 58.5 q93 96 179.5 222.5 q86.5 126.5 159 271.5 q72.5 145 124.5 294 ZM1942 1063 l-723 0 q-19 -251 -70.5 -478.5 q-51.5 -227.5 -159.5 -417 q-108 -189.5 -297 -325.5 q-21 37 -61.5 78.5 q-40.5 41.5 -75.5 67.5 q171 117 269 283 q98 166 145 367.5 q47 201.5 63 424.5 l-428 0 l0 180 l438 0 q7 221 7 449 l188 0 q0 -114 -2 -226 q-2 -112 -6 -223 l713 0 l0 -180 ZM1542 66 l174 0 q29 0 43.5 22 q14.5 22 20.5 89.5 q6 67.5 10 201.5 q29 -26 80 -46.5 q51 -20.5 88 -31.5 q-9 -160 -31 -249 q-22 -89 -67.5 -125 q-45.5 -36 -126.5 -36 l-217 0 q-90 0 -138.5 22.5 q-48.5 22.5 -68 77 q-19.5 54.5 -19.5 150.5 l0 777 l187 0 l0 -777 q0 -47 12 -61 q12 -14 53 -14 Z" /><glyph glyph-name="" unicode="&#x4f53;" d="M494 1708 l178 -51 q-34 -105 -78.5 -208.5 q-44.5 -103.5 -93.5 -205.5 l0 -1401 l-183 0 l0 1086 q-38 -56 -75.5 -105.5 q-37.5 -49.5 -75.5 -95.5 q-9 23 -28 60 q-19 37 -40.5 74 q-21.5 37 -38.5 59 q88 96 169 223 q81 127 148.5 272 q67.5 145 117.5 293 ZM1948 1147 l-480 0 q59 -165 142 -323.5 q83 -158.5 182 -292 q99 -133.5 205 -222.5 q-36 -26 -77.5 -69.5 q-41.5 -43.5 -68.5 -81.5 q-96 95 -185 228.5 q-89 133.5 -166.5 291 q-77.5 157.5 -137.5 323.5 l0 -628 l303 0 l0 -172 l-303 0 l0 -351 l-186 0 l0 351 l-306 0 l0 172 l306 0 l0 616 q-94 -252 -224 -472.5 q-130 -220.5 -280 -364.5 q-22 35 -63.5 77.5 q-41.5 42.5 -71.5 67.5 q108 90 208.5 225 q100.5 135 185 296 q84.5 161 144.5 329 l-448 0 l0 180 l549 0 l0 381 l186 0 l0 -381 l586 0 l0 -180 Z" /><glyph glyph-name="" unicode="&#x5012;" d="M1587 1546 l0 -1202 l-162 0 l0 1202 l162 0 ZM434 1710 l172 -47 q-31 -106 -70 -212 q-39 -106 -83 -208 l0 -1405 l-174 0 l0 1063 q-34 -57 -68.5 -107.5 q-34.5 -50.5 -71.5 -95.5 q-7 24 -23 62.5 q-16 38.5 -35.5 77.5 q-19.5 39 -35.5 63 q81 100 154 231 q73 131 133 279 q60 148 102 299 ZM1026 498 l0 -254 q81 15 164 31.5 q83 16.5 166 31.5 l12 -157 q-220 -44 -436 -87 q-216 -43 -385 -75 l-31 170 q69 10 153.5 24 q84.5 14 178.5 29 l0 287 l-275 0 l0 157 l275 0 l0 211 l178 0 l0 -211 l301 0 l0 -157 l-301 0 ZM1032 1278 l137 59 q45 -64 90 -139 q45 -75 81.5 -146.5 q36.5 -71.5 56.5 -125.5 l-144 -68 q-9 28 -24 62.5 q-15 34.5 -33 72.5 q-173 -28 -278.5 -46 q-105.5 -18 -164 -30 q-58.5 -12 -86.5 -20 q-28 -8 -44 -16 q-8 26 -24.5 77 q-16.5 51 -33.5 84 q23 5 44 29 q21 24 42 57 q17 30 57.5 109.5 q40.5 79.5 75.5 179.5 l-180 0 l0 162 l739 0 l0 -162 l-370 0 q-37 -86 -82 -173 q-45 -87 -92 -161 l325 47 q-23 39 -46 76.5 q-23 37.5 -46 71.5 ZM1718 1657 l170 0 l0 -1573 q0 -78 -20.5 -118 q-20.5 -40 -69.5 -60 q-51 -23 -130.5 -29 q-79.5 -6 -199.5 -6 q-6 35 -24.5 84.5 q-18.5 49.5 -38.5 83.5 q92 -3 166 -3.5 q74 -0.5 98 1.5 q28 1 38.5 11 q10.5 10 10.5 36 l0 1573 Z" /><glyph glyph-name="" unicode="&#x5143;" d="M1749 1567 l0 -185 l-1442 0 l0 185 l1442 0 ZM1456 53 l232 0 q37 0 56.5 26 q19.5 26 27.5 102.5 q8 76.5 12 228.5 q34 -27 87 -49.5 q53 -22.5 91 -32.5 q-10 -177 -34.5 -276 q-24.5 -99 -77.5 -139 q-53 -40 -148 -40 l-272 0 q-102 0 -157.5 24 q-55.5 24 -77 82 q-21.5 58 -21.5 158 l0 684 l-351 0 q-14 -162 -44 -308 q-30 -146 -94 -271.5 q-64 -125.5 -178 -226.5 q-114 -101 -294 -173 q-15 37 -51 81.5 q-36 44.5 -68 72.5 q161 60 260 145.5 q99 85.5 153 192 q54 106.5 78.5 229.5 q24.5 123 35.5 258 l-494 0 l0 185 l1800 0 l0 -185 l-557 0 l0 -682 q0 -55 15.5 -70.5 q15.5 -15.5 70.5 -15.5 Z" /><glyph glyph-name="" unicode="&#x2f0a;&#x5165;" d="M588 1526 l119 162 q161 -117 272.5 -253 q111.5 -136 195 -282.5 q83.5 -146.5 158 -294.5 q74.5 -148 160 -289 q85.5 -141 200.5 -267 q115 -126 281 -228 q-16 -27 -35.5 -66.5 q-19.5 -39.5 -35.5 -80.5 q-16 -41 -21 -70 q-167 93 -286 219 q-119 126 -208.5 271 q-89.5 145 -165.5 298 q-76 153 -157 301 q-117 -376 -313.5 -647 q-196.5 -271 -491.5 -444 q-16 20 -48 50 q-32 30 -66.5 59 q-34.5 29 -59.5 46 q335 169 532.5 469 q197.5 300 292.5 721 q-66 94 -144.5 175.5 q-78.5 81.5 -178.5 150.5 Z" /><glyph glyph-name="" unicode="&#x5168;" d="M463 977 l1130 0 q-153 103 -295 222.5 q-142 119.5 -276 266.5 q-117 -139 -260.5 -262.5 q-143.5 -123.5 -298.5 -226.5 ZM1651 809 l-527 0 l0 -285 l518 0 l0 -166 l-518 0 l0 -297 l772 0 l0 -170 l-1732 0 l0 170 l760 0 l0 297 l-496 0 l0 166 l496 0 l0 285 l-516 0 l0 131 q-54 -34 -110 -64.5 q-56 -30.5 -112 -58.5 q-21 37 -57.5 81.5 q-36.5 44.5 -73.5 76.5 q185 80 362.5 197.5 q177.5 117.5 328 262 q150.5 144.5 251.5 304.5 l170 -80 q-9 -14 -18 -27 q-9 -13 -19 -26 q186 -209 404.5 -362 q218.5 -153 464.5 -273 q-35 -31 -72 -76 q-37 -45 -57 -88 q-57 32 -112 64.5 q-55 32.5 -107 66.5 l0 -129 Z" /><glyph glyph-name="" unicode="&#x5173;" d="M1913 592 l-725 0 q117 -204 314 -347 q197 -143 470 -206 q-34 -34 -73 -89 q-39 -55 -62 -100 q-263 76 -454 226 q-191 150 -318 366 q-52 -110 -152.5 -217 q-100.5 -107 -266 -204.5 q-165.5 -97.5 -413.5 -180.5 q-19 34 -60 85 q-41 51 -81 85 q261 83 422.5 179 q161.5 96 248 198 q86.5 102 122.5 205 l-742 0 l0 188 l781 0 q1 20 1.5 38.5 q0.5 18.5 0.5 35.5 l0 252 l-654 0 l0 188 l371 0 q-29 73 -83.5 164.5 q-54.5 91.5 -110.5 165.5 l159 80 q65 -77 124.5 -171.5 q59.5 -94.5 88.5 -166.5 l-131 -72 l527 0 q58 92 120 207.5 q62 115.5 99 212.5 l204 -69 q-47 -88 -103.5 -180 q-56.5 -92 -109.5 -171 l377 0 l0 -188 l-659 0 l0 -256 q0 -17 -0.5 -34 q-0.5 -17 -1.5 -36 l770 0 l0 -188 Z" /><glyph glyph-name="" unicode="&#x518c;" d="M1288 920 l277 0 l0 491 l-277 0 l0 -469 l0 -22 ZM918 737 l0 -680 q0 -52 -11 -90 q71 110 110.5 239 q39.5 129 58 265 q18.5 136 24.5 266 l-182 0 ZM492 920 l241 0 l0 491 l-241 0 l0 -463 l0 -28 ZM1960 920 l0 -183 l-207 0 l0 -680 q0 -73 -18 -116 q-18 -43 -64 -66 q-46 -23 -120 -29 q-74 -6 -183 -6 q-6 37 -22.5 90 q-16.5 53 -36.5 88 q70 -1 131.5 -1.5 q61.5 -0.5 83.5 -0.5 q41 3 41 43 l0 678 l-281 0 q-8 -150 -31.5 -313 q-23.5 -163 -71.5 -316.5 q-48 -153.5 -132 -277.5 q-23 28 -69 70.5 q-46 42.5 -75 60.5 q-18 -54 -67 -76 q-45 -23 -117 -29 q-72 -6 -176 -6 q-5 36 -23 87 q-18 51 -37 83 q68 -3 129.5 -3 q61.5 0 79.5 1 q22 2 30.5 10 q8.5 8 8.5 31 l0 678 l-248 0 q-8 -152 -34 -316.5 q-26 -164.5 -81 -319.5 q-55 -155 -149 -279 q-13 19 -38 46.5 q-25 27.5 -52.5 53 q-27.5 25.5 -46.5 37.5 q81 110 127 240 q46 130 67 268 q21 138 27 270 l-217 0 l0 183 l221 0 l0 28 l0 641 l609 0 l0 -669 l186 0 l0 22 l0 647 l649 0 l0 -669 l207 0 Z" /><glyph glyph-name="" unicode="&#x5199;" d="M674 803 l1028 0 q0 0 -1.5 -31 q-1.5 -31 -4.5 -51 q-24 -251 -48.5 -410 q-24.5 -159 -54 -248 q-29.5 -89 -69.5 -129 q-39 -38 -82 -53.5 q-43 -15.5 -105 -19.5 q-53 -5 -143 -3 q-90 2 -188 7 q-4 38 -21.5 89 q-17.5 51 -42.5 89 q101 -9 193.5 -11.5 q92.5 -2.5 134.5 -2.5 q34 0 55.5 3.5 q21.5 3.5 38.5 20.5 q43 34 75 170.5 q32 136.5 58 411.5 l-1063 0 q29 99 60 232 q31 133 60 274 q29 141 50 264 l191 -19 q-10 -46 -18 -95.5 q-8 -49.5 -19 -100.5 l874 0 l0 -166 l-909 0 q-14 -57 -26 -113.5 q-12 -56.5 -23 -107.5 ZM1331 449 l0 -177 l-1138 0 l0 177 l1138 0 ZM160 1616 l1728 0 l0 -424 l-196 0 l0 246 l-1344 0 l0 -246 l-188 0 l0 424 Z" /><glyph glyph-name="" unicode="&#x51fb;" d="M1133 756 l0 -627 l421 0 l0 485 l197 0 l0 -778 l-197 0 l0 107 l-1257 0 l0 669 l203 0 l0 -483 l432 0 l0 627 l-801 0 l0 188 l801 0 l0 285 l-653 0 l0 188 l653 0 l0 299 l201 0 l0 -299 l653 0 l0 -188 l-653 0 l0 -285 l790 0 l0 -188 l-790 0 Z" /><glyph glyph-name="" unicode="&#x5217;" d="M125 1434 l0 182 l1042 0 l0 -182 l-546 0 q-16 -70 -35 -137 q-19 -67 -39 -132 l418 0 l34 6 l119 -36 q-50 -354 -165.5 -610 q-115.5 -256 -288 -428 q-172.5 -172 -396.5 -273 q-18 37 -51 84.5 q-33 47.5 -63 75.5 q146 58 271 154 q125 96 222 233 q-54 53 -131.5 117 q-77.5 64 -144.5 116 l108 141 q65 -43 141 -100.5 q76 -57.5 132 -107.5 q105 202 157 452 l-426 0 q-100 -257 -241 -432 q-20 28 -67.5 68 q-47.5 40 -78.5 63 q117 132 199 327.5 q82 195.5 133 418.5 l-303 0 ZM1477 1491 l0 -1149 l-189 0 l0 1149 l189 0 ZM1708 1704 l190 0 l0 -1630 q0 -85 -20.5 -128 q-20.5 -43 -71.5 -65 q-49 -23 -129.5 -29.5 q-80.5 -6.5 -201.5 -5.5 q-7 37 -25 91.5 q-18 54.5 -37 91.5 q82 -2 153.5 -2 q71.5 0 94.5 0 q26 1 36.5 10.5 q10.5 9.5 10.5 34.5 l0 1632 Z" /><glyph glyph-name="" unicode="&#x5238;" d="M571 641 l867 0 q-62 48 -115.5 104 q-53.5 56 -97.5 117 l-426 0 q-100 -118 -228 -221 ZM1923 862 l-477 0 q103 -100 245 -176.5 q142 -76.5 302 -116.5 q-33 -27 -68 -73.5 q-35 -46.5 -55 -81.5 q-149 45 -287 127 q-12 -195 -26.5 -319 q-14.5 -124 -34.5 -193.5 q-20 -69.5 -49 -100.5 q-30 -32 -65 -46.5 q-35 -14.5 -81 -18.5 q-44 -5 -116.5 -5 q-72.5 0 -153.5 3 q-3 41 -17 93 q-14 52 -39 87 q76 -8 141.5 -10 q65.5 -2 94.5 0 q48 -3 74 20 q24 26 42 121.5 q18 95.5 33 296.5 l-450 0 q-29 -148 -93 -268 q-64 -120 -191 -209.5 q-127 -89.5 -343 -149.5 q-14 37 -46.5 85.5 q-32.5 48.5 -59.5 76.5 q186 44 294 110.5 q108 66.5 161.5 155 q53.5 88.5 76.5 199.5 l-293 0 l0 80 q-56 -39 -119 -73 q-63 -34 -133 -66 q-15 36 -50.5 84 q-35.5 48 -67.5 75 q139 59 254.5 133 q115.5 74 208.5 160 l-404 0 l0 170 l559 0 q65 87 113 176 l-549 0 l0 168 l317 0 q-26 52 -66.5 116 q-40.5 64 -80.5 118 l149 71 q50 -56 99.5 -127 q49.5 -71 70.5 -124 l-102 -54 l240 0 q33 86 54 174.5 q21 88.5 34 175.5 l200 -20 q-13 -83 -33.5 -165.5 q-20.5 -82.5 -48.5 -164.5 l216 0 q46 65 95.5 148 q49.5 83 80.5 149 l176 -55 q-39 -65 -82.5 -127.5 q-43.5 -62.5 -83.5 -114.5 l297 0 l0 -168 l-768 0 q-22 -46 -46 -89.5 q-24 -43.5 -48 -86.5 l999 0 l0 -170 Z" /><glyph glyph-name="" unicode="&#x524d;" d="M412 420 l405 0 l0 174 l-405 0 l0 -174 ZM817 907 l-405 0 l0 -168 l405 0 l0 168 ZM999 1069 l0 -1030 q0 -66 -16.5 -104 q-16.5 -38 -60.5 -58 q-46 -23 -116 -28 q-70 -5 -167 -5 q-9 36 -27 84 q-18 48 -37 80 q68 -3 127.5 -3 q59.5 0 77.5 1 q37 3 37 37 l0 231 l-405 0 l0 -426 l-179 0 l0 1221 l766 0 ZM1624 61 l0 1047 l188 0 l0 -1049 q0 -75 -19.5 -116.5 q-19.5 -41.5 -72.5 -63.5 q-50 -23 -131 -29.5 q-81 -6.5 -196 -5.5 q-7 39 -27.5 92 q-20.5 53 -40.5 89 q86 -3 159.5 -3.5 q73.5 -0.5 96.5 1.5 q25 1 34 9 q9 8 9 29 ZM1393 1051 l0 -834 l-176 0 l0 834 l176 0 ZM1489 1407 l448 0 l0 -174 l-1824 0 l0 174 l469 0 q-26 55 -74.5 125 q-48.5 70 -95.5 127 l178 61 q57 -61 113.5 -138.5 q56.5 -77.5 82.5 -135.5 l-104 -39 l590 0 q50 72 99.5 159.5 q49.5 87.5 80.5 159.5 l207 -63 q-42 -66 -84.5 -132 q-42.5 -66 -85.5 -124 Z" /><glyph glyph-name="" unicode="&#x52a1;" d="M1049 588 l741 0 q0 0 -3.5 -30 q-3.5 -30 -6.5 -48 q-24 -181 -48 -299 q-24 -118 -52.5 -186 q-28.5 -68 -65.5 -101 q-39 -34 -81.5 -46 q-42.5 -12 -105.5 -15 q-50 -3 -136.5 -2.5 q-86.5 0.5 -180.5 6.5 q-2 37 -19.5 83.5 q-17.5 46.5 -41.5 82.5 q98 -9 189.5 -12 q91.5 -3 131.5 -3 q34 0 54.5 3.5 q20.5 3.5 37.5 17.5 q36 28 64.5 119 q28.5 91 54.5 266 l-588 0 q-100 -238 -287.5 -373 q-187.5 -135 -476.5 -211 q-13 33 -47.5 82.5 q-34.5 49.5 -60.5 77.5 q249 49 413.5 149.5 q164.5 100.5 253.5 274.5 l-530 0 l0 164 l594 0 q25 86 37 190 l198 -16 q-7 -46 -16.5 -90 q-9.5 -44 -21.5 -84 ZM698 1354 l-22 -23 q63 -74 154 -134 q91 -60 204 -107 q134 53 248.5 118.5 q114.5 65.5 202.5 145.5 l-787 0 ZM1673 1524 l117 -78 q-91 -135 -225.5 -243 q-134.5 -108 -298.5 -189 q153 -40 330.5 -64 q177.5 -24 369.5 -35 q-31 -30 -60.5 -80.5 q-29.5 -50.5 -45.5 -86.5 q-234 18 -442.5 58 q-208.5 40 -383.5 109 q-199 -73 -418.5 -119.5 q-219.5 -46.5 -439.5 -72.5 q-11 35 -31.5 84.5 q-20.5 49.5 -42.5 81.5 q183 17 365 49 q182 32 352 80 q-151 88 -268 211 q-57 -45 -121.5 -87 q-64.5 -42 -136.5 -79 q-17 32 -51.5 77 q-34.5 45 -63.5 66 q215 106 362.5 244 q147.5 138 225.5 268 l195 -39 q-49 -82 -115 -163 l794 0 l33 8 Z" /><glyph glyph-name="" unicode="&#x52a8;" d="M973 1554 l0 -168 l-789 0 l0 168 l789 0 ZM1059 197 l-164 -56 q-6 28 -14 57.5 q-8 29.5 -19 63.5 q-201 -48 -324 -79.5 q-123 -31.5 -190.5 -51 q-67.5 -19.5 -100 -32 q-32.5 -12.5 -52.5 -23.5 l0 6 q-2 -2 -2 -6 q-8 27 -27 82.5 q-19 55.5 -33 89.5 q25 9 47.5 46.5 q22.5 37.5 48.5 92.5 q13 32 40.5 111 q27.5 79 58.5 186 q31 107 55 221 l-268 0 l0 172 l895 0 l0 -172 l-430 0 q-36 -149 -87.5 -299 q-51.5 -150 -105.5 -280 l426 96 q-26 72 -53.5 146 q-27.5 74 -54.5 139 l153 41 q40 -89 80 -190 q40 -101 72 -196.5 q32 -95.5 49 -164.5 ZM1485 1262 l446 0 q0 0 -1 -36.5 q-1 -36.5 -1 -56.5 q-9 -311 -18.5 -527 q-9.5 -216 -22.5 -355 q-13 -139 -31 -216.5 q-18 -77.5 -45 -111.5 q-32 -45 -68 -63.5 q-36 -18.5 -87 -26.5 q-48 -6 -123.5 -5.5 q-75.5 0.5 -155.5 5.5 q-3 40 -18.5 92 q-15.5 52 -38.5 92 q81 -6 148.5 -7 q67.5 -1 99.5 -1 q27 -1 44.5 5 q17.5 6 33.5 26 q24 29 41.5 135 q17.5 106 30 316 q12.5 210 22.5 552 l-264 0 q-14 -253 -53 -482.5 q-39 -229.5 -123 -422 q-84 -192.5 -232 -334.5 q-21 36 -63.5 78 q-42.5 42 -79.5 64 q133 122 208.5 291.5 q75.5 169.5 110.5 374 q35 204.5 47 431.5 l-256 0 l0 183 l262 0 q4 102 4.5 207 q0.5 105 0.5 212 l188 0 q0 -214 -6 -419 Z" /><glyph glyph-name="" unicode="&#x533a;" d="M381 80 l1563 0 l0 -182 l-1749 0 l0 1720 l1697 0 l0 -182 l-1511 0 l0 -1356 ZM1724 340 l-151 -139 q-74 90 -183.5 202.5 q-109.5 112.5 -238.5 233.5 q-128 -129 -263 -239 q-135 -110 -274 -197 q-24 27 -70.5 72.5 q-46.5 45.5 -78.5 70.5 q144 81 283.5 187 q139.5 106 267.5 229 q-122 109 -244 214 q-122 105 -235 195 l135 113 q109 -84 230 -184.5 q121 -100.5 241 -204.5 q98 107 183.5 222 q85.5 115 154.5 237 l178 -72 q-80 -135 -175.5 -262.5 q-95.5 -127.5 -201.5 -245.5 q132 -117 247.5 -228.5 q115.5 -111.5 194.5 -203.5 Z" /><glyph glyph-name="" unicode="&#x5355;" d="M487 696 l435 0 l0 185 l-435 0 l0 -185 ZM487 1212 l0 -182 l435 0 l0 182 l-435 0 ZM1573 1030 l0 182 l-455 0 l0 -182 l455 0 ZM1573 696 l0 185 l-455 0 l0 -185 l455 0 ZM1937 369 l0 -176 l-819 0 l0 -353 l-196 0 l0 353 l-807 0 l0 176 l807 0 l0 170 l-621 0 l0 829 l354 0 q-32 60 -82.5 133 q-50.5 73 -101.5 131 l164 78 q60 -68 122 -151.5 q62 -83.5 93 -145.5 l-90 -45 l473 0 q52 74 105.5 167.5 q53.5 93.5 86.5 170.5 l209 -66 q-44 -69 -92 -139.5 q-48 -70.5 -94 -132.5 l319 0 l0 -829 l-649 0 l0 -170 l819 0 Z" /><glyph glyph-name="" unicode="&#x5373;" d="M838 1444 l-428 0 l0 -227 l428 0 l0 227 ZM410 807 l428 0 l0 240 l-428 0 l0 -240 ZM637 475 l162 80 q52 -83 107 -178.5 q55 -95.5 102 -186.5 q47 -91 73 -159 l-174 -94 q-15 38 -35.5 87 q-20.5 49 -46.5 103 q-187 -63 -302 -103 q-115 -40 -178 -64 q-63 -24 -93.5 -39.5 q-30.5 -15.5 -48.5 -29.5 q-9 43 -31 102 q-22 59 -47 93 q29 15 59.5 46.5 q30.5 31.5 30.5 88.5 l0 1393 l813 0 l0 -977 l-618 0 l0 -457 l335 103 q-27 50 -53.5 99 q-26.5 49 -54.5 93 ZM1874 1599 l0 -1167 q0 -71 -15.5 -114 q-15.5 -43 -60.5 -64 q-47 -25 -118.5 -30 q-71.5 -5 -176.5 -5 q-4 39 -19.5 91 q-15.5 52 -35.5 89 q68 -3 126 -3 q58 0 77 1 q37 3 37 37 l0 991 l-316 0 l0 -1587 l-190 0 l0 1761 l692 0 Z" /><glyph glyph-name="" unicode="&#x53c2;" d="M1526 369 l176 -82 q-134 -130 -328.5 -219.5 q-194.5 -89.5 -432.5 -145.5 q-238 -56 -501 -88 q-12 39 -37 86.5 q-25 47.5 -53 81.5 q245 22 471.5 67.5 q226.5 45.5 409 119 q182.5 73.5 295.5 180.5 ZM1276 582 l160 -80 q-104 -79 -242.5 -143 q-138.5 -64 -294.5 -112 q-156 -48 -309 -81 q-19 34 -47.5 75.5 q-28.5 41.5 -59.5 71.5 q143 23 293.5 62 q150.5 39 282 91.5 q131.5 52.5 217.5 115.5 ZM1939 897 l-487 0 q103 -112 241.5 -206.5 q138.5 -94.5 282.5 -149.5 q-32 -28 -69.5 -73.5 q-37.5 -45.5 -59.5 -82.5 q-170 80 -334.5 215.5 q-164.5 135.5 -279.5 296.5 l-408 0 q-112 -160 -250 -279 q93 22 192.5 53 q99.5 31 189.5 68 q90 37 151 76 l156 -84 q-83 -56 -190.5 -105.5 q-107.5 -49.5 -221 -88.5 q-113.5 -39 -215.5 -66 q-38 59 -100 115 q-73 -60 -153 -112 q-80 -52 -163 -95 q-21 29 -66 76.5 q-45 47.5 -79 74.5 q150 65 279 157 q129 92 231 210 l-473 0 l0 170 l598 0 q21 40 42 80.5 q21 40.5 40 83.5 q-156 -7 -239 -13 q-83 -6 -122.5 -12 q-39.5 -6 -64.5 -14 q-8 28 -25 83.5 q-17 55.5 -31 92.5 q33 5 69 21 q36 16 79 43 q33 17 102.5 62 q69.5 45 152.5 108 q83 63 154 135 l172 -97 q-83 -69 -171 -133.5 q-88 -64.5 -179 -117.5 l692 22 q-53 42 -108.5 81 q-55.5 39 -108.5 73 l150 96 q91 -55 191 -127 q100 -72 188 -146 q88 -74 143 -137 l-160 -110 q-23 27 -53.5 58 q-30.5 31 -67.5 65 l-548 -25 q-17 -45 -37 -88.5 q-20 -43.5 -43 -83.5 l1011 0 l0 -170 Z" /><glyph glyph-name="" unicode="&#x53d1;" d="M1774 1413 l-154 -100 q-27 38 -69.5 89.5 q-42.5 51.5 -90.5 106.5 q-48 55 -90 101 l150 88 q42 -43 90.5 -95.5 q48.5 -52.5 92 -102.5 q43.5 -50 71.5 -87 ZM1491 709 l-582 0 q114 -212 297 -365 q88 75 160.5 166 q72.5 91 124.5 199 ZM1626 901 l129 -59 q-61 -194 -161 -345.5 q-100 -151.5 -228 -267.5 q128 -78 281 -134.5 q153 -56.5 331 -88.5 q-32 -31 -66 -82 q-34 -51 -54 -90 q-191 40 -351.5 108.5 q-160.5 68.5 -294.5 163.5 q-136 -93 -291.5 -159 q-155.5 -66 -322.5 -111 q-15 37 -45 85.5 q-30 48.5 -57 80.5 q152 35 295 92.5 q143 57.5 266 138.5 q-79 74 -145 160 q-66 86 -121 182 q-106 -175 -250 -319 q-144 -144 -336 -258 q-20 31 -63 77.5 q-43 46.5 -79 74.5 q275 156 449.5 393 q174.5 237 273.5 544 l-276 0 q-184 0 -213 -38 q-9 30 -28.5 85 q-19.5 55 -35.5 91 q22 4 41 26 q19 22 39 56 q12 20 38 75.5 q26 55.5 54 130.5 q28 75 46 154 l200 -35 q-26 -93 -64.5 -187.5 q-38.5 -94.5 -78.5 -174.5 l330 0 q26 107 46 222 q20 115 36 234 l210 -32 q-27 -225 -73 -424 l854 0 l-2 -183 l-899 0 q-16 -49 -32.5 -98.5 q-16.5 -49.5 -35.5 -95.5 l647 0 l37 8 Z" /><glyph glyph-name="" unicode="&#x53f7;" d="M1473 1233 l0 240 l-908 0 l0 -240 l908 0 ZM1673 1638 l0 -571 l-1296 0 l0 571 l1296 0 ZM1911 735 l-1166 0 q-15 -49 -30.5 -99 q-15.5 -50 -32.5 -97 l997 0 q0 0 -2.5 -31 q-2.5 -31 -7.5 -51 q-34 -248 -73.5 -373.5 q-39.5 -125.5 -94.5 -173.5 q-41 -37 -86 -50 q-45 -13 -108 -16 q-57 -3 -150.5 -2.5 q-93.5 0.5 -198.5 6.5 q-3 42 -21 92.5 q-18 50.5 -44 90.5 q104 -11 203.5 -14 q99.5 -3 142.5 -3 q35 0 57.5 3.5 q22.5 3.5 40.5 17.5 q34 26 63 105 q29 79 52 227 l-1051 0 q31 73 66 172 q35 99 65 196 l-403 0 l0 174 l1782 0 l0 -174 Z" /><glyph glyph-name="" unicode="&#x540d;" d="M700 113 l844 0 l0 430 l-844 0 l0 -430 ZM1741 715 l0 -875 l-197 0 l0 99 l-844 0 l0 -99 l-190 0 l0 654 q-80 -27 -161 -50 q-81 -23 -161 -43 q-15 40 -43.5 92 q-28.5 52 -54.5 85 q183 36 365.5 98.5 q182.5 62.5 351.5 148.5 q-65 59 -141.5 120.5 q-76.5 61.5 -145.5 113.5 l148 110 q75 -53 160.5 -118 q85.5 -65 154.5 -125 q141 87 259 192.5 q118 105.5 204 224.5 l-709 0 q-98 -90 -215.5 -172.5 q-117.5 -82.5 -257.5 -154.5 q-20 35 -59.5 81 q-39.5 46 -71.5 70 q247 112 418 263.5 q171 151.5 262 295.5 l217 -45 q-29 -41 -60 -82 q-31 -41 -65 -81 l666 0 l31 10 l131 -78 q-117 -233 -309 -416.5 q-192 -183.5 -427 -318.5 l744 0 Z" /><glyph glyph-name="" unicode="&#x54c1;" d="M1409 1116 l0 334 l-768 0 l0 -334 l768 0 ZM1604 1632 l0 -698 l-1145 0 l0 698 l1145 0 ZM723 553 l-373 0 l0 -426 l373 0 l0 426 ZM170 -162 l0 897 l741 0 l0 -882 l-188 0 l0 92 l-373 0 l0 -107 l-180 0 ZM1294 127 l406 0 l0 426 l-406 0 l0 -426 ZM1112 735 l778 0 l0 -887 l-190 0 l0 97 l-406 0 l0 -107 l-182 0 l0 897 Z" /><glyph glyph-name="" unicode="&#x552e;" d="M1536 313 l-995 0 l0 -235 l995 0 l0 235 ZM352 -166 l0 633 l1383 0 l0 -633 l-199 0 l0 92 l-995 0 l0 -92 l-189 0 ZM543 870 l0 -129 l479 0 l0 129 l-479 0 ZM1022 1245 l0 119 l-479 0 l0 -119 l479 0 ZM1022 999 l0 117 l-479 0 l0 -117 l479 0 ZM1208 741 l645 0 l0 -145 l-1310 0 l0 -74 l-187 0 l0 619 q-38 -45 -78.5 -86 q-40.5 -41 -78.5 -78 q-20 28 -62 73.5 q-42 45.5 -69 71.5 q132 109 250.5 269.5 q118.5 160.5 195.5 332.5 l176 -57 q-17 -40 -39 -82 q-22 -42 -45 -82 l420 0 q-18 42 -38 86 q-20 44 -42 82 l174 51 q31 -50 61 -109 q30 -59 50 -110 l573 0 l0 -139 l-596 0 l0 -119 l496 0 l0 -129 l-496 0 l0 -117 l500 0 l0 -129 l-500 0 l0 -129 Z" /><glyph glyph-name="" unicode="&#x5546;" d="M1245 434 l-448 0 l0 -203 l448 0 l0 203 ZM1401 94 l-604 0 l0 -90 l-160 0 l0 551 q-50 -38 -100 -70 q-7 16 -21 45.5 q-14 29.5 -30.5 60.5 q-16.5 31 -28.5 48 q90 52 188.5 121.5 q98.5 69.5 167.5 138.5 l135 -65 q-60 -67 -137 -135 q-77 -68 -154 -128 l744 0 l0 -477 ZM1636 623 l-114 -129 q-43 41 -110.5 95.5 q-67.5 54.5 -142 112 q-74.5 57.5 -139.5 105.5 l109 111 q63 -45 138 -98.5 q75 -53.5 144.5 -105.5 q69.5 -52 114.5 -91 ZM1923 1509 l0 -161 l-1186 0 q29 -51 63.5 -112 q34.5 -61 51.5 -101 l-158 -62 l494 0 q35 62 71.5 137 q36.5 75 59.5 133 l205 -43 q-36 -58 -73.5 -116.5 q-37.5 -58.5 -74.5 -110.5 l443 0 l0 -1040 q0 -71 -19.5 -105 q-19.5 -34 -68.5 -53 q-50 -18 -132.5 -22.5 q-82.5 -4.5 -209.5 -4.5 q-14 77 -56 146 q88 -3 164.5 -3.5 q76.5 -0.5 97.5 1.5 q47 0 47 41 l0 887 l-1224 0 l0 -1078 l-180 0 l0 1231 l432 0 q-19 46 -52 111.5 q-33 65.5 -61 115.5 l135 48 l-561 0 l0 161 l830 0 q-34 91 -72 170 l188 50 q26 -51 53.5 -110.5 q27.5 -59.5 47.5 -109.5 l745 0 Z" /><glyph glyph-name="" unicode="&#x56f4;" d="M1096 690 l506 0 q0 0 -1.5 -22 q-1.5 -22 -3.5 -39 q-13 -155 -31.5 -236 q-18.5 -81 -47.5 -110 q-23 -25 -48 -35.5 q-25 -10.5 -59 -14.5 q-29 -3 -79 -4 q-50 -1 -107 2 q-3 36 -14.5 77.5 q-11.5 41.5 -26.5 72.5 q49 -6 88 -8 q39 -2 57 -2 q36 0 51 18 q13 12 22.5 45.5 q9.5 33.5 18.5 100.5 l-325 0 l0 -385 l-174 0 l0 385 l-478 0 l0 155 l478 0 l0 146 l-367 0 l0 149 l367 0 l0 141 l-449 0 l0 154 l449 0 l0 143 l174 0 l0 -143 l477 0 l0 -154 l-477 0 l0 -141 l401 0 l0 -149 l-401 0 l0 -146 ZM346 94 l1352 0 l0 1381 l-1352 0 l0 -1381 ZM170 1640 l1712 0 l0 -1800 l-184 0 l0 97 l-1352 0 l0 -97 l-176 0 l0 1800 Z" /><glyph glyph-name="" unicode="&#x57ce;" d="M1751 1030 l172 -31 q-95 -395 -281 -692 q33 -127 69.5 -198.5 q36.5 -71.5 78.5 -71.5 q25 0 40 77 q15 77 19 244 q28 -30 66.5 -57 q38.5 -27 71.5 -41 q-13 -155 -37 -241.5 q-24 -86.5 -68 -122 q-44 -35.5 -117 -35.5 q-81 0 -142.5 71 q-61.5 71 -109.5 197 q-69 -83 -148.5 -156 q-79.5 -73 -168.5 -133 q-18 26 -60.5 67 q-42.5 41 -70.5 64 q231 140 393 365 q-40 184 -62.5 417.5 q-22.5 233.5 -33.5 491.5 l-444 0 l0 -250 l374 0 q0 0 0 -26 q0 -26 -2 -41 q-3 -232 -8 -374 q-5 -142 -15 -216 q-10 -74 -28 -100 q-39 -51 -109 -60 q-69 -10 -178 -4 q-3 35 -14.5 80.5 q-11.5 45.5 -30.5 77.5 q48 -6 85.5 -7 q37.5 -1 56.5 -1 q32 0 49 24 q10 14 16.5 65 q6.5 51 10 154 q3.5 103 5.5 273 l-212 0 l0 -70 q0 -110 -10 -234.5 q-10 -124.5 -36.5 -250.5 q-26.5 -126 -77 -242.5 q-50.5 -116.5 -132.5 -210.5 q-22 28 -67.5 65 q-45.5 37 -74.5 54 q71 81 114 176.5 q43 95.5 66 198.5 q-144 -60 -288.5 -118 q-144.5 -58 -266.5 -108 l-61 189 q100 31 227 78 l0 684 l-198 0 l0 176 l198 0 l0 467 l176 0 l0 -467 l181 0 l0 -176 l-181 0 l0 -621 l181 66 l34 -166 q25 113 32 226 q7 113 7 216 l0 645 l615 0 q-6 151 -6 303 l180 0 q-2 -76 -1 -152 q1 -76 3 -151 l223 0 q-35 49 -91 109.5 q-56 60.5 -110 109.5 l132 80 q62 -50 126 -116.5 q64 -66.5 97 -116.5 l-101 -66 l138 0 l0 -172 l-410 0 q8 -189 22.5 -359 q14.5 -170 34.5 -313 q51 102 90 217.5 q39 115.5 68 239.5 Z" /><glyph glyph-name="" unicode="&#x58f0;" d="M928 766 l-430 0 l0 -104 q0 -39 -2 -81 q-2 -42 -7 -85 l439 0 l0 270 ZM1583 496 l0 270 l-471 0 l0 -270 l471 0 ZM1774 922 l0 -693 l-191 0 l0 105 l-1116 0 q-28 -135 -88 -267.5 q-60 -132.5 -170 -236.5 q-23 28 -70 69.5 q-47 41.5 -80 59.5 q112 104 165.5 228 q53.5 124 70 248 q16.5 124 16.5 229 l0 258 l1463 0 ZM1901 1393 l-787 0 l0 -168 l696 0 l0 -162 l-1540 0 l0 162 l654 0 l0 168 l-779 0 l0 161 l779 0 l0 166 l190 0 l0 -166 l787 0 l0 -161 Z" /><glyph glyph-name="" unicode="&#x591a;" d="M1522 1554 l125 -75 q-98 -173 -250.5 -309.5 q-152.5 -136.5 -340.5 -239 q-188 -102.5 -395 -173 q-207 -70.5 -413 -112.5 q-14 35 -40 86 q-26 51 -50 82 q164 28 329.5 75.5 q165.5 47.5 317.5 115.5 q-46 41 -100.5 82.5 q-54.5 41.5 -106.5 76.5 l141 92 q57 -35 120.5 -80 q63.5 -45 115.5 -88 q110 62 206.5 134 q96.5 72 170.5 155 l-549 0 q-98 -73 -212 -142 q-114 -69 -245 -130 q-21 34 -59 74 q-38 40 -70 63 q244 98 424 227.5 q180 129.5 279 253.5 l206 -47 q-27 -34 -59 -66.5 q-32 -32.5 -68 -64.5 l490 0 l33 10 ZM1802 823 l131 -75 q-106 -229 -281.5 -389.5 q-175.5 -160.5 -401.5 -266.5 q-226 -106 -487.5 -168 q-261.5 -62 -541.5 -92 q-9 42 -31 96.5 q-22 54.5 -45 87.5 q255 22 494 70.5 q239 48.5 444 134.5 q-47 46 -103.5 92.5 q-56.5 46.5 -107.5 83.5 l156 95 q55 -40 117.5 -89 q62.5 -49 116.5 -98 q118 68 216 152 q98 84 171 188 l-514 0 q-125 -97 -279 -182.5 q-154 -85.5 -338 -157.5 q-18 35 -53 79 q-35 44 -66 69 q311 106 525 255 q214 149 327 300 l209 -47 q-30 -39 -61.5 -75 q-31.5 -36 -67.5 -71 l438 0 l33 8 Z" /><glyph glyph-name="" unicode="&#x2f24;&#x5927;" d="M1923 954 l-747 0 q104 -319 299 -565.5 q195 -246.5 485 -368.5 q-35 -30 -76.5 -82.5 q-41.5 -52.5 -64.5 -95.5 q-288 134 -479.5 376.5 q-191.5 242.5 -311.5 567.5 q-52 -185 -148.5 -360 q-96.5 -175 -253 -324.5 q-156.5 -149.5 -388.5 -259.5 q-23 39 -64.5 84 q-41.5 45 -81.5 76 q244 107 398.5 259 q154.5 152 241.5 330 q87 178 128 363 l-727 0 l0 197 l762 0 q18 154 20.5 298 q2.5 144 4.5 267 l206 0 q-1 -124 -5.5 -268.5 q-4.5 -144.5 -22.5 -296.5 l825 0 l0 -197 Z" /><glyph glyph-name="" unicode="&#x5b66;" d="M342 1219 l0 -252 l-178 0 l0 419 l323 0 q-27 56 -71 120.5 q-44 64.5 -90 119.5 l161 74 q56 -63 110.5 -139.5 q54.5 -76.5 80.5 -133.5 l-82 -41 l405 0 q-21 63 -61 143 q-40 80 -82 144 l168 64 q49 -71 96 -156.5 q47 -85.5 66 -148.5 l-113 -46 l303 0 q54 71 107.5 159.5 q53.5 88.5 85.5 160.5 l194 -66 q-43 -64 -90.5 -130.5 q-47.5 -66.5 -93.5 -123.5 l317 0 l0 -419 l-188 0 l0 252 l-1368 0 ZM1929 571 l0 -176 l-813 0 l0 -336 q0 -78 -23.5 -121 q-23.5 -43 -86.5 -63 q-63 -21 -156.5 -26 q-93.5 -5 -226.5 -5 q-11 39 -34 92.5 q-23 53.5 -46 90.5 q107 -3 202 -3.5 q95 -0.5 127 1.5 q30 1 40 9 q10 8 10 29 l0 332 l-793 0 l0 176 l793 0 l0 140 q76 29 155 69.5 q79 40.5 148 83.5 l-746 0 l0 166 l961 0 l39 10 l123 -96 q-97 -87 -224.5 -167.5 q-127.5 -80.5 -261.5 -141.5 l0 -64 l813 0 Z" /><glyph glyph-name="" unicode="&#x5b9a;" d="M356 1315 l0 -289 l-186 0 l0 469 l772 0 q-15 45 -37.5 94 q-22.5 49 -44.5 92 l189 56 q32 -57 64 -123.5 q32 -66.5 50 -118.5 l717 0 l0 -469 l-194 0 l0 289 l-1330 0 ZM1120 438 l0 -358 q68 -12 141.5 -16.5 q73.5 -4.5 151.5 -4.5 q34 0 106.5 0 q72.5 0 158.5 0.5 q86 0.5 163 1 q77 0.5 121 0.5 q-23 -33 -43.5 -91 q-20.5 -58 -26.5 -101 l-489 0 q-202 0 -367 30.5 q-165 30.5 -294 115 q-129 84.5 -222 247.5 q-50 -130 -122.5 -238.5 q-72.5 -108.5 -168.5 -191.5 q-14 17 -41.5 42 q-27.5 25 -58 49 q-30.5 24 -51.5 38 q167 126 252.5 335.5 q85.5 209.5 115.5 479.5 l193 -20 q-9 -68 -20.5 -133 q-11.5 -65 -26.5 -125 q55 -145 139.5 -231 q84.5 -86 192.5 -134 l0 780 l-473 0 l0 181 l1153 0 l0 -181 l-484 0 l0 -297 l586 0 l0 -178 l-586 0 Z" /><glyph glyph-name="" unicode="&#x5c06;" d="M455 1174 l0 542 l184 0 l0 -1878 l-184 0 l0 686 q-71 -64 -140.5 -127 q-69.5 -63 -132.5 -116 l-98 161 q69 53 167.5 134 q98.5 81 203.5 172 l0 344 l-105 -88 q-24 46 -67 104.5 q-43 58.5 -94.5 119 q-51.5 60.5 -100.5 111.5 l129 103 q63 -59 128 -131.5 q65 -72.5 110 -136.5 ZM1653 1403 l-459 0 q-83 -66 -172.5 -124 q-89.5 -58 -181.5 -101 q-22 27 -60 64 q-38 37 -65 61 q170 70 317 182.5 q147 112.5 230 232.5 l194 -53 q-21 -28 -44 -54.5 q-23 -26.5 -48 -54.5 l397 0 l35 9 l125 -66 q-97 -209 -267.5 -356 q-170.5 -147 -385 -242 q-214.5 -95 -445.5 -147 q-14 32 -40.5 77 q-26.5 45 -51.5 72 q118 23 235.5 59.5 q117.5 36.5 225.5 86.5 q-32 44 -79 92.5 q-47 48.5 -91 87.5 l141 82 q48 -39 97.5 -87.5 q49.5 -48.5 82.5 -95.5 q94 57 172 125 q78 68 138 150 ZM852 440 l154 80 q50 -51 101.5 -113 q51.5 -62 94.5 -124 q43 -62 68 -113 l-166 -94 q-22 51 -62 115 q-40 64 -90 129 q-50 65 -100 120 ZM1946 729 l0 -176 l-236 0 l0 -502 q0 -74 -20 -116.5 q-20 -42.5 -74 -63.5 q-52 -22 -137 -26.5 q-85 -4.5 -203 -4.5 q-6 39 -24.5 90.5 q-18.5 51.5 -37.5 89.5 q86 -3 162.5 -3.5 q76.5 -0.5 102.5 -0.5 q43 0 43 37 l0 500 l-801 0 l0 176 l801 0 l0 229 l188 0 l0 -229 l236 0 Z" /><glyph glyph-name="" unicode="&#x2f29;&#x5c0f;" d="M928 1690 l207 0 l0 -1600 q0 -95 -26.5 -142.5 q-26.5 -47.5 -86.5 -72.5 q-61 -23 -161.5 -29.5 q-100.5 -6.5 -246.5 -5.5 q-9 40 -30.5 98.5 q-21.5 58.5 -44.5 100.5 q69 -3 137.5 -4.5 q68.5 -1.5 120.5 -1 q52 0.5 73 1.5 q33 1 45.5 12.5 q12.5 11.5 12.5 42.5 l0 1600 ZM1417 1167 l185 70 q87 -142 167 -305 q80 -163 140 -319.5 q60 -156.5 86 -280.5 l-207 -82 q-22 121 -78 278.5 q-56 157.5 -133 324.5 q-77 167 -160 314 ZM397 1221 l215 -39 q-33 -150 -83.5 -314.5 q-50.5 -164.5 -119 -317 q-68.5 -152.5 -157.5 -265.5 q-35 26 -89.5 56 q-54.5 30 -92.5 44 q86 107 151 250.5 q65 143.5 109 296.5 q44 153 67 289 Z" /><glyph glyph-name="" unicode="&#x5e02;" d="M1944 1243 l-828 0 l0 -254 l658 0 l0 -702 q0 -76 -20 -120.5 q-20 -44.5 -77 -66.5 q-57 -23 -144.5 -27.5 q-87.5 -4.5 -211.5 -4.5 q-6 40 -26 94 q-20 54 -42 92 q93 -3 173.5 -3.5 q80.5 -0.5 105.5 -0.5 q26 1 35.5 9 q9.5 8 9.5 30 l0 514 l-461 0 l0 -959 l-198 0 l0 959 l-433 0 l0 -740 l-192 0 l0 926 l625 0 l0 254 l-812 0 l0 187 l848 0 q-24 58 -57 125.5 q-33 67.5 -63 123.5 l186 56 q41 -71 87.5 -158.5 q46.5 -87.5 68.5 -146.5 l768 0 l0 -187 Z" /><glyph glyph-name="" unicode="&#x5e03;" d="M1925 1235 l-1098 0 q-83 -183 -194 -346 l395 0 l0 258 l193 0 l0 -258 l598 0 l0 -645 q0 -71 -19 -112 q-19 -41 -71 -62 q-53 -20 -136.5 -25.5 q-83.5 -5.5 -208.5 -3.5 q-6 38 -23.5 87.5 q-17.5 49.5 -37.5 84.5 q86 -3 161.5 -3.5 q75.5 -0.5 98.5 1.5 q25 0 34 7.5 q9 7.5 9 29.5 l0 463 l-405 0 l0 -875 l-193 0 l0 875 l-385 0 l0 -688 l-190 0 l0 632 q-126 -137 -279 -247 q-18 36 -50.5 85.5 q-32.5 49.5 -60.5 79.5 q179 122 317 293.5 q138 171.5 234 368.5 l-487 0 l0 182 l569 0 q31 77 56.5 153.5 q25.5 76.5 44.5 151.5 l196 -47 q-18 -64 -40.5 -128.5 q-22.5 -64.5 -47.5 -129.5 l1020 0 l0 -182 Z" /><glyph glyph-name="" unicode="&#x5e10;" d="M1698 1632 l176 -55 q-91 -171 -226.5 -326 q-135.5 -155 -273.5 -260 q-13 17 -37.5 44 q-24.5 27 -51.5 53.5 q-27 26.5 -46 41.5 q135 90 257.5 223 q122.5 133 201.5 279 ZM549 426 l90 0 q18 0 18 23 l0 720 l-108 0 l0 -743 ZM801 1337 l0 -893 q0 -52 -9.5 -89 q-9.5 -37 -39.5 -58 q-31 -23 -71 -28 q-40 -5 -97 -5 q-3 31 -12 72.5 q-9 41.5 -23 75.5 l0 -572 l-166 0 l0 1329 l-117 0 l0 -913 l-149 0 l0 1081 l266 0 l0 379 l166 0 l0 -379 l252 0 ZM1950 760 l-422 0 q61 -234 174 -429.5 q113 -195.5 274 -301.5 q-30 -25 -68.5 -68 q-38.5 -43 -58.5 -82 q-184 137 -306 367.5 q-122 230.5 -191 513.5 l-154 0 l0 -637 l287 102 q0 -40 5 -91.5 q5 -51.5 11 -82.5 q-151 -60 -244.5 -98.5 q-93.5 -38.5 -145.5 -61 q-52 -22.5 -77 -36 q-25 -13.5 -39 -25.5 q-9 32 -31.5 81 q-22.5 49 -43.5 75 q29 15 62.5 49.5 q33.5 34.5 33.5 97.5 l0 627 l-162 0 l0 184 l162 0 l0 735 l182 0 l0 -735 l752 0 l0 -184 Z" /><glyph glyph-name="" unicode="&#x5e97;" d="M1585 113 l0 315 l-797 0 l0 -315 l797 0 ZM1233 1233 l0 -219 l643 0 l0 -174 l-643 0 l0 -236 l547 0 l0 -737 l-195 0 l0 76 l-797 0 l0 -80 l-186 0 l0 741 l434 0 l0 629 l197 0 ZM1251 1479 l682 0 l0 -181 l-1482 0 l0 -342 q0 -120 -8.5 -265.5 q-8.5 -145.5 -31 -297.5 q-22.5 -152 -65.5 -295.5 q-43 -143.5 -113 -261.5 q-17 17 -48 39 q-31 22 -64 42.5 q-33 20.5 -55 29.5 q65 110 103 239 q38 129 56 265 q18 136 23.5 266 q5.5 130 5.5 241 l0 521 l782 0 q-18 49 -42 100 q-24 51 -50 94 l189 43 q36 -54 67 -118 q31 -64 51 -119 Z" /><glyph glyph-name="" unicode="&#x5f00;" d="M780 866 l525 0 l0 545 l-525 0 l0 -469 q0 -18 0 -37 q0 -19 0 -39 ZM1942 866 l0 -182 l-439 0 l0 -848 l-198 0 l0 848 l-537 0 q-15 -157 -64 -309.5 q-49 -152.5 -153.5 -291 q-104.5 -138.5 -286.5 -253.5 q-24 32 -71 75 q-47 43 -82 66 q160 99 255 215 q95 116 142 242.5 q47 126.5 63 255.5 l-458 0 l0 182 l473 0 q0 20 0 39 q0 19 0 37 l0 469 l-404 0 l0 180 l1696 0 l0 -180 l-375 0 l0 -545 l439 0 Z" /><glyph glyph-name="" unicode="&#x5f55;" d="M1638 764 l164 -121 q-90 -75 -194.5 -150 q-104.5 -75 -198.5 -135 q111 -93 245 -164 q134 -71 290 -112 q-31 -28 -68 -78 q-37 -50 -57 -88 q-222 72 -398 202 q-176 130 -305 308 l0 -395 q0 -74 -20 -113 q-20 -39 -74 -57 q-54 -20 -135.5 -24 q-81.5 -4 -198.5 -3 q-9 37 -27 83.5 q-18 46.5 -38 80.5 q83 -3 158 -3.5 q75 -0.5 98 1.5 q43 0 43 39 l0 223 q-180 -80 -359 -156.5 q-179 -76.5 -323 -138.5 l-105 172 q98 34 226.5 83 q128.5 49 272 106.5 q143.5 57.5 288.5 115.5 l0 348 l-781 0 l0 168 l1313 0 q3 39 6 77.5 q3 38.5 4 78.5 l-1128 0 l0 170 l1139 0 q1 42 2.5 79.5 q1.5 37.5 3.5 74.5 l-1211 0 l0 176 l1237 0 l33 8 l152 -10 q-3 -151 -13 -323 q-10 -172 -24 -331 l262 0 l0 -168 l-801 0 l0 -51 q35 -70 79 -135.5 q44 -65.5 97 -124.5 q91 63 185.5 141 q94.5 78 160.5 146 ZM268 633 l127 115 q64 -34 135 -77.5 q71 -43.5 135 -88.5 q64 -45 107 -84 l-135 -131 q-39 39 -101 86.5 q-62 47.5 -132.5 94.5 q-70.5 47 -135.5 85 Z" /><glyph glyph-name="" unicode="&#x5f80;" d="M498 1712 l182 -70 q-60 -90 -140 -181 q-80 -91 -169 -173 q-89 -82 -178 -143 q-16 34 -46.5 82 q-30.5 48 -52.5 76 q76 51 153.5 120 q77.5 69 143.5 144 q66 75 107 145 ZM545 1266 l168 -70 q-36 -63 -78 -127 q-42 -64 -88 -127 l0 -1106 l-195 0 l0 873 q-46 -50 -94 -94 q-48 -44 -94 -83 q-8 22 -24.5 59 q-16.5 37 -36 74 q-19.5 37 -35.5 60 q87 66 175 153 q88 87 166 186 q78 99 136 202 ZM1423 82 l535 0 l0 -182 l-1290 0 l0 182 l557 0 l0 475 l-428 0 l0 182 l428 0 l0 414 l-498 0 l0 180 l551 0 q-20 66 -65 160 q-45 94 -93 172 l174 61 q49 -76 98 -167.5 q49 -91.5 72 -157.5 l-180 -68 l621 0 l0 -180 l-482 0 l0 -414 l418 0 l0 -182 l-418 0 l0 -475 Z" /><glyph glyph-name="" unicode="&#x5f85;" d="M510 1714 l180 -74 q-62 -90 -145.5 -180.5 q-83.5 -90.5 -176.5 -172 q-93 -81.5 -184 -142.5 q-15 34 -44 82 q-29 48 -52 78 q79 51 160 119.5 q81 68.5 150 144 q69 75.5 112 145.5 ZM553 1268 l166 -68 q-71 -123 -166 -250 l0 -1112 l-182 0 l0 899 q-53 -57 -107 -107 q-54 -50 -106 -91 q-8 20 -25 56 q-17 36 -36.5 73.5 q-19.5 37.5 -35.5 60.5 q91 65 182 151.5 q91 86.5 171.5 185.5 q80.5 99 138.5 202 ZM834 406 l155 81 q46 -52 93.5 -114 q47.5 -62 87 -123.5 q39.5 -61.5 63.5 -110.5 l-166 -94 q-20 49 -57.5 112 q-37.5 63 -83.5 128 q-46 65 -92 121 ZM1966 899 l-272 0 l0 -199 l258 0 l0 -174 l-258 0 l0 -475 q0 -77 -19.5 -118.5 q-19.5 -41.5 -72.5 -61.5 q-53 -23 -135.5 -28 q-82.5 -5 -198.5 -5 q-6 40 -23.5 92 q-17.5 52 -36.5 90 q83 -4 157 -4.5 q74 -0.5 97 0.5 q25 2 34 10 q9 8 9 29 l0 471 l-809 0 l0 174 l809 0 l0 199 l-831 0 l0 174 l551 0 l0 221 l-432 0 l0 174 l432 0 l0 242 l188 0 l0 -242 l453 0 l0 -174 l-453 0 l0 -221 l553 0 l0 -174 Z" /><glyph glyph-name="" unicode="&#x2f3c;&#x5fc3;" d="M692 1536 l129 127 q94 -62 201 -139.5 q107 -77.5 202.5 -156 q95.5 -78.5 155.5 -142.5 l-141 -146 q-56 64 -148.5 145.5 q-92.5 81.5 -198 163.5 q-105.5 82 -200.5 148 ZM1532 997 l176 70 q59 -122 113 -258.5 q54 -136.5 95 -267.5 q41 -131 62 -236 l-190 -80 q-19 105 -58 239 q-39 134 -91 273.5 q-52 139.5 -107 259.5 ZM266 1008 l187 -35 q-16 -126 -40.5 -274.5 q-24.5 -148.5 -56.5 -292 q-32 -143.5 -71 -254.5 l-191 79 q40 106 74 238.5 q34 132.5 59.5 272 q25.5 139.5 38.5 266.5 ZM608 1145 l197 0 l0 -977 q0 -72 25 -92.5 q25 -20.5 106 -20.5 l346 0 q58 0 87.5 31 q29.5 31 42 118.5 q12.5 87.5 20.5 256.5 q33 -26 87 -49.5 q54 -23.5 91 -32.5 q-12 -193 -40 -302 q-28 -109 -92.5 -154.5 q-64.5 -45.5 -183.5 -45.5 l-379 0 q-119 0 -186 26 q-67 26 -94 89 q-27 63 -27 176 l0 977 Z" /><glyph glyph-name="" unicode="&#x60c5;" d="M203 750 l-144 45 q22 69 39.5 161.5 q17.5 92.5 30 188.5 q12.5 96 18.5 176 l138 -16 q-3 -81 -14.5 -181 q-11.5 -100 -29 -199 q-17.5 -99 -38.5 -175 ZM721 1141 l-129 -62 q-15 54 -44.5 135 q-29.5 81 -60.5 152 l0 -1526 l-174 0 l0 1876 l174 0 l0 -334 l119 48 q31 -70 65.5 -151 q34.5 -81 49.5 -138 ZM950 287 l678 0 l0 127 l-678 0 l0 -127 ZM1628 682 l-678 0 l0 -127 l678 0 l0 127 ZM1808 825 l0 -790 q0 -65 -16.5 -103.5 q-16.5 -38.5 -62.5 -58.5 q-48 -20 -122 -24.5 q-74 -4.5 -180 -4.5 q-6 36 -22 83 q-16 47 -33 81 q71 -4 135 -4 q64 0 84 0 q37 3 37 35 l0 111 l-678 0 l0 -310 l-176 0 l0 985 l1034 0 ZM1380 1067 l578 0 l0 -141 l-1327 0 l0 141 l561 0 l0 119 l-451 0 l0 133 l451 0 l0 106 l-500 0 l0 142 l500 0 l0 151 l188 0 l0 -151 l518 0 l0 -142 l-518 0 l0 -106 l465 0 l0 -133 l-465 0 l0 -119 Z" /><glyph glyph-name="" unicode="&#x60e0;" d="M1559 1221 l-451 0 l0 -115 l451 0 l0 115 ZM1559 874 l0 117 l-451 0 l0 -117 l451 0 ZM1108 614 l330 4 q-74 42 -138 68 l95 70 l-287 0 l0 -142 ZM465 874 l446 0 l0 117 l-446 0 l0 -117 ZM465 1221 l0 -115 l446 0 l0 115 l-446 0 ZM911 1339 l0 115 l-755 0 l0 152 l755 0 l0 110 l197 0 l0 -110 l780 0 l0 -152 l-780 0 l0 -115 l639 0 l0 -583 l-264 0 q79 -39 158.5 -87 q79.5 -48 148 -98 q68.5 -50 113.5 -94 l-129 -104 q-23 24 -54 49 q-31 25 -63 53 q-172 -4 -346.5 -7.5 q-174.5 -3.5 -341.5 -6.5 q87 -46 176.5 -108 q89.5 -62 140.5 -115 l-129 -113 q-33 37 -86 80.5 q-53 43.5 -115.5 86 q-62.5 42.5 -121.5 75.5 l112 94 q-221 -5 -421.5 -7 q-200.5 -2 -358.5 -3 l-8 161 q149 -1 343 0 q194 1 410 2 l0 142 l-626 0 l0 583 l626 0 ZM264 -102 l-164 92 q62 72 112 175.5 q50 103.5 79 196.5 l164 -67 q-33 -97 -81 -208 q-48 -111 -110 -189 ZM870 25 l404 0 q48 0 73 13 q25 13 36 54 q11 41 16 125 q31 -21 80 -38.5 q49 -17.5 86 -24.5 q-13 -116 -40 -178 q-27 -62 -82 -85.5 q-55 -23.5 -153 -23.5 l-434 0 q-127 0 -196 19 q-69 19 -96 66.5 q-27 47.5 -27 133.5 l0 264 l188 0 l0 -262 q0 -41 26.5 -52 q26.5 -11 118.5 -11 ZM1528 301 l164 55 q48 -59 94 -128.5 q46 -69.5 82 -137.5 q36 -68 53 -123 l-174 -61 q-16 53 -50.5 121.5 q-34.5 68.5 -78.5 140 q-44 71.5 -90 133.5 Z" /><glyph glyph-name="" unicode="&#x6211;" d="M1896 1329 l-153 -110 q-29 48 -79 109 q-50 61 -109.5 123 q-59.5 62 -116.5 114 l143 98 q57 -49 118 -108.5 q61 -59.5 113.5 -118.5 q52.5 -59 83.5 -107 ZM1679 866 l170 -71 q-137 -253 -346 -465 q51 -143 110 -224 q59 -81 122 -81 q37 0 56.5 81.5 q19.5 81.5 27.5 272.5 q32 -34 76.5 -64 q44.5 -30 82.5 -43 q-16 -174 -45.5 -270 q-29.5 -96 -81.5 -134 q-52 -38 -135 -38 q-117 0 -208 95 q-91 95 -158 259 q-191 -162 -406 -276 q-23 35 -58.5 78 q-35.5 43 -72.5 75 q126 59 245 139 q119 80 228 175 q-37 124 -63.5 269.5 q-26.5 145.5 -44.5 303.5 l-453 0 l0 -286 l342 67 l14 -170 q-87 -20 -177 -40.5 q-90 -20.5 -179 -39.5 l0 -407 q0 -85 -22.5 -130.5 q-22.5 -45.5 -75.5 -68.5 q-54 -23 -141 -30 q-87 -7 -210 -7 q-7 40 -28.5 97 q-21.5 57 -42.5 96 q93 -3 172.5 -3.5 q79.5 -0.5 105.5 1.5 q28 1 38.5 10.5 q10.5 9.5 10.5 34.5 l0 364 q-109 -23 -208 -44 q-99 -21 -187 -40 l-53 191 q91 15 206 36 q115 21 242 46 l0 323 l-413 0 l0 180 l413 0 l0 283 q-90 -15 -179.5 -27.5 q-89.5 -12.5 -172.5 -23.5 q-7 32 -24 79.5 q-17 47.5 -35 78.5 q142 21 291 49.5 q149 28.5 283.5 61 q134.5 32.5 234.5 67.5 l133 -160 q-75 -25 -161 -46.5 q-86 -21.5 -177 -39.5 l0 -322 l434 0 q-12 139 -18.5 282.5 q-6.5 143.5 -7.5 289.5 l196 0 q-1 -148 4.5 -292 q5.5 -144 18.5 -280 l581 0 l0 -180 l-561 0 q30 -225 74 -416 q69 79 129 163 q60 84 104 171 Z" /><glyph glyph-name="" unicode="&#x6216;" d="M1026 340 l16 -180 q-153 -36 -310.5 -70.5 q-157.5 -34.5 -303 -65.5 q-145.5 -31 -264.5 -57 l-37 195 q113 19 260 48 q147 29 311 62.5 q164 33.5 328 67.5 ZM786 594 l0 303 l-366 0 l0 -303 l366 0 ZM246 1059 l725 0 l0 -627 l-725 0 l0 627 ZM1657 1092 l188 -48 q-64 -202 -152 -381.5 q-88 -179.5 -200 -332.5 q49 -139 106 -217 q57 -78 117 -78 q37 0 57 86 q20 86 29 285 q31 -33 77.5 -64.5 q46.5 -31.5 86.5 -46.5 q-16 -182 -47 -282 q-31 -100 -84.5 -139.5 q-53.5 -39.5 -138.5 -39.5 q-108 0 -195 85 q-87 85 -153 231 q-85 -94 -181 -174 q-96 -80 -202 -146 q-22 29 -69 75.5 q-47 46.5 -79 74.5 q131 72 245.5 167.5 q114.5 95.5 211.5 210.5 q-55 179 -90 399 q-35 220 -54 462 l-993 0 l0 186 l981 0 q-4 77 -6 154.5 q-2 77.5 -4 154.5 l205 0 q0 -78 0.5 -156 q0.5 -78 5.5 -153 l405 0 q-56 48 -140.5 102 q-84.5 54 -164.5 92 l113 117 q58 -25 122 -60 q64 -35 120.5 -72.5 q56.5 -37.5 93.5 -70.5 l-99 -108 l150 0 l0 -186 l-590 0 q16 -182 39 -346.5 q23 -164.5 55 -303.5 q73 117 131 248.5 q58 131.5 103 274.5 Z" /><glyph glyph-name="" unicode="&#x2f3e;&#x6237;" d="M528 860 l1020 0 l0 371 l-1018 0 l0 -273 q0 -24 0 -48 q0 -24 -2 -50 ZM1090 1409 l653 0 l0 -848 l-195 0 l0 121 l-1028 0 q-12 -145 -42.5 -298.5 q-30.5 -153.5 -87.5 -297 q-57 -143.5 -150 -260.5 q-26 26 -78.5 62.5 q-52.5 36.5 -87.5 52.5 q88 109 140 239 q52 130 78 266.5 q26 136.5 34 268 q8 131.5 8 243.5 l0 451 l655 0 q-15 60 -45 134.5 q-30 74.5 -57 137.5 l186 50 q34 -70 68 -150.5 q34 -80.5 51 -140.5 l-102 -31 Z" /><glyph glyph-name="" unicode="&#x62a2;" d="M772 846 l25 -182 q-62 -17 -122 -35 q-60 -18 -120 -35 l0 -531 q0 -73 -17.5 -114.5 q-17.5 -41.5 -62.5 -63.5 q-46 -23 -116.5 -29 q-70.5 -6 -176.5 -6 q-6 36 -22.5 88 q-16.5 52 -36.5 89 q69 -2 126.5 -2 q57.5 0 76.5 0 q21 1 31 9 q10 8 10 32 l0 475 q-126 -37 -240 -68 l-53 191 q61 13 136 32.5 q75 19.5 157 40.5 l0 402 l-267 0 l0 180 l267 0 l0 399 l188 0 l0 -399 l219 0 l0 -180 l-219 0 l0 -353 l217 60 ZM1012 1012 l669 0 q-93 92 -179 203 q-86 111 -156 231 q-71 -121 -156 -231 q-85 -110 -178 -203 ZM1290 1739 l176 -56 q-7 -16 -15 -35.5 q-8 -19.5 -17 -37.5 q64 -115 156 -227.5 q92 -112.5 197 -207 q105 -94.5 210 -155.5 q-34 -28 -75 -73.5 q-41 -45.5 -64 -84.5 q-75 53 -146 121 q0 -11 -1 -22 q-1 -11 -1 -19 q-5 -175 -11.5 -285.5 q-6.5 -110.5 -18.5 -171 q-12 -60.5 -33 -86.5 q-27 -30 -57.5 -43 q-30.5 -13 -71.5 -18 q-37 -3 -102.5 -3.5 q-65.5 -0.5 -137.5 1.5 q-3 37 -16.5 82.5 q-13.5 45.5 -34.5 79.5 q66 -6 121 -8.5 q55 -2.5 79 -2.5 q47 0 62 21 q17 18 25 91 q8 73 14 235 l-391 0 l0 -682 q0 -62 22.5 -78.5 q22.5 -16.5 104.5 -16.5 l350 0 q49 0 74 21.5 q25 21.5 36 82 q11 60.5 17 179.5 q32 -25 82 -45.5 q50 -20.5 90 -28.5 q-13 -150 -41 -234 q-28 -84 -85 -117.5 q-57 -33.5 -159 -33.5 l-383 0 q-113 0 -177.5 23 q-64.5 23 -91 81.5 q-26.5 58.5 -26.5 166.5 l0 800 q-32 -29 -63 -55 q-31 -26 -64 -49 q-15 32 -49 89 q-34 57 -61 89 q179 121 333 309.5 q154 188.5 244 403.5 Z" /><glyph glyph-name="" unicode="&#x62a5;" d="M776 846 l25 -184 l-234 -66 l0 -535 q0 -79 -20.5 -122.5 q-20.5 -43.5 -69.5 -65.5 q-49 -23 -128 -29 q-79 -6 -202 -6 q-6 37 -21.5 90.5 q-15.5 53.5 -37.5 91.5 q80 -3 149 -3 q69 0 91 1 q26 0 35.5 9.5 q9.5 9.5 9.5 35.5 l0 476 q-69 -20 -133.5 -37.5 q-64.5 -17.5 -122.5 -32.5 l-45 195 q63 15 139.5 34 q76.5 19 161.5 39 l0 398 l-273 0 l0 184 l273 0 l0 397 l194 0 l0 -397 l215 0 l0 -184 l-215 0 l0 -344 q53 13 106 26 q53 13 103 29 ZM1047 776 l0 -794 q96 47 179 109 q83 62 152 134 q-92 120 -164.5 259 q-72.5 139 -126.5 292 l-40 0 ZM1681 776 l-411 0 q41 -109 98.5 -210 q57.5 -101 128.5 -191 q63 90 108.5 191 q45.5 101 75.5 210 ZM1782 954 l121 -39 q-36 -192 -105 -364 q-69 -172 -174 -318 q77 -72 164 -130.5 q87 -58.5 184 -98.5 q-34 -28 -71 -76 q-37 -48 -60 -88 q-188 94 -340 246 q-74 -75 -157.5 -139 q-83.5 -64 -180.5 -115 q-20 32 -52 69 q-32 37 -64 64 l0 -123 l-189 0 l0 1805 l989 0 q0 0 -1 -28 q-1 -28 -3 -46 q-7 -215 -24.5 -317 q-17.5 -102 -51.5 -138 q-30 -34 -70.5 -46.5 q-40.5 -12.5 -92.5 -16.5 q-51 -3 -138.5 -2 q-87.5 1 -185.5 6 q-2 35 -16.5 80 q-14.5 45 -34.5 78 q95 -8 178.5 -10.5 q83.5 -2.5 114.5 -2.5 q32 0 50 3 q18 3 32 16 q16 17 25.5 74 q9.5 57 17.5 173 l-600 0 l0 -522 l700 0 l35 6 Z" /><glyph glyph-name="" unicode="&#x64ad;" d="M866 641 l922 0 q-108 66 -211 158.5 q-103 92.5 -178 193.5 l0 -313 l-172 0 l0 293 q-147 -201 -361 -332 ZM1389 63 l266 0 l0 150 l-266 0 l0 -150 ZM989 213 l0 -150 l240 0 l0 150 l-240 0 ZM1229 350 l0 148 l-240 0 l0 -148 l240 0 ZM1655 350 l0 148 l-266 0 l0 -148 l266 0 ZM1933 1044 l-379 0 q85 -96 204.5 -181.5 q119.5 -85.5 234.5 -131.5 q-28 -24 -63.5 -64.5 q-35.5 -40.5 -55.5 -74.5 q-11 4 -21.5 10 q-10.5 6 -21.5 12 l0 -761 l-176 0 l0 71 l-666 0 l0 -84 l-168 0 l0 774 q-21 -12 -40.5 -22.5 q-19.5 -10.5 -41.5 -20.5 q-15 23 -38 53.5 q-23 30.5 -46 55.5 l-151 -57 l0 -574 q0 -71 -16 -111.5 q-16 -40.5 -58 -62.5 q-41 -23 -104.5 -30 q-63.5 -7 -161.5 -7 q-3 34 -18 86.5 q-15 52.5 -33 89.5 q61 -1 112 -1 q51 0 68 1 q20 0 28.5 7 q8.5 7 8.5 28 l0 510 q-62 -23 -120 -44 q-58 -21 -112 -40 l-37 187 q56 16 124.5 37.5 q68.5 21.5 144.5 48.5 l0 397 l-238 0 l0 176 l238 0 l0 395 l174 0 l0 -395 l205 0 l0 -176 l-205 0 l0 -338 l172 63 l22 -125 q111 53 212 131.5 q101 78.5 173 167.5 l-366 0 l0 154 l239 0 q-16 45 -43.5 105.5 q-27.5 60.5 -52.5 111.5 l150 45 q30 -52 60.5 -113.5 q30.5 -61.5 47.5 -103.5 l-125 -45 l234 0 l0 285 q-115 -9 -230 -15.5 q-115 -6.5 -221 -9.5 q-3 31 -16 71.5 q-13 40.5 -27 67.5 q176 10 365 25 q189 15 360 36.5 q171 21.5 293 49.5 l102 -139 q-95 -22 -211.5 -39 q-116.5 -17 -242.5 -31 l0 -301 l98 0 q38 68 77 151.5 q39 83.5 62 149.5 l164 -47 q-31 -64 -66 -130.5 q-35 -66.5 -67 -123.5 l266 0 l0 -154 Z" /><glyph glyph-name="" unicode="&#x653f;" d="M1290 1165 l-12 -32 q32 -162 78 -310 q46 -148 110 -278 q63 130 104 284.5 q41 154.5 68 335.5 l-348 0 ZM1964 1165 l-135 0 q-39 -244 -99.5 -446 q-60.5 -202 -154.5 -365 q78 -115 179.5 -204.5 q101.5 -89.5 225.5 -147.5 q-32 -29 -70.5 -76 q-38.5 -47 -58.5 -86 q-119 63 -215.5 150 q-96.5 87 -175.5 194 q-169 -208 -440 -350 q-14 32 -48.5 85.5 q-34.5 53.5 -62.5 82.5 q283 131 445 356 q-62 114 -108.5 244 q-46.5 130 -82.5 272 q-50 -85 -106 -163 q-17 21 -50.5 50.5 q-33.5 29.5 -64.5 53.5 l-227 0 l0 -471 l321 68 l19 -172 q-168 -40 -338.5 -80 q-170.5 -40 -327.5 -76 q-157 -36 -285 -64 l-34 191 l114 22 l0 889 l172 0 l0 -856 l172 37 l0 1098 l-417 0 l0 184 l929 0 l0 -184 l-325 0 l0 -406 l256 0 l0 -63 q100 152 166 358 q66 206 106 430 l189 -32 q-17 -90 -38 -176 q-21 -86 -44 -169 l614 0 l0 -178 Z" /><glyph glyph-name="" unicode="&#x656c;" d="M963 18 q132 65 233 151 q101 86 176 196 q-110 217 -178 495 q-20 -34 -41.5 -65 q-21.5 -31 -44.5 -60 q-12 14 -31.5 33 q-19.5 19 -42.5 39 q-14 -329 -30.5 -514 q-16.5 -185 -40.5 -275 ZM1634 1163 l-301 0 l-16 -47 q28 -152 68.5 -291 q40.5 -139 97.5 -264 q55 126 91.5 276.5 q36.5 150.5 59.5 325.5 ZM565 676 l-196 0 l0 -291 l196 0 l0 291 ZM1956 1163 l-125 0 q-34 -242 -90.5 -442.5 q-56.5 -200.5 -147.5 -362.5 q77 -116 175.5 -206 q98.5 -90 220.5 -148 q-33 -28 -71.5 -76.5 q-38.5 -48.5 -59.5 -87.5 q-116 63 -210 150 q-94 87 -169 194 q-85 -107 -192.5 -195 q-107.5 -88 -244.5 -157 q-12 28 -39 72 q-27 44 -53 78 q-6 -16 -12 -27 q-6 -11 -12 -21 q-31 -41 -63.5 -57 q-32.5 -16 -78.5 -22 q-40 -7 -100.5 -7.5 q-60.5 -0.5 -128.5 2.5 q-2 39 -15.5 87.5 q-13.5 48.5 -33.5 85.5 q61 -7 113.5 -8 q52.5 -1 78.5 -1 q25 -1 41 5 q16 6 31 26 q22 27 38.5 123 q16.5 96 29.5 288.5 q13 192.5 24 508.5 l-477 0 q-17 -37 -34.5 -72.5 q-17.5 -35.5 -37.5 -69.5 l398 0 l0 -583 l-342 0 l0 -111 l-148 0 l0 557 l-20 -24 q-25 23 -71 59.5 q-46 36.5 -77 54.5 q82 89 144.5 217 q62.5 128 97.5 267 l57 -13 l0 117 l-250 0 l0 164 l250 0 l0 190 l168 0 l0 -190 l199 0 l0 190 l170 0 l0 -190 l227 0 l0 -164 l-227 0 l0 -160 l-170 0 l0 160 l-199 0 l0 -127 l-125 0 l82 -18 q-6 -23 -13.5 -47.5 q-7.5 -24.5 -14.5 -47.5 l595 0 l0 -84 l-2 -55 q86 144 142 332 q56 188 88 395 l194 -26 q-15 -90 -33.5 -176.5 q-18.5 -86.5 -41.5 -168.5 l565 0 l0 -178 Z" /><glyph glyph-name="" unicode="&#x65b0;" d="M1030 1509 l0 -157 l-901 0 l0 157 l375 0 q-17 43 -36 89.5 q-19 46.5 -38 84.5 l168 43 q26 -49 54 -108 q28 -59 46 -109 l332 0 ZM264 479 l154 -41 q-37 -104 -93 -206 q-56 -102 -116 -173 q-22 20 -60.5 48 q-38.5 28 -66.5 45 q58 63 106.5 149 q48.5 86 75.5 178 ZM1034 545 l-362 0 l0 -486 q0 -61 -13.5 -97 q-13.5 -36 -52.5 -54 q-41 -20 -97 -25.5 q-56 -5.5 -134 -5.5 q-5 34 -20 80 q-15 46 -31 80 q49 -2 90.5 -2 q41.5 0 58.5 0 q17 0 22 5.5 q5 5.5 5 20.5 l0 484 l-391 0 l0 162 l391 0 l0 186 l-404 0 l0 160 l226 0 q-8 53 -27.5 124.5 q-19.5 71.5 -46.5 131.5 l153 39 q30 -60 52.5 -135.5 q22.5 -75.5 29.5 -129.5 l-114 -30 l282 0 q28 64 56 148 q28 84 45 149 l176 -37 q-26 -68 -53 -135.5 q-27 -67.5 -52 -124.5 l240 0 l0 -160 l-391 0 l0 -186 l362 0 l0 -162 ZM733 422 l127 67 q51 -72 98.5 -158 q47.5 -86 71.5 -149 l-133 -80 q-25 65 -71.5 155.5 q-46.5 90.5 -92.5 164.5 ZM1960 1038 l0 -176 l-207 0 l0 -1016 l-186 0 l0 1016 l-262 0 l0 -43 q0 -110 -7.5 -236.5 q-7.5 -126.5 -29 -256 q-21.5 -129.5 -63 -249 q-41.5 -119.5 -109.5 -216.5 q-22 26 -69.5 61.5 q-47.5 35.5 -76.5 50.5 q81 120 118.5 266.5 q37.5 146.5 47.5 297 q10 150.5 10 282.5 l0 703 q114 19 231 45.5 q117 26.5 220 57.5 q103 31 176 63 l152 -140 q-128 -49 -286 -86.5 q-158 -37.5 -314 -64.5 l0 -359 l655 0 Z" /><glyph glyph-name="" unicode="&#x2f46;&#x65e0;" d="M1354 74 l309 0 q46 0 69.5 22.5 q23.5 22.5 33.5 90 q10 67.5 16 202.5 q32 -26 87 -48.5 q55 -22.5 95 -31.5 q-12 -167 -39.5 -258.5 q-27.5 -91.5 -85.5 -127.5 q-58 -36 -162 -36 l-348 0 q-115 0 -177.5 24.5 q-62.5 24.5 -87 83.5 q-24.5 59 -24.5 165 l0 649 l-18 0 q-42 -197 -133 -379 q-91 -182 -254.5 -334 q-163.5 -152 -423.5 -258 q-18 37 -55 83 q-37 46 -72 77 q232 88 381 214.5 q149 126.5 234 278.5 q85 152 126 318 l-712 0 l0 186 l749 0 q16 103 22 204.5 q6 101.5 9 201.5 l-655 0 l0 184 l1593 0 l0 -184 l-744 0 q-4 -100 -10 -201.5 q-6 -101.5 -20 -204.5 l889 0 l0 -186 l-707 0 l0 -647 q0 -57 21.5 -72.5 q21.5 -15.5 93.5 -15.5 Z" /><glyph glyph-name="" unicode="&#x65f6;" d="M647 1380 l-305 0 l0 -403 l305 0 l0 403 ZM342 385 l305 0 l0 424 l-305 0 l0 -424 ZM825 1552 l0 -1337 l-483 0 l0 -164 l-178 0 l0 1501 l661 0 ZM1968 1325 l0 -188 l-229 0 l0 -1028 q0 -96 -26 -143 q-26 -47 -85 -68 q-61 -23 -164.5 -30 q-103.5 -7 -255.5 -5 q-7 40 -26.5 96 q-19.5 56 -40.5 96 q112 -3 212 -3.5 q100 -0.5 134 -0.5 q31 2 44 13.5 q13 11.5 13 44.5 l0 1028 l-635 0 l0 188 l635 0 l0 379 l195 0 l0 -379 l229 0 ZM1427 520 l-167 -98 q-32 60 -83 144 q-51 84 -108.5 173 q-57.5 89 -110.5 166 l156 82 q53 -74 113 -159.5 q60 -85.5 113.5 -166.5 q53.5 -81 86.5 -141 Z" /><glyph glyph-name="" unicode="&#x667a;" d="M252 1237 l260 0 q2 17 2 32.5 q0 15.5 0 30.5 l0 105 l-143 0 q-26 -49 -56.5 -91 q-30.5 -42 -62.5 -77 ZM1022 854 l-133 -125 q-30 25 -79.5 62 q-49.5 37 -106 77 q-56.5 40 -105.5 74 q-54 -83 -148.5 -162.5 q-94.5 -79.5 -244.5 -146.5 q-19 27 -54 65.5 q-35 38.5 -67 61.5 q178 69 267 154 q89 85 124 171 l-371 0 l0 152 l140 0 q-28 18 -72.5 46 q-44.5 28 -73.5 40 q77 77 135 183.5 q58 106.5 91 219.5 l170 -34 q-11 -36 -23 -69 q-12 -33 -25 -67 l531 0 l0 -151 l-283 0 l0 -107 q0 -15 0 -30.5 q0 -15.5 -2 -30.5 l336 0 l0 -152 l-364 0 l-7 -18 q32 -15 84.5 -44.5 q52.5 -29.5 109 -63 q56.5 -33.5 103.5 -62 q47 -28.5 68 -43.5 ZM1479 532 l-901 0 l0 -159 l901 0 l0 159 ZM578 66 l901 0 l0 163 l-901 0 l0 -163 ZM389 -160 l0 844 l1284 0 l0 -842 l-194 0 l0 70 l-901 0 l0 -72 l-189 0 ZM1657 995 l0 396 l-373 0 l0 -396 l373 0 ZM1106 1559 l739 0 l0 -732 l-739 0 l0 732 Z" /><glyph glyph-name="" unicode="&#x66f4;&#xf901;" d="M500 645 l436 0 q3 25 3.5 49.5 q0.5 24.5 0.5 50.5 l0 74 l-440 0 l0 -174 ZM500 1141 l0 -174 l440 0 l0 174 l-440 0 ZM1593 1141 l-454 0 l0 -174 l454 0 l0 174 ZM1593 645 l0 174 l-454 0 l0 -76 q0 -26 -0.5 -49.5 q-0.5 -23.5 -3.5 -48.5 l458 0 ZM1782 489 l-670 0 q-18 -87 -58.5 -168 q-40.5 -81 -111.5 -153 q197 -77 456 -101.5 q259 -24.5 584 -27.5 q-26 -34 -49 -87.5 q-23 -53.5 -30 -101.5 q-344 13 -624 50 q-280 37 -495 143 q-99 -63 -240.5 -115 q-141.5 -52 -328.5 -92 q-17 32 -50.5 84 q-33.5 52 -66.5 84 q168 29 292 67 q124 38 216 83 q-69 52 -128 118 q-59 66 -109 146 l166 65 q93 -135 229 -225 q58 52 92.5 110 q34.5 58 52.5 121 l-590 0 l0 807 l621 0 l0 148 l-801 0 l0 172 l1772 0 l0 -172 l-772 0 l0 -148 l643 0 l0 -807 Z" /><glyph glyph-name="" unicode="&#x6709;" d="M1499 735 l0 178 l-801 0 l0 -178 l801 0 ZM698 397 l801 0 l0 178 l-801 0 l0 -178 ZM1921 1284 l-1094 0 q-24 -52 -51 -104 q-27 -52 -55 -101 l965 0 l0 -1020 q0 -76 -19.5 -121.5 q-19.5 -45.5 -75.5 -66.5 q-53 -23 -141 -27 q-88 -4 -215 -4 q-5 39 -23 92.5 q-18 53.5 -36 92.5 q90 -5 171 -5.5 q81 -0.5 107 0.5 q26 0 35.5 9 q9.5 9 9.5 32 l0 177 l-801 0 l0 -400 l-188 0 l0 938 q-68 -80 -144.5 -151.5 q-76.5 -71.5 -162.5 -130.5 q-22 30 -59 75.5 q-37 45.5 -66 71.5 q173 117 307.5 285.5 q134.5 168.5 230.5 357.5 l-483 0 l0 178 l561 0 q52 127 86 256 l195 -45 q-17 -52 -34.5 -105.5 q-17.5 -53.5 -37.5 -105.5 l1018 0 l0 -178 Z" /><glyph glyph-name="" unicode="&#x670d;" d="M383 698 l266 0 l0 301 l-262 0 l0 -86 q0 -49 -0.5 -103.5 q-0.5 -54.5 -3.5 -111.5 ZM649 1468 l-262 0 l0 -290 l262 0 l0 290 ZM825 1645 l0 -1592 q0 -69 -15 -113 q-15 -44 -58 -67 q-43 -25 -109.5 -30.5 q-66.5 -5.5 -169.5 -4.5 q-3 36 -18.5 91.5 q-15.5 55.5 -32.5 90.5 q63 -3 117.5 -2.5 q54.5 0.5 74.5 0.5 q19 2 27 10 q8 8 8 29 l0 461 l-276 0 q-14 -181 -47 -362 q-33 -181 -101 -322 q-24 22 -73 49 q-49 27 -82 41 q67 142 98 315 q31 173 39 349 q8 176 8 325 l0 732 l610 0 ZM1157 770 l0 -782 q80 41 153 102.5 q73 61.5 138 136.5 q-81 119 -144.5 256 q-63.5 137 -109.5 287 l-37 0 ZM1722 770 l-366 0 q71 -216 194 -395 q54 87 98 185.5 q44 98.5 74 209.5 ZM1817 950 l110 -39 q-37 -205 -104.5 -375 q-67.5 -170 -159.5 -307 q71 -76 152 -139 q81 -63 174 -106 q-33 -26 -67.5 -69.5 q-34.5 -43.5 -55.5 -78.5 q-88 48 -166 111.5 q-78 63.5 -146 140.5 q-129 -148 -286 -242 q-19 33 -50.5 73 q-31.5 40 -60.5 65 l0 -146 l-180 0 l0 1802 l891 0 l0 -393 q0 -66 -18.5 -104.5 q-18.5 -38.5 -71.5 -57.5 q-54 -20 -136 -23 q-82 -3 -196 -3 q-6 37 -24.5 82.5 q-18.5 45.5 -35.5 79.5 q85 -3 160 -3.5 q75 -0.5 96 1.5 q25 0 34.5 6 q9.5 6 9.5 24 l0 213 l-529 0 l0 -518 l629 0 l31 6 Z" /><glyph glyph-name="" unicode="&#x671f;" d="M446 672 l0 -176 l320 0 l0 176 l-320 0 ZM766 1294 l-320 0 l0 -153 l320 0 l0 153 ZM446 991 l0 -170 l320 0 l0 170 l-320 0 ZM1081 496 l0 -166 l-997 0 l0 166 l190 0 l0 798 l-165 0 l0 166 l165 0 l0 236 l172 0 l0 -236 l320 0 l0 236 l176 0 l0 -236 l148 0 l0 -166 l-148 0 l0 -798 l139 0 ZM352 297 l180 -49 q-55 -115 -137.5 -226 q-82.5 -111 -165.5 -186 q-24 25 -70.5 59 q-46.5 34 -80.5 54 q83 66 156.5 158.5 q73.5 92.5 117.5 189.5 ZM647 223 l146 80 q59 -69 124 -153 q65 -84 97 -146 l-154 -92 q-20 41 -55.5 95.5 q-35.5 54.5 -77 111 q-41.5 56.5 -80.5 104.5 ZM1350 692 l364 0 l0 299 l-360 0 l0 -108 q0 -45 -0.5 -93.5 q-0.5 -48.5 -3.5 -97.5 ZM1714 1448 l-360 0 l0 -289 l360 0 l0 289 ZM1898 1620 l0 -1557 q0 -75 -19 -118.5 q-19 -43.5 -67 -65.5 q-46 -24 -121.5 -30 q-75.5 -6 -189.5 -5 q-4 37 -20.5 91 q-16.5 54 -34.5 90 q72 -3 138.5 -2.5 q66.5 0.5 86.5 0.5 q23 1 33 9.5 q10 8.5 10 33.5 l0 454 l-377 0 q-17 -183 -59 -366.5 q-42 -183.5 -129 -323.5 q-23 26 -72 60.5 q-49 34.5 -80 50.5 q81 133 118.5 296.5 q37.5 163.5 48 331 q10.5 167.5 10.5 314.5 l0 737 l724 0 Z" /><glyph glyph-name="" unicode="&#x673a;" d="M915 614 l-112 -155 q-28 52 -81.5 129.5 q-53.5 77.5 -107.5 150.5 l0 -899 l-182 0 l0 912 q-57 -162 -127.5 -306 q-70.5 -144 -146.5 -241 q-16 40 -45 91 q-29 51 -52 83 q71 85 137.5 205.5 q66.5 120.5 121 257 q54.5 136.5 88.5 268.5 l-297 0 l0 180 l321 0 l0 428 l182 0 l0 -428 l285 0 l0 -180 l-285 0 l0 -156 q28 -27 72 -75.5 q44 -48.5 91 -102.5 q47 -54 85 -98 q38 -44 53 -64 ZM1753 35 l47 0 q23 0 37 14 q6 9 10.5 25 q4.5 16 5.5 51 q4 34 6.5 107 q2.5 73 2.5 171 q27 -26 66 -46.5 q39 -20.5 73 -32.5 q0 -57 -2.5 -119 q-2.5 -62 -6.5 -114.5 q-4 -52.5 -10 -80.5 q-14 -86 -59 -119 q-25 -16 -54 -23 q-29 -7 -63 -7 l-106 0 q-32 0 -68 10 q-36 10 -59 35 q-19 17 -29.5 41.5 q-10.5 24.5 -15 72.5 q-4.5 48 -4.5 136 l0 1265 l-328 0 l0 -471 q0 -127 -12 -274 q-12 -147 -46.5 -297 q-34.5 -150 -101 -288.5 q-66.5 -138.5 -176.5 -250.5 q-23 26 -69 65.5 q-46 39.5 -78 57.5 q102 104 161.5 227 q59.5 123 88.5 254.5 q29 131.5 38 260.5 q9 129 9 245 l0 652 l700 0 l0 -1450 q0 -90 12 -105 q13 -12 31 -12 Z" /><glyph glyph-name="" unicode="&#x6740;" d="M1788 1022 l-133 -156 q-109 71 -268 156.5 q-159 85.5 -338 173.5 q-195 -100 -396.5 -183.5 q-201.5 -83.5 -390.5 -148.5 q-24 31 -65.5 80.5 q-41.5 49.5 -75.5 77.5 q180 52 363 121.5 q183 69.5 358 150.5 q-145 68 -288 129.5 q-143 61.5 -273 112.5 l118 127 q146 -55 312 -124 q166 -69 331 -144 q142 76 267.5 159 q125.5 83 228.5 170 l162 -108 q-98 -83 -214 -161 q-116 -78 -241 -150 q158 -76 299 -148 q141 -72 244 -135 ZM528 483 l179 -67 q-64 -89 -145 -180 q-81 -91 -168 -172 q-87 -81 -167 -142 q-21 26 -64.5 71.5 q-43.5 45.5 -74.5 69.5 q120 79 239.5 191.5 q119.5 112.5 200.5 228.5 ZM1921 569 l-791 0 l0 -518 q0 -77 -19.5 -119 q-19.5 -42 -72.5 -63 q-52 -22 -129.5 -27.5 q-77.5 -5.5 -183.5 -5.5 q-8 40 -27.5 94 q-19.5 54 -38.5 93 q74 -5 141 -5.5 q67 -0.5 89 0.5 q24 0 32.5 7.5 q8.5 7.5 8.5 27.5 l0 516 l-803 0 l0 172 l803 0 l0 232 l200 0 l0 -232 l791 0 l0 -172 ZM1321 387 l156 90 q81 -63 168 -139.5 q87 -76.5 163.5 -153 q76.5 -76.5 124.5 -141.5 l-166 -100 q-43 62 -116.5 140.5 q-73.5 78.5 -160.5 158.5 q-87 80 -169 145 Z" /><glyph glyph-name="" unicode="&#x67e5;" d="M152 -100 l0 170 l1753 0 l0 -170 l-1753 0 ZM1397 578 l0 137 l-762 0 l0 -137 l762 0 ZM1397 311 l0 140 l-762 0 l0 -140 l762 0 ZM446 846 l1147 0 l0 -668 l-1147 0 l0 668 ZM1927 1307 l-624 0 q127 -129 305.5 -233 q178.5 -104 361.5 -163 q-29 -26 -67 -72 q-38 -46 -58 -81 q-135 50 -268 129 q-133 79 -252.5 178.5 q-119.5 99.5 -212.5 212.5 l0 -371 l-188 0 l0 371 q-90 -116 -208 -218 q-118 -102 -251 -183 q-133 -81 -268 -136 q-20 34 -56 79.5 q-36 45.5 -65 74.5 q119 39 237.5 102 q118.5 63 225.5 142.5 q107 79.5 190 167.5 l-606 0 l0 166 l801 0 l0 245 l188 0 l0 -245 l815 0 l0 -166 Z" /><glyph glyph-name="" unicode="&#x6b3e;" d="M987 950 l0 -39 q89 152 142.5 364 q53.5 212 80.5 439 l187 -24 q-13 -88 -28 -173.5 q-15 -85.5 -34 -166.5 l432 0 l0 2 l29 0 l29 6 l129 -37 q-19 -95 -43.5 -195.5 q-24.5 -100.5 -52 -192 q-27.5 -91.5 -54.5 -161.5 l-155 45 q24 69 48.5 165.5 q24.5 96.5 43.5 195.5 l-449 0 q-35 -120 -77.5 -224 q-42.5 -104 -94.5 -188 q-20 20 -60.5 48.5 q-40.5 28.5 -72.5 49.5 l0 -69 l-813 0 l0 155 l813 0 ZM489 1235 l0 145 l-380 0 l0 156 l380 0 l0 170 l179 0 l0 -170 l381 0 l0 -156 l-381 0 l0 -145 l340 0 l0 -156 l-852 0 l0 156 l333 0 ZM236 451 l157 -39 q-37 -114 -85.5 -232 q-48.5 -118 -94.5 -203 q-26 17 -71.5 38 q-45.5 21 -78.5 32 q51 80 96.5 189.5 q45.5 109.5 76.5 214.5 ZM1069 506 l-399 0 l0 -479 q0 -62 -14 -99 q-14 -37 -56 -57 q-43 -22 -103 -26.5 q-60 -4.5 -145 -4.5 q-6 37 -21 84 q-15 47 -32 82 q55 -1 101 -1.5 q46 -0.5 63 -0.5 q29 0 29 27 l0 475 l-410 0 l0 158 l987 0 l0 -158 ZM762 395 l143 58 q42 -76 84 -166 q42 -90 64 -150 l-154 -69 q-18 64 -57.5 156.5 q-39.5 92.5 -79.5 170.5 ZM1546 1034 l0 -100 q0 -87 -6 -195 q34 -164 93.5 -308.5 q59.5 -144.5 147.5 -255 q88 -110.5 206 -173.5 q-33 -29 -70.5 -76 q-37.5 -47 -58.5 -84 q-134 83 -228 222 q-94 139 -155 317 q-45 -141 -126.5 -281.5 q-81.5 -140.5 -220.5 -265.5 q-24 32 -67 70.5 q-43 38.5 -78 58.5 q132 116 209 245 q77 129 114.5 259 q37.5 130 48.5 251 q11 121 11 222 l0 94 l180 0 Z" /><glyph glyph-name="" unicode="&#x6ce8;" d="M690 1485 l-110 -158 q-41 33 -106 74 q-65 41 -138 81.5 q-73 40.5 -137 71.5 l106 138 q63 -28 136 -64.5 q73 -36.5 139.5 -74 q66.5 -37.5 109.5 -68.5 ZM571 930 l-104 -158 q-41 32 -105.5 71.5 q-64.5 39.5 -136 79 q-71.5 39.5 -135.5 70.5 l103 140 q61 -27 132.5 -62.5 q71.5 -35.5 137 -72.5 q65.5 -37 108.5 -68 ZM532 633 l140 -125 q-82 -160 -178 -332.5 q-96 -172.5 -187 -316.5 l-160 129 q55 75 122 182.5 q67 107.5 135.5 227.5 q68.5 120 127.5 235 ZM1413 82 l553 0 l0 -182 l-1329 0 l0 182 l577 0 l0 475 l-436 0 l0 182 l436 0 l0 414 l-514 0 l0 180 l578 0 q-20 66 -65 160 q-45 94 -93 172 l174 61 q49 -76 98 -167.5 q49 -91.5 72 -157.5 l-180 -68 l631 0 l0 -180 l-502 0 l0 -414 l430 0 l0 -182 l-430 0 l0 -475 Z" /><glyph glyph-name="" unicode="&#x6d3b;" d="M676 1483 l-113 -154 q-42 30 -107 69.5 q-65 39.5 -136 81 q-71 41.5 -132 74.5 l107 136 q59 -29 131 -66.5 q72 -37.5 139 -75 q67 -37.5 111 -65.5 ZM571 934 l-104 -158 q-42 29 -107 68 q-65 39 -136.5 79.5 q-71.5 40.5 -133.5 71.5 l105 142 q58 -29 129.5 -66 q71.5 -37 137.5 -73 q66 -36 109 -64 ZM291 -135 l-160 127 q54 77 121 184 q67 107 136 227 q69 120 128 236 l137 -127 q-78 -158 -175 -331 q-97 -173 -187 -316 ZM1657 98 l0 369 l-678 0 l0 -369 l678 0 ZM1958 942 l-543 0 l0 -303 l422 0 l0 -789 l-180 0 l0 76 l-678 0 l0 -86 l-174 0 l0 799 l430 0 l0 303 l-569 0 l0 182 l569 0 l0 291 q-108 -17 -216.5 -29 q-108.5 -12 -209.5 -20 q-6 34 -22 81 q-16 47 -33 79 q175 18 356.5 45.5 q181.5 27.5 342.5 63 q161 35.5 273 77.5 l150 -147 q-98 -37 -215.5 -66.5 q-117.5 -29.5 -245.5 -52.5 l0 -322 l543 0 l0 -182 Z" /><glyph glyph-name="" unicode="&#x70b9;" d="M1522 612 l0 322 l-1004 0 l0 -322 l1004 0 ZM1716 1110 l0 -674 l-1380 0 l0 674 l577 0 l0 608 l195 0 l0 -200 l752 0 l0 -177 l-752 0 l0 -231 l608 0 ZM260 -156 l-176 84 q78 68 149.5 180 q71.5 112 118.5 224 l180 -47 q-46 -120 -117.5 -240.5 q-71.5 -120.5 -154.5 -200.5 ZM682 268 l182 17 q22 -99 37 -213 q15 -114 17 -191 l-193 -24 q0 78 -12.5 194 q-12.5 116 -30.5 217 ZM1100 266 l172 39 q32 -61 62.5 -133 q30.5 -72 55 -141 q24.5 -69 37.5 -121 l-186 -47 q-10 52 -32 121.5 q-22 69.5 -51 143.5 q-29 74 -58 138 ZM1513 283 l170 63 q51 -64 103 -139.5 q52 -75.5 96 -148 q44 -72.5 70 -130.5 l-183 -73 q-22 57 -63.5 131.5 q-41.5 74.5 -92 152 q-50.5 77.5 -100.5 144.5 Z" /><glyph glyph-name="" unicode="&#x724c;" d="M371 1008 l0 -105 q0 -38 -0.5 -79.5 q-0.5 -41.5 -1.5 -84.5 l391 0 l0 -901 l-172 0 l0 737 l-226 0 q-10 -190 -39.5 -385 q-29.5 -195 -89.5 -356 q-29 17 -77.5 33.5 q-48.5 16.5 -83.5 26.5 q43 109 69 239 q26 130 39.5 266 q13.5 136 18 265.5 q4.5 129.5 4.5 238.5 l0 768 l168 0 l0 -500 l166 0 l0 545 l165 0 l0 -545 l154 0 l0 -163 l-485 0 ZM1069 879 l211 0 q17 47 24.5 93 q7.5 46 10.5 91 l-246 0 l0 -184 ZM1069 1378 l0 -178 l246 0 l0 178 l-246 0 ZM1724 1200 l0 178 l-247 0 l0 -178 l247 0 ZM1724 879 l0 184 l-247 0 q-4 -93 -25 -184 l272 0 ZM1956 414 l0 -160 l-295 0 l0 -414 l-182 0 l0 414 l-660 0 l0 160 l185 0 q-22 23 -57.5 54.5 q-35.5 31.5 -61.5 49.5 q113 45 189 100 q76 55 124 115 l-301 0 l0 793 l322 0 q46 106 69 198 l213 -41 q-21 -39 -45 -79.5 q-24 -40.5 -47 -77.5 l492 0 l0 -793 l-506 0 q-49 -90 -139.5 -172.5 q-90.5 -82.5 -237.5 -146.5 l461 0 l0 272 l182 0 l0 -272 l295 0 Z" /><glyph glyph-name="" unicode="&#x2f5b;&#x7259;" d="M1917 920 l0 -183 l-440 0 l0 -663 q0 -86 -23.5 -132 q-23.5 -46 -77.5 -69 q-55 -23 -143.5 -30 q-88.5 -7 -220.5 -7 q-6 40 -27 97.5 q-21 57.5 -43 97.5 q95 -5 177.5 -4.5 q82.5 0.5 113.5 0.5 q49 0 49 47 l0 635 q-133 -162 -307.5 -307.5 q-174.5 -145.5 -368 -262.5 q-193.5 -117 -385.5 -194 q-23 37 -62 87 q-39 50 -73 81 q176 60 356 157 q180 97 341.5 217 q161.5 120 283.5 250 l-801 0 q29 81 59 189 q30 108 57.5 222.5 q27.5 114.5 47.5 213.5 l191 -21 q-23 -99 -51 -209.5 q-28 -110.5 -56 -211.5 l768 0 l0 518 l-1030 0 l0 184 l1571 0 l0 -184 l-346 0 l0 -518 l440 0 Z" /><glyph glyph-name="" unicode="&#x7269;" d="M840 817 l24 -168 q-60 -20 -119.5 -38.5 q-59.5 -18.5 -119.5 -37.5 l0 -733 l-176 0 l0 678 l-322 -98 l-49 182 q77 20 171.5 45.5 q94.5 25.5 199.5 54.5 l0 431 l-164 0 q-39 -169 -84 -285 q-23 18 -66.5 44.5 q-43.5 26.5 -73.5 41.5 q54 124 84 304.5 q30 180.5 45 363.5 l162 -27 q-7 -66 -15 -132 q-8 -66 -18 -130 l130 0 l0 405 l176 0 l0 -405 l190 0 l0 -180 l-190 0 l0 -377 l215 61 ZM1167 1389 l783 0 q0 0 -0.5 -36 q-0.5 -36 -1.5 -55 q-17 -344 -33.5 -584 q-16.5 -240 -35.5 -394.5 q-19 -154.5 -42 -240.5 q-23 -86 -53 -124 q-32 -46 -66.5 -64 q-34.5 -18 -83.5 -26 q-41 -8 -102.5 -7.5 q-61.5 0.5 -128.5 3.5 q-2 41 -16 93.5 q-14 52.5 -37 92.5 q64 -6 117.5 -7 q53.5 -1 82.5 -1 q25 0 42 7.5 q17 7.5 32 29.5 q22 25 41.5 97 q19.5 72 36.5 204.5 q17 132.5 32.5 338 q15.5 205.5 28.5 496.5 l-57 0 q-39 -198 -99.5 -393 q-60.5 -195 -142.5 -371.5 q-82 -176.5 -185.5 -322.5 q-103.5 -146 -227.5 -246 q-28 26 -73 58.5 q-45 32.5 -85 54.5 q165 118 291.5 310 q126.5 192 215.5 427.5 q89 235.5 140 482.5 l-137 0 q-45 -172 -117.5 -345 q-72.5 -173 -166 -321.5 q-93.5 -148.5 -201.5 -244.5 q-27 26 -68.5 57.5 q-41.5 31.5 -79.5 51.5 q106 82 195.5 210 q89.5 128 160 281.5 q70.5 153.5 117.5 310.5 l-145 0 q-48 -110 -103 -205.5 q-55 -95.5 -118 -170.5 q-23 20 -70 55 q-47 35 -78 53 q125 135 212.5 341 q87.5 206 137.5 433 l172 -32 q-17 -77 -39 -152 q-22 -75 -45 -145 Z" /><glyph glyph-name="" unicode="&#x767b;" d="M1305 324 l184 -45 q-29 -60 -60.5 -120 q-31.5 -60 -60.5 -112 l551 0 l0 -164 l-1788 0 l0 164 l533 0 q-13 51 -41.5 112 q-28.5 61 -57.5 111 l170 56 q37 -54 70 -121.5 q33 -67.5 47 -118.5 l-111 -39 l437 0 q33 60 69 138.5 q36 78.5 58 138.5 ZM1401 481 l0 221 l-787 0 l0 -221 l787 0 ZM1604 856 l0 -528 l-1180 0 l0 528 l1180 0 ZM1780 1462 l141 -100 q-66 -60 -144.5 -121.5 q-78.5 -61.5 -150.5 -112.5 q83 -69 175 -124.5 q92 -55.5 192 -94.5 q-33 -27 -70.5 -75 q-37.5 -48 -60.5 -86 q-132 59 -251.5 147 q-119.5 88 -221.5 197 l0 -91 l-719 0 l0 91 q-111 -116 -238.5 -206 q-127.5 -90 -259.5 -153 q-17 31 -52 73 q-35 42 -63 68 q99 42 197.5 106 q98.5 64 187.5 142 q-47 48 -113.5 100.5 q-66.5 52.5 -129.5 92.5 l104 104 q66 -37 135 -87.5 q69 -50.5 117 -98.5 q110 123 182 252 l-526 0 l0 155 l616 0 l33 9 l127 -62 q-44 -118 -108.5 -224 q-64.5 -106 -143.5 -200 l590 0 q-189 223 -305 496 l166 51 q26 -60 57 -118 q31 -58 70 -113 q63 50 129 110 q66 60 110 109 l144 -101 q-69 -61 -148 -123.5 q-79 -62.5 -151 -113.5 q29 -34 57.5 -67.5 q28.5 -33.5 61.5 -65.5 q70 55 142.5 118.5 q72.5 63.5 121.5 116.5 Z" /><glyph glyph-name="" unicode="&#x7684;" d="M350 217 l381 0 l0 453 l-381 0 l0 -453 ZM731 1225 l-381 0 l0 -389 l381 0 l0 389 ZM1311 1401 l594 0 q0 0 -0.5 -36 q-0.5 -36 -1.5 -54 q-11 -347 -22 -586.5 q-11 -239.5 -26 -393.5 q-15 -154 -36 -239.5 q-21 -85.5 -52 -124.5 q-38 -50 -78.5 -69 q-40.5 -19 -99.5 -27 q-54 -6 -137.5 -5.5 q-83.5 0.5 -171.5 5.5 q-3 38 -19 91 q-16 53 -42 93 q98 -7 180 -9.5 q82 -2.5 121 -2.5 q30 0 49.5 6.5 q19.5 6.5 36.5 28.5 q32 34 53.5 157.5 q21.5 123.5 36.5 364.5 q15 241 28 627 l-483 0 q-43 -99 -90 -186.5 q-47 -87.5 -96 -157.5 q-23 21 -68.5 53.5 q-45.5 32.5 -81.5 52.5 l0 -940 l-555 0 l0 -155 l-174 0 l0 1497 l230 0 q21 73 41.5 165.5 q20.5 92.5 29.5 165.5 l207 -34 q-55 -162 -106 -297 l327 0 l0 -387 q102 132 180.5 324 q78.5 192 124.5 394 l185 -43 q-19 -70 -39.5 -140.5 q-20.5 -70.5 -44.5 -137.5 ZM1573 477 l-160 -100 q-29 62 -78.5 144.5 q-49.5 82.5 -108 168.5 q-58.5 86 -112.5 160 l150 84 q54 -71 114 -154 q60 -83 112 -162.5 q52 -79.5 83 -140.5 Z" /><glyph glyph-name="" unicode="&#x76f4;" d="M565 231 l0 -151 l922 0 l0 151 l-922 0 ZM1487 1090 l-922 0 l0 -144 l922 0 l0 144 ZM1487 666 l0 137 l-922 0 l0 -137 l922 0 ZM565 522 l0 -147 l922 0 l0 147 l-922 0 ZM1679 80 l271 0 l0 -174 l-1848 0 l0 174 l279 0 l0 1167 l477 0 q6 32 12 67.5 q6 35.5 11 71.5 l-723 0 l0 168 l743 0 q6 43 9.5 86 q3.5 43 7.5 80 l210 -18 l-26 -148 l790 0 l0 -168 l-821 0 q-6 -36 -13.5 -70.5 q-7.5 -34.5 -15.5 -68.5 l637 0 l0 -1167 Z" /><glyph glyph-name="" unicode="&#x770b;" d="M1534 555 l0 117 l-819 0 l0 -117 l819 0 ZM715 59 l819 0 l0 125 l-819 0 l0 -125 ZM715 428 l0 -117 l819 0 l0 117 l-819 0 ZM1921 938 l-1116 0 q-17 -31 -33 -60.5 q-16 -29.5 -35 -58.5 l987 0 l0 -987 l-190 0 l0 78 l-819 0 l0 -78 l-183 0 l0 719 q-73 -78 -159 -148 q-86 -70 -185 -127 q-18 34 -53.5 79 q-35.5 45 -62.5 71 q166 94 294 225.5 q128 131.5 222 286.5 l-461 0 l0 152 l543 0 q15 29 29 60.5 q14 31.5 28 61.5 l-455 0 l0 150 l506 0 q11 29 19 58 q8 29 16 59 q-135 -5 -269 -8 q-134 -3 -261 -3 q-2 33 -12.5 75 q-10.5 42 -24.5 71 q186 1 385 6.5 q199 5.5 392 17 q193 11.5 361.5 28.5 q168.5 17 292.5 40 l115 -137 q-158 -28 -356 -48 q-198 -20 -412 -32 q-9 -32 -19.5 -63.5 q-10.5 -31.5 -21.5 -63.5 l823 0 l0 -150 l-874 0 q-12 -30 -26 -61.5 q-14 -31.5 -27 -60.5 l1042 0 l0 -152 Z" /><glyph glyph-name="" unicode="&#x771f;" d="M588 502 l0 -123 l872 0 l0 123 l-872 0 ZM1460 1161 l-872 0 l0 -112 l872 0 l0 112 ZM1460 719 l-872 0 l0 -103 l872 0 l0 103 ZM1460 834 l0 98 l-872 0 l0 -98 l872 0 ZM1927 379 l0 -158 l-1802 0 l0 158 l281 0 l0 909 l487 0 q5 26 9.5 54 q4.5 28 10.5 57 l-735 0 l0 162 l758 0 q6 41 9.5 82.5 q3.5 41.5 6.5 76.5 l201 -18 l-25 -141 l748 0 l0 -162 l-776 0 q-6 -31 -12 -58 q-6 -27 -9 -53 l572 0 l0 -909 l276 0 ZM700 201 l162 -109 q-79 -50 -183.5 -98 q-104.5 -48 -216.5 -88.5 q-112 -40.5 -212 -67.5 q-23 26 -61.5 65.5 q-38.5 39.5 -69.5 65.5 q102 26 212.5 64.5 q110.5 38.5 208 82.5 q97.5 44 160.5 85 ZM1192 86 l119 125 q113 -34 230 -75.5 q117 -41.5 221 -84.5 q104 -43 177 -80 l-153 -129 q-105 57 -265 123.5 q-160 66.5 -329 120.5 Z" /><glyph glyph-name="" unicode="&#x793e;" d="M885 610 l-119 -157 q-29 43 -81.5 106 q-52.5 63 -104.5 123 l0 -842 l-185 0 l0 795 q-63 -62 -129 -115 q-66 -53 -131 -94 q-7 26 -21.5 63 q-14.5 37 -30 72 q-15.5 35 -28.5 53 q108 63 212.5 154.5 q104.5 91.5 195 202 q90.5 110.5 155.5 229.5 l-505 0 l0 172 l387 0 q-28 57 -80 133.5 q-52 76.5 -105 134.5 l148 84 q57 -59 111.5 -132.5 q54.5 -73.5 80.5 -129.5 l-147 -90 l211 0 l33 8 l102 -71 q-45 -114 -107.5 -222.5 q-62.5 -108.5 -136.5 -207.5 q41 -37 98 -92 q57 -55 106.5 -105 q49.5 -50 70.5 -72 ZM1503 98 l459 0 l0 -186 l-1169 0 l0 186 l516 0 l0 813 l-424 0 l0 183 l424 0 l0 622 l194 0 l0 -622 l414 0 l0 -183 l-414 0 l0 -813 Z" /><glyph glyph-name="" unicode="&#x79d2;" d="M1958 854 l-176 -61 q-17 75 -49.5 172.5 q-32.5 97.5 -74.5 198.5 q-42 101 -87 188 l164 53 q48 -86 92 -184.5 q44 -98.5 78 -194 q34 -95.5 53 -172.5 ZM1464 1716 l0 -1253 l-180 0 l0 1253 l180 0 ZM995 1372 l174 -33 q-24 -176 -66.5 -350.5 q-42.5 -174.5 -94.5 -294.5 q-28 19 -78 41.5 q-50 22.5 -84 36.5 q54 112 91 274.5 q37 162.5 58 325.5 ZM862 618 l-110 -149 q-22 45 -65.5 116.5 q-43.5 71.5 -86.5 139.5 l0 -885 l-184 0 l0 828 q-57 -139 -123 -264 q-66 -125 -135 -211 q-16 38 -43.5 89 q-27.5 51 -51.5 87 q61 69 121.5 168 q60.5 99 114 211 q53.5 112 92.5 221 l-301 0 l0 178 l326 0 l0 272 q-66 -12 -130.5 -20.5 q-64.5 -8.5 -125.5 -18.5 q-5 31 -21.5 75 q-16.5 44 -32.5 73 q115 18 235 43.5 q120 25.5 228 56.5 q108 31 187 66 l110 -156 q-58 -23 -126 -42 q-68 -19 -140 -36 l0 -313 l270 0 l0 -178 l-270 0 l0 -37 q21 -22 59 -65.5 q38 -43.5 80 -93.5 q42 -50 76 -92.5 q34 -42.5 47 -62.5 ZM1700 723 l178 -51 q-123 -344 -379.5 -538 q-256.5 -194 -658.5 -290 q-16 42 -45 91 q-29 49 -58 81 q374 73 612.5 238.5 q238.5 165.5 350.5 468.5 Z" /><glyph glyph-name="" unicode="&#x2f74;&#x7acb;" d="M1157 1409 l-199 -57 q-12 67 -41 161 q-29 94 -57 173 l189 47 q29 -77 60 -168 q31 -91 48 -156 ZM1853 1343 l0 -192 l-1652 0 l0 192 l1652 0 ZM856 236 l-203 -52 q-14 113 -43.5 257.5 q-29.5 144.5 -66.5 295 q-37 150.5 -74 281.5 l193 47 q39 -133 77.5 -282 q38.5 -149 69 -291.5 q30.5 -142.5 47.5 -255.5 ZM1309 113 l628 0 l0 -193 l-1824 0 l0 193 l991 0 q40 95 80.5 213 q40.5 118 78.5 246 q38 128 70.5 253.5 q32.5 125.5 55.5 235.5 l215 -41 q-40 -150 -89.5 -312 q-49.5 -162 -102.5 -316 q-53 -154 -103 -279 Z" /><glyph glyph-name="" unicode="&#x7aef;" d="M1886 1618 l0 -498 l-1036 0 l0 498 l174 0 l0 -332 l240 0 l0 428 l182 0 l0 -428 l258 0 l0 332 l182 0 ZM299 1649 l162 49 q38 -68 77.5 -149.5 q39.5 -81.5 57.5 -141.5 l-168 -59 q-18 63 -54.5 147.5 q-36.5 84.5 -74.5 153.5 ZM786 1348 l0 -177 l-682 0 l0 177 l682 0 ZM389 379 l-149 -27 q-2 97 -13.5 219 q-11.5 122 -28 248.5 q-16.5 126.5 -34.5 237.5 l143 26 q21 -112 38.5 -238.5 q17.5 -126.5 29 -247.5 q11.5 -121 14.5 -218 ZM608 338 l168 39 l21 -176 q-175 -45 -350 -89 q-175 -44 -318 -79 l-41 188 q75 16 173 37 q98 21 204 45 q21 109 41.5 249 q20.5 140 37 283.5 q16.5 143.5 25.5 262.5 l164 -29 q-16 -116 -36.5 -246 q-20.5 -130 -43 -256 q-22.5 -126 -45.5 -229 ZM1952 821 l-496 0 q-14 -41 -28 -81 q-14 -40 -29 -78 l512 0 l0 -658 q0 -55 -11 -88 q-11 -33 -45 -53 q-35 -19 -82.5 -24 q-47.5 -5 -113.5 -5 q-5 34 -19.5 77.5 q-14.5 43.5 -29.5 74.5 q38 -2 69 -2 q31 0 43 0 q23 0 23 24 l0 492 l-154 0 l0 -639 l-149 0 l0 639 l-154 0 l0 -643 l-147 0 l0 643 l-148 0 l0 -662 l-172 0 l0 824 l389 0 q8 38 16 78 q8 40 13 81 l-473 0 l0 170 l1186 0 l0 -170 Z" /><glyph glyph-name="" unicode="&#x7cfb;" d="M553 455 l192 -68 q-90 -121 -214 -237.5 q-124 -116.5 -238 -196.5 q-28 28 -78.5 66.5 q-50.5 38.5 -87.5 60.5 q118 69 233.5 169.5 q115.5 100.5 192.5 205.5 ZM1604 614 l-467 -34 l0 -514 q0 -74 -21 -116.5 q-21 -42.5 -78 -64.5 q-55 -21 -137 -25.5 q-82 -4.5 -194 -4.5 q-8 40 -28.5 94 q-20.5 54 -43.5 92 q86 -5 163 -5.5 q77 -0.5 103 1.5 q25 1 33 7.5 q8 6.5 8 25.5 l0 495 q-194 -15 -314.5 -25.5 q-120.5 -10.5 -188 -19 q-67.5 -8.5 -102 -15.5 q-34.5 -7 -56.5 -16 q-7 25 -24.5 79.5 q-17.5 54.5 -33.5 93.5 q52 7 120.5 34.5 q68.5 27.5 162.5 75.5 q51 23 144.5 74 q93.5 51 211.5 123 q-140 -10 -227 -16.5 q-87 -6.5 -137 -12.5 q-50 -6 -75.5 -11 q-25.5 -5 -41.5 -11 q-5 27 -22 80.5 q-17 53.5 -31 86.5 q32 5 68.5 26.5 q36.5 21.5 82.5 51.5 q36 25 122.5 94.5 q86.5 69.5 178.5 161.5 q-265 -21 -518 -30 q-3 35 -17.5 84 q-14.5 49 -29.5 81 q185 9 380 23 q195 14 383 33.5 q188 19.5 353.5 44.5 q165.5 25 290.5 55 l137 -156 q-150 -35 -334 -63.5 q-184 -28.5 -381 -48.5 q-92 -92 -191 -177 q-99 -85 -202 -159 l459 24 q78 54 156.5 112 q78.5 58 150.5 118 l142 -123 q-205 -158 -421 -291 q-216 -133 -431 -237 l774 51 q-37 38 -72.5 74.5 q-35.5 36.5 -71.5 70.5 l146 76 q77 -71 154.5 -152.5 q77.5 -81.5 143.5 -161 q66 -79.5 107 -143.5 l-149 -92 q-25 40 -58.5 86.5 q-33.5 46.5 -76.5 95.5 ZM1286 365 l154 100 q81 -58 170.5 -130 q89.5 -72 170.5 -143 q81 -71 134 -129 l-166 -112 q-48 56 -125.5 129 q-77.5 73 -166.5 147.5 q-89 74.5 -171 137.5 Z" /><glyph glyph-name="" unicode="&#x7ea6;" d="M408 608 l434 62 q-2 -37 0.5 -85 q2.5 -48 7.5 -77 q-214 -36 -344 -58.5 q-130 -22.5 -200.5 -36.5 q-70.5 -14 -103.5 -24 q-33 -10 -52 -20 q-8 27 -26.5 79.5 q-18.5 52.5 -33.5 88.5 q37 7 75 42 q38 35 87 89 q28 27 80 91.5 q52 64.5 117 151.5 q-117 -12 -180 -21 q-63 -9 -92 -16.5 q-29 -7.5 -44 -15.5 q-6 29 -25 85 q-19 56 -36 91 q30 8 59.5 39 q29.5 31 65.5 82 q18 24 52.5 79.5 q34.5 55.5 76 132.5 q41.5 77 83 165.5 q41.5 88.5 74.5 177.5 l181 -74 q-71 -153 -158.5 -305 q-87.5 -152 -179.5 -276 l231 18 q35 54 69 109.5 q34 55.5 62 111.5 l158 -96 q-95 -157 -208.5 -309 q-113.5 -152 -229.5 -281 ZM111 -49 l-29 180 q99 15 227.5 36.5 q128.5 21.5 272 47.5 q143.5 26 286.5 53 l13 -168 q-203 -41 -407 -80.5 q-204 -39.5 -363 -68.5 ZM1528 508 l-142 -121 q-35 63 -98 139.5 q-63 76.5 -138.5 154.5 q-75.5 78 -150.5 142 l131 107 q74 -62 151.5 -136 q77.5 -74 143 -149 q65.5 -75 103.5 -137 ZM1219 1350 l671 0 q0 0 -0.5 -18 q-0.5 -18 -1 -40 q-0.5 -22 -0.5 -35 q-9 -337 -19 -571.5 q-10 -234.5 -23.5 -384.5 q-13.5 -150 -34 -233.5 q-20.5 -83.5 -50.5 -120.5 q-35 -48 -75.5 -67.5 q-40.5 -19.5 -96.5 -26.5 q-52 -8 -134.5 -6.5 q-82.5 1.5 -168.5 6.5 q-3 36 -19.5 88 q-16.5 52 -39.5 92 q93 -9 171.5 -11 q78.5 -2 117.5 -2 q29 0 47 6.5 q18 6.5 34 26.5 q29 33 49 153 q20 120 34 355 q14 235 24 613 l-557 0 q-76 -171 -164 -289 q-25 21 -75 54.5 q-50 33.5 -83 51.5 q105 131 184.5 325 q79.5 194 127.5 400 l182 -35 q-22 -84 -47.5 -167.5 q-25.5 -83.5 -52.5 -163.5 Z" /><glyph glyph-name="" unicode="&#x7ebf;" d="M1827 1513 l-113 -116 q-46 43 -126 96.5 q-80 53.5 -150 91.5 l110 101 q46 -22 99 -52 q53 -30 101 -62 q48 -32 79 -59 ZM430 608 l367 66 q-3 -37 -4 -85 q-1 -48 2 -77 q-189 -38 -304 -62 q-115 -24 -178.5 -39 q-63.5 -15 -94 -25 q-30.5 -10 -48.5 -19 q-6 26 -24 79 q-18 53 -33 89 q35 9 72 42.5 q37 33.5 83 92.5 q28 26 77.5 89.5 q49.5 63.5 109.5 149.5 q-109 -13 -167.5 -22 q-58.5 -9 -86.5 -16 q-28 -7 -43 -15 q-8 28 -26.5 83.5 q-18.5 55.5 -35.5 92.5 q29 9 57 40.5 q28 31.5 62 82.5 q17 24 49.5 80 q32.5 56 71.5 133.5 q39 77.5 77.5 166 q38.5 88.5 67.5 177.5 l178 -86 q-64 -147 -146 -295.5 q-82 -148.5 -171 -271.5 l221 18 q34 52 65 108 q31 56 60 111 l156 -96 q-89 -157 -196 -309 q-107 -152 -218 -283 ZM797 324 l28 -158 q-176 -58 -352.5 -114.5 q-176.5 -56.5 -318.5 -100.5 l-39 180 q127 32 309 84.5 q182 52.5 373 108.5 ZM1786 715 l158 -72 q-74 -118 -170 -221.5 q-96 -103.5 -209 -192.5 q41 -98 88.5 -151 q47.5 -53 101.5 -53 q37 0 54.5 46 q17.5 46 23.5 177 q28 -34 67 -61.5 q39 -27.5 70 -43.5 q-15 -118 -41.5 -184 q-26.5 -66 -73 -92.5 q-46.5 -26.5 -120.5 -26.5 q-103 0 -184 74 q-81 74 -142 205 q-117 -77 -247 -138.5 q-130 -61.5 -267 -109.5 q-20 35 -52.5 79 q-32.5 44 -64.5 77 q311 94 568 258 q-30 92 -53 197 q-23 105 -40 218 l-379 -69 l-28 170 l383 71 q-6 59 -12 118.5 q-6 59.5 -11 119.5 l-286 -43 l-33 172 l307 45 q-12 215 -12 438 l190 0 q-1 -106 0.5 -207.5 q1.5 -101.5 7.5 -201.5 l463 69 l33 -168 l-485 -75 q4 -60 10 -118.5 q6 -58.5 12 -115.5 l488 90 l28 -166 l-493 -92 q13 -93 31 -177 q18 -84 38 -157 q85 70 156 148 q71 78 125 164 Z" /><glyph glyph-name="" unicode="&#x7ec8;" d="M104 -49 l-30 182 q93 14 213.5 36 q120.5 22 255.5 47.5 q135 25.5 270 49.5 l14 -166 q-190 -41 -380 -79.5 q-190 -38.5 -343 -69.5 ZM924 162 l108 135 q136 -35 283.5 -87 q147.5 -52 281.5 -109 q134 -57 228 -107 l-111 -150 q-92 55 -225 114.5 q-133 59.5 -281 113 q-148 53.5 -284 90.5 ZM1147 524 l108 123 q75 -27 156.5 -64.5 q81.5 -37.5 154.5 -77.5 q73 -40 124 -75 l-111 -137 q-49 37 -122 79.5 q-73 42.5 -154 83 q-81 40.5 -156 68.5 ZM1186 1346 q40 -70 92.5 -136.5 q52.5 -66.5 114.5 -128.5 q124 122 211 267 l-418 -2 ZM1739 1520 l119 -68 q-59 -140 -144 -262.5 q-85 -122.5 -186 -226.5 q104 -82 224.5 -149.5 q120.5 -67.5 246.5 -108.5 q-32 -28 -69 -75.5 q-37 -47.5 -58 -82.5 q-129 51 -249.5 126.5 q-120.5 75.5 -229.5 170.5 q-117 -97 -245.5 -171 q-128.5 -74 -258.5 -126 q-16 32 -52 80.5 q-36 48.5 -67 72.5 q131 46 257 114.5 q126 68.5 237 154.5 q-53 55 -99 114.5 q-46 59.5 -88 122.5 q-43 -49 -91 -96 q-48 -47 -101 -90 q-19 24 -47.5 55.5 q-28.5 31.5 -59.5 52.5 q-86 -138 -185 -272.5 q-99 -134.5 -202 -251.5 l381 53 q-1 -38 1 -85.5 q2 -47.5 5 -77.5 q-193 -31 -310.5 -51 q-117.5 -20 -182 -32.5 q-64.5 -12.5 -96 -22 q-31.5 -9.5 -50.5 -19.5 q-6 27 -24 81.5 q-18 54.5 -33 90.5 q35 7 72.5 40 q37.5 33 85.5 89 q26 27 76 90 q50 63 110 149 q-110 -12 -169.5 -20.5 q-59.5 -8.5 -88 -15.5 q-28.5 -7 -43.5 -13 q-8 29 -26.5 85 q-18.5 56 -35.5 91 q30 8 57.5 41.5 q27.5 33.5 61.5 83.5 q17 24 49.5 80 q32.5 56 72 134 q39.5 78 78.5 167.5 q39 89.5 69 179.5 l184 -75 q-66 -156 -151 -311.5 q-85 -155.5 -171 -282.5 l222 18 q32 52 64 107 q32 55 58 110 l148 -92 q135 118 228.5 257 q93.5 139 144.5 263 l198 -33 q-20 -41 -40.5 -84.5 q-20.5 -43.5 -45.5 -85.5 l416 0 l33 7 Z" /><glyph glyph-name="" unicode="&#x2f7f;&#x8033;" d="M649 541 l0 -273 q177 10 368 23 q191 13 386 26 l0 224 l-754 0 ZM1403 1427 l-754 0 l0 -268 l754 0 l0 268 ZM649 981 l0 -264 l754 0 l0 264 l-754 0 ZM1939 354 l-4 -186 l-329 -25 l0 -303 l-203 0 l0 289 q-241 -18 -472 -34.5 q-231 -16.5 -437 -31.5 q-206 -15 -373 -28 l-23 198 q79 5 166 10 q87 5 182 11 l0 1173 l-307 0 l0 191 l1776 0 l0 -191 l-309 0 l0 -1097 l333 24 Z" /><glyph glyph-name="" unicode="&#x80fd;" d="M1710 821 l-321 0 q-107 0 -164 22 q-57 22 -79 75 q-22 53 -22 147 l0 649 l187 0 l0 -321 q120 41 234 90 q114 49 196 92 l123 -137 q-117 -57 -264.5 -107 q-147.5 -50 -288.5 -92 l0 -172 q0 -49 18 -63.5 q18 -14.5 82 -14.5 l281 0 q37 0 56 16 q19 16 27.5 64 q8.5 48 12.5 143 q29 -23 79 -42.5 q50 -19.5 89 -28.5 q-11 -126 -36 -195.5 q-25 -69.5 -74.5 -97 q-49.5 -27.5 -135.5 -27.5 ZM383 387 l377 0 l0 154 l-377 0 l0 -154 ZM760 834 l-377 0 l0 -146 l377 0 l0 146 ZM948 993 l0 -950 q0 -68 -16.5 -107 q-16.5 -39 -61.5 -61 q-47 -23 -115.5 -28 q-68.5 -5 -162.5 -5 q-8 37 -26 87 q-18 50 -38 85 q65 -3 121.5 -3 q56.5 0 77.5 1 q20 0 26.5 7.5 q6.5 7.5 6.5 25.5 l0 195 l-377 0 l0 -400 l-178 0 l0 1153 l743 0 ZM637 1534 l160 61 q50 -68 99 -147.5 q49 -79.5 88.5 -157 q39.5 -77.5 59.5 -139.5 l-170 -72 q-14 46 -43 107 q-197 -16 -317.5 -26 q-120.5 -10 -186 -17.5 q-65.5 -7.5 -96 -14 q-30.5 -6.5 -49.5 -14.5 q-7 29 -26 85.5 q-19 56.5 -37 94.5 q24 5 47.5 26.5 q23.5 21.5 48.5 53.5 q17 21 52.5 74.5 q35.5 53.5 76 126 q40.5 72.5 72.5 149.5 l198 -57 q-49 -94 -110.5 -189 q-61.5 -95 -124.5 -173 l383 24 q-29 54 -60 105.5 q-31 51.5 -65 99.5 ZM1417 20 l285 0 q39 0 59 19 q20 19 29 74.5 q9 55.5 14 165.5 q31 -22 80.5 -42.5 q49.5 -20.5 87.5 -29.5 q-11 -139 -36 -215.5 q-25 -76.5 -76.5 -106.5 q-51.5 -30 -141.5 -30 l-323 0 q-108 0 -166.5 21.5 q-58.5 21.5 -81.5 75 q-23 53.5 -23 148.5 l0 668 l189 0 l0 -305 q126 44 245.5 97.5 q119.5 53.5 200.5 109.5 l125 -142 q-117 -67 -270.5 -122.5 q-153.5 -55.5 -300.5 -100.5 l0 -205 q0 -50 19 -65 q19 -15 85 -15 Z" /><glyph glyph-name="" unicode="&#x84dd;" d="M575 1313 l0 114 l-450 0 l0 160 l450 0 l0 131 l191 0 l0 -131 l520 0 l0 131 l189 0 l0 -131 l454 0 l0 -160 l-454 0 l0 -118 l-189 0 l0 118 l-520 0 l0 -114 l-191 0 ZM1853 1126 l0 -159 l-600 0 q-78 -192 -186 -322 q-26 22 -73.5 54 q-47.5 32 -80.5 51 q89 99 156.5 245 q67.5 146 106.5 305 l178 -36 q-9 -36 -18.5 -70 q-9.5 -34 -20.5 -68 l538 0 ZM1700 618 l-156 -83 q-16 48 -49.5 108.5 q-33.5 60.5 -76.5 122 q-43 61.5 -87 113.5 l146 73 q70 -75 132 -167.5 q62 -92.5 91 -166.5 ZM641 563 l0 701 l184 0 l0 -701 l-184 0 ZM444 612 l-178 0 l0 586 l178 0 l0 -586 ZM500 350 l0 -299 l243 0 l0 299 l-243 0 ZM1151 350 l-248 0 l0 -299 l248 0 l0 299 ZM1559 350 l-248 0 l0 -299 l248 0 l0 299 ZM1743 51 l209 0 l0 -164 l-1852 0 l0 164 l224 0 l0 449 l1419 0 l0 -449 Z" /><glyph glyph-name="" unicode="&#x8981;" d="M1339 461 l-540 0 q-29 -39 -57 -77 q-28 -38 -54 -71 q102 -21 205 -45 q103 -24 205 -47 q152 91 241 240 ZM420 1169 l0 -239 l268 0 l0 239 l-268 0 ZM868 1470 l0 -149 l287 0 l0 149 l-287 0 ZM1634 1169 l-299 0 l0 -239 l299 0 l0 239 ZM868 930 l287 0 l0 239 l-287 0 l0 -239 ZM1937 461 l-385 0 q-88 -180 -233 -297 q164 -45 310 -89 q146 -44 259 -85 l-155 -148 q-117 46 -272 97 q-155 51 -337 102 q-172 -85 -400.5 -130.5 q-228.5 -45.5 -518.5 -70.5 q-9 40 -29 86.5 q-20 46.5 -43 77.5 q217 11 394.5 36 q177.5 25 320.5 71 q-114 27 -232 53 q-118 26 -239 51 q47 51 97 114 q50 63 99 132 l-460 0 l0 164 l571 0 q25 40 46.5 77.5 q21.5 37.5 39.5 75.5 l-528 0 l0 543 l446 0 l0 149 l-545 0 l0 166 l1755 0 l0 -166 l-563 0 l0 -149 l488 0 l0 -543 l-949 0 l103 -24 q-17 -33 -34.5 -64.5 q-17.5 -31.5 -37.5 -64.5 l1032 0 l0 -164 Z" /><glyph glyph-name="" unicode="&#x89c2;" d="M1116 1454 l0 -909 l-180 0 l0 1077 l928 0 l0 -1077 l-187 0 l0 909 l-561 0 ZM852 252 l-160 -117 q-21 62 -55 134.5 q-34 72.5 -74 152.5 q-74 -155 -163.5 -281.5 q-89.5 -126.5 -192.5 -226.5 q-23 34 -64.5 77.5 q-41.5 43.5 -74.5 69.5 q109 96 204.5 241 q95.5 145 171.5 327 q-158 259 -327 485 l143 96 q65 -84 131.5 -177.5 q66.5 -93.5 130.5 -188.5 q42 124 73 260 q31 136 52 278 l-534 0 l0 183 l583 0 l33 6 l123 -39 q-28 -254 -78 -478.5 q-50 -224.5 -121 -416.5 q63 -106 115 -205 q52 -99 84 -180 ZM1626 16 l123 0 q29 0 43.5 26 q14.5 26 21.5 98.5 q7 72.5 11 211.5 q34 -26 76 -44 q42 -18 75 -27 q-10 -159 -27.5 -247 q-17.5 -88 -63 -123.5 q-45.5 -35.5 -138.5 -35.5 l-156 0 q-109 0 -155.5 40 q-46.5 40 -46.5 153 l0 360 q-65 -164 -192.5 -318.5 q-127.5 -154.5 -350.5 -271.5 q-17 29 -55 73.5 q-38 44.5 -66 65.5 q192 100 306.5 219 q114.5 119 172 247.5 q57.5 128.5 76 256 q18.5 127.5 18.5 244.5 l0 361 l179 0 l0 -365 q0 -86 -9.5 -182.5 q-9.5 -96.5 -35.5 -196.5 l131 0 l0 -475 q0 -40 14 -55 q14 -15 49 -15 Z" /><glyph glyph-name="" unicode="&#x89e3;" d="M666 313 l0 -295 q44 -1 79 -1 q35 0 48 1 q26 0 26 27 l0 268 l-153 0 ZM375 459 l157 0 l0 241 l-151 0 l0 -38 q0 -96 -6 -203 ZM684 1386 l-238 0 q-20 -47 -42.5 -94 q-22.5 -47 -45.5 -90 l248 0 q22 40 41.5 89 q19.5 49 36.5 95 ZM381 1057 l0 -215 l151 0 l0 215 l-151 0 ZM819 700 l-153 0 l0 -241 l153 0 l0 241 ZM666 842 l153 0 l0 215 l-153 0 l0 -215 ZM975 1202 l0 -1161 q0 -54 -12 -92 q-12 -38 -45 -58 q-36 -21 -85 -26.5 q-49 -5.5 -122 -5.5 q-3 32 -16 78.5 q-13 46.5 -29 76.5 l0 -61 l-134 0 l0 360 l-170 0 q-15 -129 -51 -255.5 q-36 -126.5 -100 -227.5 q-23 22 -66.5 49 q-43.5 27 -72.5 39 q68 108 100.5 237.5 q32.5 129.5 41.5 261 q9 131.5 9 245.5 l0 331 l-20 -24 q-22 23 -65 57.5 q-43 34.5 -72 54.5 q106 116 185 284.5 q79 168.5 124 354.5 l172 -34 q-11 -39 -22 -76.5 q-11 -37.5 -25 -75.5 l258 0 l26 8 l113 -72 q-25 -64 -55 -134.5 q-30 -70.5 -64 -133.5 l197 0 ZM1735 1456 l-269 0 q-27 -177 -108 -314.5 q-81 -137.5 -266 -223.5 q-16 29 -45 68.5 q-29 39.5 -58 62.5 q151 64 215 169.5 q64 105.5 88 237.5 l-256 0 l0 158 l875 0 q0 0 -1.5 -24.5 q-1.5 -24.5 -2.5 -41.5 q-10 -247 -25 -363 q-15 -116 -49 -153 q-23 -27 -50 -40 q-27 -13 -67 -17 q-30 -5 -88 -5 q-58 0 -121 3 q-1 37 -13 81 q-12 44 -32 76 q57 -6 103 -7 q46 -1 67 -1 q42 -3 56 19 q16 18 27.5 88 q11.5 70 19.5 227 ZM1962 375 l0 -166 l-332 0 l0 -369 l-180 0 l0 369 l-401 0 l0 166 l401 0 l0 221 l-211 0 q-21 -51 -44.5 -97 q-23.5 -46 -49.5 -83 q-25 15 -69.5 38 q-44.5 23 -74.5 35 q63 86 107.5 204.5 q44.5 118.5 69.5 244.5 l155 -31 q-7 -38 -16 -75 q-9 -37 -19 -74 l152 0 l0 178 l180 0 l0 -178 l283 0 l0 -162 l-283 0 l0 -221 l332 0 Z" /><glyph glyph-name="" unicode="&#x8ba1;" d="M725 1386 l-129 -139 q-34 43 -89 99.5 q-55 56.5 -117.5 114.5 q-62.5 58 -119.5 106 l121 123 q58 -45 122 -99.5 q64 -54.5 120.5 -107.5 q56.5 -53 91.5 -97 ZM602 254 l232 162 q9 -42 28 -93.5 q19 -51.5 31 -78.5 q-148 -107 -239 -174 q-91 -67 -141.5 -106 q-50.5 -39 -74.5 -60.5 q-24 -21.5 -37 -38.5 q-12 38 -42 92 q-30 54 -56 86 q32 18 68.5 64.5 q36.5 46.5 36.5 113.5 l0 678 l-310 0 l0 188 l504 0 l0 -833 ZM1962 1059 l0 -197 l-496 0 l0 -1024 l-202 0 l0 1024 l-504 0 l0 197 l504 0 l0 651 l202 0 l0 -651 l496 0 Z" /><glyph glyph-name="" unicode="&#x8ba2;" d="M672 1362 l-133 -137 q-32 46 -85 105.5 q-53 59.5 -114 121 q-61 61.5 -117 113.5 l129 121 q55 -49 116.5 -107.5 q61.5 -58.5 116 -115.5 q54.5 -57 87.5 -101 ZM614 258 l287 188 q8 -39 24 -90 q16 -51 31 -82 q-164 -112 -265 -182.5 q-101 -70.5 -156.5 -110.5 q-55.5 -40 -81 -62 q-25.5 -22 -39.5 -38 q-11 32 -39.5 82 q-28.5 50 -52.5 78 q30 21 70 68 q40 47 40 116 l0 680 l-323 0 l0 182 l505 0 l0 -829 ZM1964 1554 l0 -192 l-350 0 l0 -1262 q0 -89 -23.5 -139.5 q-23.5 -50.5 -85.5 -73.5 q-60 -26 -159 -32.5 q-99 -6.5 -242 -6.5 q-8 43 -30.5 104 q-22.5 61 -47.5 101 q70 -3 138 -3.5 q68 -0.5 120.5 -0.5 q52.5 0 75.5 0 q29 2 41 13 q12 11 12 40 l0 1260 l-586 0 l0 192 l1137 0 Z" /><glyph glyph-name="" unicode="&#x8be6;" d="M659 1382 l-129 -139 q-32 43 -86 98 q-54 55 -115.5 111.5 q-61.5 56.5 -117.5 103.5 l121 123 q55 -45 118 -98 q63 -53 119 -105 q56 -52 90 -94 ZM565 252 l183 137 q10 -37 30 -85.5 q20 -48.5 35 -76.5 q-127 -100 -206.5 -163 q-79.5 -63 -124 -100 q-44.5 -37 -66 -58.5 q-21.5 -21.5 -33.5 -38.5 q-14 29 -45 71.5 q-31 42.5 -55 63.5 q30 26 64 78 q34 52 34 129 l0 694 l-293 0 l0 182 l477 0 l0 -833 ZM1950 492 l0 -177 l-480 0 l0 -475 l-192 0 l0 475 l-504 0 l0 177 l504 0 l0 249 l-393 0 l0 172 l393 0 l0 246 l-457 0 l0 174 l264 0 q-21 66 -65.5 154 q-44.5 88 -93.5 162 l170 61 q50 -75 99.5 -163.5 q49.5 -88.5 72.5 -155.5 l-148 -58 l375 0 q46 86 93.5 193.5 q47.5 107.5 76.5 197.5 l195 -61 q-39 -85 -82.5 -170.5 q-43.5 -85.5 -83.5 -159.5 l217 0 l0 -174 l-441 0 l0 -246 l377 0 l0 -172 l-377 0 l0 -249 l480 0 Z" /><glyph glyph-name="" unicode="&#x8bf7;" d="M643 1376 l-129 -131 q-32 43 -83.5 99 q-51.5 56 -110.5 113 q-59 57 -113 106 l121 116 q54 -45 114.5 -99.5 q60.5 -54.5 114 -108 q53.5 -53.5 86.5 -95.5 ZM553 250 l195 145 q9 -37 28.5 -84.5 q19.5 -47.5 34.5 -74.5 q-132 -103 -214 -167.5 q-82 -64.5 -128 -102.5 q-46 -38 -68 -59.5 q-22 -21.5 -34 -37.5 q-13 34 -42.5 83 q-29.5 49 -54.5 77 q33 20 67 66 q34 46 34 114 l0 696 l-281 0 l0 182 l463 0 l0 -837 ZM1038 276 l590 0 l0 144 l-590 0 l0 -144 ZM1628 682 l-590 0 l0 -133 l590 0 l0 133 ZM1808 825 l0 -790 q0 -65 -16.5 -103.5 q-16.5 -38.5 -62.5 -58.5 q-48 -20 -121 -24.5 q-73 -4.5 -181 -4.5 q-6 36 -21.5 83 q-15.5 47 -31.5 81 q71 -4 134 -4 q63 0 83 0 q37 3 37 35 l0 104 l-590 0 l0 -303 l-176 0 l0 985 l946 0 ZM1427 1067 l535 0 l0 -141 l-1243 0 l0 141 l520 0 l0 119 l-405 0 l0 133 l405 0 l0 106 l-457 0 l0 142 l457 0 l0 151 l188 0 l0 -151 l474 0 l0 -142 l-474 0 l0 -106 l412 0 l0 -133 l-412 0 l0 -119 Z" /><glyph glyph-name="" unicode="&#x8d26;" d="M1698 1632 l176 -55 q-55 -113 -131.5 -221 q-76.5 -108 -163.5 -201.5 q-87 -93.5 -174 -163.5 q-22 26 -64.5 71 q-42.5 45 -72.5 68 q127 91 242.5 223.5 q115.5 132.5 187.5 278.5 ZM315 1475 l0 -1108 l-145 0 l0 1261 l661 0 l0 -1253 l-149 0 l0 1100 l-367 0 ZM578 1360 l0 -588 q0 -114 -13.5 -239 q-13.5 -125 -54 -248.5 q-40.5 -123.5 -120 -234.5 q-79.5 -111 -212.5 -197 q-15 24 -44.5 58 q-29.5 34 -55.5 54 q122 72 193 170.5 q71 98.5 105 209 q34 110.5 44 221 q10 110.5 10 206.5 l0 588 l148 0 ZM506 262 l117 84 q45 -54 94 -117 q49 -63 91.5 -123 q42.5 -60 68.5 -106 l-123 -98 q-24 48 -64.5 111 q-40.5 63 -88.5 128.5 q-48 65.5 -95 120.5 ZM1933 770 l-397 0 q60 -236 171 -434 q111 -198 269 -307 q-30 -23 -68.5 -67.5 q-38.5 -44.5 -58.5 -80.5 q-182 135 -301.5 370 q-119.5 235 -185.5 519 l-148 0 l0 -655 l277 98 q0 -40 5 -89.5 q5 -49.5 11 -80.5 q-146 -58 -236 -95 q-90 -37 -140.5 -59.5 q-50.5 -22.5 -74.5 -36 q-24 -13.5 -38 -24.5 q-9 32 -30.5 78.5 q-21.5 46.5 -43.5 73.5 q29 15 61.5 47.5 q32.5 32.5 32.5 95.5 l0 647 l-161 0 l0 174 l161 0 l0 733 l176 0 l0 -733 l719 0 l0 -174 Z" /><glyph glyph-name="" unicode="&#x8d2d;" d="M584 1290 l0 -534 q0 -110 -13.5 -232 q-13.5 -122 -54 -244.5 q-40.5 -122.5 -120.5 -233.5 q-80 -111 -212 -200 q-15 25 -47.5 58.5 q-32.5 33.5 -56.5 54.5 q124 75 196 173 q72 98 105.5 206.5 q33.5 108.5 43 216.5 q9.5 108 9.5 203 l0 532 l150 0 ZM530 236 l127 88 q49 -54 103.5 -117.5 q54.5 -63.5 103 -125.5 q48.5 -62 78.5 -108 l-131 -102 q-30 48 -76.5 111.5 q-46.5 63.5 -100 129.5 q-53.5 66 -104.5 124 ZM1657 326 l-146 -54 q-4 26 -9.5 54.5 q-5.5 28.5 -14.5 62.5 q-145 -31 -235 -51.5 q-90 -20.5 -140.5 -34 q-50.5 -13.5 -75 -23 q-24.5 -9.5 -39.5 -18.5 q-7 26 -24.5 77 q-17.5 51 -32.5 85 q25 6 46 37.5 q21 31.5 42 83.5 q15 32 46.5 117.5 q31.5 85.5 63.5 198 q32 112.5 52 224.5 l174 -47 q-37 -143 -89.5 -289.5 q-52.5 -146.5 -111.5 -271.5 l283 55 q-38 127 -82 240 l133 43 q33 -79 64.5 -168.5 q31.5 -89.5 57 -174 q25.5 -84.5 38.5 -146.5 ZM1243 1405 l670 0 q0 0 -0.5 -37 q-0.5 -37 -1.5 -57 q-9 -356 -18.5 -601.5 q-9.5 -245.5 -22.5 -402 q-13 -156.5 -31.5 -243 q-18.5 -86.5 -46.5 -123.5 q-34 -48 -70.5 -67.5 q-36.5 -19.5 -87.5 -27.5 q-49 -7 -120 -7 q-71 0 -146 3 q-3 42 -18 96.5 q-15 54.5 -39 94.5 q78 -6 143 -7 q65 -1 98 -1 q25 -2 42 4.5 q17 6.5 34 29.5 q28 32 46.5 155.5 q18.5 123.5 30.5 369.5 q12 246 21 647 l-555 0 q-76 -175 -172 -305 q-23 21 -68 56 q-45 35 -77 58 l0 -665 l-152 0 l0 1057 l-395 0 l0 -1063 l-147 0 l0 1233 l694 0 l0 -549 q98 121 173 298.5 q75 177.5 120 366.5 l182 -41 q-18 -69 -39.5 -137.5 q-21.5 -68.5 -46.5 -134.5 Z" /><glyph glyph-name="" unicode="&#x2ecb;&#x8f66;" d="M1929 395 l0 -186 l-700 0 l0 -371 l-203 0 l0 371 l-901 0 l0 186 l901 0 l0 271 l-451 0 q-89 0 -150 -8 q-61 -8 -77 -23 q-8 32 -30 94.5 q-22 62.5 -42 101.5 q39 11 72.5 52 q33.5 41 75.5 108 q21 29 59 95.5 q38 66.5 84 156.5 l-407 0 l0 182 l493 0 q33 74 63 151.5 q30 77.5 56 154.5 l219 -58 q-24 -63 -52 -124.5 q-28 -61.5 -58 -123.5 l1009 0 l0 -182 l-1099 0 q-57 -109 -116.5 -208.5 q-59.5 -99.5 -119.5 -186.5 l471 0 l0 289 l203 0 l0 -289 l530 0 l0 -182 l-530 0 l0 -271 l700 0 Z" /><glyph glyph-name="" unicode="&#x8fdb;" d="M1161 1176 l0 -195 q0 -32 -1 -66 q-1 -34 -3 -69 l295 0 l0 330 l-291 0 ZM1452 664 l-317 0 q-25 -143 -90 -278 q-65 -135 -191 -234 q-13 19 -39 46 q-26 27 -54 52 q-28 25 -48 39 q100 78 154 174 q54 96 77 201 l-258 0 l0 182 l283 0 q3 35 3.5 69 q0.5 34 0.5 68 l0 193 l-273 0 l0 182 l273 0 l0 311 l188 0 l0 -311 l291 0 l0 311 l188 0 l0 -311 l250 0 l0 -182 l-250 0 l0 -330 l289 0 l0 -182 l-289 0 l0 -492 l-188 0 l0 492 ZM612 1350 l-143 -121 q-31 46 -82.5 106.5 q-51.5 60.5 -112 122.5 q-60.5 62 -116.5 113 l137 106 q55 -49 116 -108 q61 -59 115 -116.5 q54 -57.5 86 -102.5 ZM555 983 l0 -737 q28 -17 59.5 -40.5 q31.5 -23.5 75.5 -49.5 q100 -60 235 -76.5 q135 -16.5 306 -16.5 q114 0 248.5 5.5 q134.5 5.5 264.5 15 q130 9.5 230 22.5 q-17 -39 -35.5 -98.5 q-18.5 -59.5 -21.5 -99.5 q-53 -4 -139 -8 q-86 -4 -186 -7.5 q-100 -3.5 -197 -5.5 q-97 -2 -172 -2 q-189 0 -324 23 q-135 23 -244 86 q-66 40 -115.5 79.5 q-49.5 39.5 -84.5 39.5 q-32 0 -73 -37 q-41 -37 -86.5 -95.5 q-45.5 -58.5 -90.5 -123.5 l-127 176 q75 80 150 140 q75 60 141 89 l0 545 l-260 0 l0 176 l446 0 Z" /><glyph glyph-name="" unicode="&#x90fd;" d="M655 1112 l52 0 q41 51 77.5 104.5 q36.5 53.5 71.5 110.5 l-201 0 l0 -215 ZM874 449 l0 167 l-405 0 l0 -167 l405 0 ZM469 115 l405 0 l0 184 l-405 0 l0 -184 ZM1012 1640 l172 -51 q-107 -259 -260 -477 l213 0 l0 -166 l-342 0 q-40 -46 -82.5 -90 q-42.5 -44 -85.5 -86 l428 0 l0 -895 l-181 0 l0 84 l-405 0 l0 -113 l-172 0 l0 666 q-34 -20 -68 -41 q-34 -21 -71 -41 q-14 31 -50 79.5 q-36 48.5 -61 76.5 q287 140 510 360 l-461 0 l0 166 l383 0 l0 215 l-293 0 l0 164 l293 0 l0 211 l176 0 l0 -211 l236 0 l0 -107 q69 124 121 256 ZM1835 1612 l139 -88 q-60 -145 -132.5 -308.5 q-72.5 -163.5 -141.5 -302.5 q147 -136 194.5 -256 q47.5 -120 47.5 -225 q1 -103 -24.5 -175.5 q-25.5 -72.5 -82.5 -111.5 q-28 -18 -63.5 -29.5 q-35.5 -11.5 -75.5 -17.5 q-40 -4 -88.5 -4.5 q-48.5 -0.5 -98.5 2.5 q-1 39 -15 93.5 q-14 54.5 -36 91.5 q45 -5 84 -5.5 q39 -0.5 70 0.5 q26 2 49.5 7 q23.5 5 40.5 16 q32 18 44.5 57 q12.5 39 12.5 95 q0 90 -52.5 202 q-52.5 112 -197.5 238 q57 120 115.5 266.5 q58.5 146.5 101.5 267.5 l-325 0 l0 -1585 l-187 0 l0 1764 l592 0 l29 8 Z" /><glyph glyph-name="" unicode="&#x914d;" d="M631 1268 l0 205 l-103 0 l0 -205 l103 0 ZM834 717 l0 391 l-119 0 l0 -358 q0 -20 3.5 -25.5 q3.5 -5.5 18.5 -5.5 l58 0 q25 0 28 6 q4 -2 11 -8 ZM307 133 l527 0 l0 180 l-527 0 l0 -180 ZM307 1108 l0 -657 l527 0 l0 165 q-5 0 -10 0 q-5 0 -11 0 l-86 0 q-63 0 -86 26 q-23 26 -23 106 l0 360 l-94 0 l0 -162 q0 -90 -27.5 -198 q-27.5 -108 -113.5 -191 q-12 15 -35.5 36 q-23.5 21 -40.5 32 q77 72 98 159 q21 87 21 164 l0 160 l-119 0 ZM113 1473 l0 167 l917 0 l0 -167 l-266 0 l0 -205 l223 0 l0 -1393 l-153 0 l0 107 l-527 0 l0 -136 l-149 0 l0 1422 l239 0 l0 205 l-284 0 ZM1415 39 l279 0 q42 0 63.5 24.5 q21.5 24.5 31 96.5 q9.5 72 15.5 215 q33 -26 83.5 -48.5 q50.5 -22.5 88.5 -31.5 q-10 -168 -35 -262 q-25 -94 -80 -132 q-55 -38 -153 -38 l-317 0 q-102 0 -160 22.5 q-58 22.5 -82.5 81.5 q-24.5 59 -24.5 166 l0 864 l592 0 l0 445 l-598 0 l0 182 l783 0 l0 -942 l-185 0 l0 135 l-403 0 l0 -684 q0 -60 19 -77 q19 -17 83 -17 Z" /><glyph glyph-name="" unicode="&#x91cf;&#xf97e;" d="M1487 1458 l0 92 l-936 0 l0 -92 l936 0 ZM1487 1264 l0 94 l-936 0 l0 -94 l936 0 ZM1679 1655 l0 -496 l-1312 0 l0 496 l1312 0 ZM1942 1081 l0 -139 l-1829 0 l0 139 l1829 0 ZM510 461 l420 0 l0 96 l-420 0 l0 -96 ZM510 756 l0 -94 l420 0 l0 94 l-420 0 ZM1548 662 l0 94 l-434 0 l0 -94 l434 0 ZM1548 461 l0 96 l-434 0 l0 -96 l434 0 ZM1114 33 l836 0 l0 -146 l-1846 0 l0 146 l826 0 l0 98 l-651 0 l0 129 l651 0 l0 92 l-600 0 l0 512 l1405 0 l0 -512 l-621 0 l0 -92 l662 0 l0 -129 l-662 0 l0 -98 Z" /><glyph glyph-name="" unicode="&#x9650;" d="M696 1642 l125 -71 q-43 -126 -93 -267 q-50 -141 -97 -260 q101 -125 133.5 -233.5 q32.5 -108.5 32.5 -202.5 q0 -89 -20 -152.5 q-20 -63.5 -64 -97.5 q-44 -31 -111 -41 q-28 -3 -63.5 -3.5 q-35.5 -0.5 -69.5 -0.5 q0 36 -12 83.5 q-12 47.5 -33 82.5 q32 -1 57.5 -2 q25.5 -1 48.5 0 q34 0 60 17 q21 16 30 52.5 q9 36.5 9 82.5 q0 78 -33 178 q-33 100 -131 215 q37 101 74.5 221 q37.5 120 64.5 221 l-252 0 l0 -1620 l-166 0 l0 1790 l484 0 l26 8 ZM1090 1102 l0 -213 l536 0 l0 213 l-536 0 ZM1626 1464 l-536 0 l0 -207 l536 0 l0 207 ZM1804 676 l127 -133 q-73 -60 -160 -118.5 q-87 -58.5 -163 -105.5 q70 -101 161.5 -179 q91.5 -78 204.5 -126 q-30 -27 -69 -76 q-39 -49 -58 -85 q-235 118 -375.5 343.5 q-140.5 225.5 -216.5 526.5 l-165 0 l0 -629 l327 76 q0 -40 2 -90 q2 -50 8 -82 q-153 -41 -248.5 -67.5 q-95.5 -26.5 -149.5 -43.5 q-54 -17 -81 -28.5 q-27 -11.5 -43 -22.5 q-11 32 -36.5 80 q-25.5 48 -47.5 74 q26 15 55 53 q29 38 29 104 l0 1483 l905 0 l0 -907 l-389 0 q22 -71 47.5 -138.5 q25.5 -67.5 57.5 -131.5 q72 50 149 110.5 q77 60.5 129 112.5 Z" /><glyph glyph-name="" unicode="&#x2fb3;&#x97f3;" d="M1485 586 l-910 0 l0 -178 l910 0 l0 178 ZM575 70 l910 0 l0 188 l-910 0 l0 -188 ZM385 -164 l0 907 l1298 0 l0 -903 l-198 0 l0 70 l-910 0 l0 -74 l-190 0 ZM1452 1071 l479 0 l0 -170 l-1812 0 l0 170 l481 0 q-14 58 -42.5 129 q-28.5 71 -61.5 129 l186 39 q43 -66 77 -148.5 q34 -82.5 46 -142.5 l-27 -6 l467 0 q34 65 68.5 149.5 q34.5 84.5 54.5 151.5 l-1135 0 l0 170 l711 0 q-26 85 -72 160 l195 33 q29 -42 53 -94.5 q24 -52.5 39 -98.5 l676 0 l0 -170 l-446 0 l192 -43 q-32 -66 -64.5 -133.5 q-32.5 -67.5 -64.5 -124.5 Z" /><glyph glyph-name="" unicode="&#x9884;" d="M1014 1284 l305 0 q12 42 22.5 89.5 q10.5 47.5 18.5 90.5 l-416 0 l0 168 l1018 0 l0 -168 l-395 0 q-17 -46 -32.5 -92 q-15.5 -46 -31.5 -88 l379 0 l0 -965 l-184 0 l0 795 l-508 0 l0 -801 l-176 0 l0 971 ZM848 973 l117 -29 q-37 -121 -79 -247 q-42 -126 -79 -212 l-145 33 q23 54 47.5 128 q24.5 74 46.5 153 l-174 0 l0 -748 q0 -70 -17.5 -112 q-17.5 -42 -66.5 -64 q-48 -23 -120.5 -28 q-72.5 -5 -176.5 -5 q-6 39 -23.5 91.5 q-17.5 52.5 -34.5 89.5 q73 -2 135 -2 q62 0 82 2 q37 0 37 30 l0 746 l-319 0 l0 168 l459 0 q-82 60 -182.5 128 q-100.5 68 -184.5 124 l102 118 q80 -45 172 -106 q50 46 100 106 q50 60 93 121 l-514 0 l0 166 l635 0 l35 10 l114 -80 q-64 -106 -152 -216 q-88 -110 -177 -193 q49 -32 93 -63 q44 -31 77 -54 l-46 -61 l119 0 l27 6 ZM1532 995 l0 -391 q0 -98 -20 -201.5 q-20 -103.5 -79.5 -204 q-59.5 -100.5 -174.5 -190 q-115 -89.5 -306 -160.5 q-18 30 -53 69.5 q-35 39.5 -65 64.5 q174 58 278 134 q104 76 156 161 q52 85 69 169.5 q17 84.5 17 159.5 l0 389 l178 0 ZM1481 168 l121 115 q60 -47 130 -104.5 q70 -57.5 133 -113.5 q63 -56 103 -98 l-131 -131 q-38 44 -99 102.5 q-61 58.5 -129.5 119 q-68.5 60.5 -127.5 110.5 Z" /><glyph glyph-name="" unicode="&#x2fb8;&#x9996;" d="M1513 768 l0 170 l-989 0 l0 -170 l989 0 ZM524 111 l989 0 l0 184 l-989 0 l0 -184 ZM1513 444 l0 174 l-989 0 l0 -174 l989 0 ZM1937 1264 l-794 0 q-17 -42 -34 -82.5 q-17 -40.5 -34 -77.5 l637 0 l0 -1266 l-199 0 l0 107 l-989 0 l0 -107 l-190 0 l0 1266 l536 0 q11 38 22.5 79.5 q11.5 41.5 18.5 80.5 l-796 0 l0 176 l499 0 q-30 49 -74 108 q-44 59 -85 105 l168 73 q55 -52 109 -119.5 q54 -67.5 85 -119.5 l-90 -47 l508 0 q46 61 93.5 140 q47.5 79 78.5 140 l215 -49 q-41 -61 -86 -121 q-45 -60 -86 -110 l487 0 l0 -176 Z" /><glyph glyph-name="" unicode="&#x9a8c;" d="M598 451 l14 -146 q-133 -35 -266.5 -69.5 q-133.5 -34.5 -245.5 -63.5 l-37 154 q105 21 245.5 54.5 q140.5 33.5 289.5 70.5 ZM125 1632 l643 0 q-9 -137 -20 -293 q-11 -156 -23.5 -304 q-12.5 -148 -26.5 -261 l160 0 q0 0 0 -27.5 q0 -27.5 -2 -44.5 q-15 -256 -31 -414 q-16 -158 -37 -242 q-21 -84 -53 -118 q-27 -33 -60 -48 q-33 -15 -79 -19 q-42 -3 -108 -3 q-66 0 -138 5 q-3 35 -15 78.5 q-12 43.5 -34 76.5 q72 -6 133 -8 q61 -2 90 -2 q25 0 41.5 4 q16.5 4 30.5 21 q19 20 35 84.5 q16 64.5 29.5 187 q13.5 122.5 25.5 318.5 l-536 0 q12 90 23 212 q11 122 20.5 251 q9.5 129 15.5 241 l162 -8 q-8 -129 -19.5 -275.5 q-11.5 -146.5 -23.5 -271.5 l211 0 q11 94 22.5 211 q11.5 117 21.5 242.5 q10 125.5 17 244.5 l-475 0 l0 162 ZM1087 1094 l605 0 q-86 78 -168 165 q-82 87 -150 173 q-106 -154 -236 -286 q-130 -132 -270 -228 q-17 29 -51.5 77 q-34.5 48 -58.5 74 q181 114 338.5 287.5 q157.5 173.5 253.5 378.5 l163 -56 q-22 -50 -47 -94 q66 -88 153.5 -178 q87.5 -90 184.5 -168.5 q97 -78.5 189 -132.5 q-25 -35 -51.5 -89.5 q-26.5 -54.5 -38.5 -92.5 q-50 35 -100 75 q-50 40 -101 84 l0 -151 l-615 0 l0 162 ZM1542 326 l-156 -25 q-4 66 -16 149.5 q-12 83.5 -28.5 171 q-16.5 87.5 -32.5 162.5 l145 21 q31 -115 55 -248 q24 -133 33 -231 ZM1229 289 l-156 -43 q-8 65 -27 149 q-19 84 -43.5 171.5 q-24.5 87.5 -50.5 164.5 l146 37 q28 -76 54.5 -162 q26.5 -86 46.5 -169 q20 -83 30 -148 ZM1757 784 l172 -41 q-39 -104 -85 -219 q-46 -115 -94.5 -225.5 q-48.5 -110.5 -94.5 -200.5 l280 0 l0 -164 l-1042 0 l0 164 l602 0 q47 95 96.5 214.5 q49.5 119.5 92.5 243 q43 123.5 73 228.5 Z" /><glyph glyph-name="" unicode="&#xff08;" d="M1395 778 q0 208 52.5 386.5 q52.5 178.5 144 326.5 q91.5 148 208.5 266 l156 -74 q-168 -175 -272.5 -398.5 q-104.5 -223.5 -104.5 -506.5 q0 -282 104.5 -506 q104.5 -224 272.5 -399 l-156 -74 q-117 118 -208.5 266.5 q-91.5 148.5 -144 326.5 q-52.5 178 -52.5 386 Z" /><glyph glyph-name="" unicode="&#xff09;" d="M653 778 q0 -208 -52.5 -386 q-52.5 -178 -144 -326.5 q-91.5 -148.5 -208.5 -266.5 l-156 74 q168 175 272.5 399 q104.5 224 104.5 506 q0 283 -104.5 506.5 q-104.5 223.5 -272.5 398.5 l156 74 q117 -118 208.5 -266 q91.5 -148 144 -326.5 q52.5 -178.5 52.5 -386.5 Z" /></font>
</defs>
</svg>
