<?xml version="1.0" encoding="utf-8"?>
<!-- Generator: Adobe Illustrator 22.0.1, SVG Export Plug-In . SVG Version: 6.00 Build 0)  -->
<svg version="1.1" id="图层_1" xmlns="http://www.w3.org/2000/svg" xmlns:xlink="http://www.w3.org/1999/xlink" x="0px" y="0px"
	 viewBox="0 0 245.9 93.8" style="enable-background:new 0 0 245.9 93.8;" xml:space="preserve">
<style type="text/css">
	.st0{fill:#FFFFFF;}
</style>
<g>
	<g>
		<path class="st0" d="M28.9,77.8h82.7v13.9H9.2c-5.4,0-7.8-2.6-7.8-6.4c0-3.3,1.3-5.4,5.4-8.7l78.8-63.5H5V-0.7h100.2
			c5.3,0,7.8,2.4,7.8,6.3c0,3.1-1.7,5.4-5.5,8.8L28.9,77.8z"/>
	</g>
	<g>
		<path class="st0" d="M245.9,63.2c0,23.6-20.9,30.6-61.3,30.6c-24.2,0-45-3.4-53.5-5.4V73.6c11.4,2.4,33.3,6.1,53.5,6.1
			c29.9,0,42.1-4.3,42.1-16.5c0-13.1-9.8-14.9-37.4-14.9c-15.5,0-28.7,0.4-43.8,1c-11.8,0.4-14.1-4.8-12.8-13.4l6-36.6h101.3v14.4
			h-86c-1.1,7.5-2.4,14.4-3.6,21.8c11.7-0.7,27.2-1.3,40.6-1.3C228.5,34.2,245.9,39.6,245.9,63.2z"/>
	</g>
</g>
</svg>
