<?xml version="1.0" encoding="utf-8"?>
<!-- Generator: Adobe Illustrator 22.0.0, SVG Export Plug-In . SVG Version: 6.00 Build 0)  -->
<svg version="1.1" id="图层_1" xmlns="http://www.w3.org/2000/svg" xmlns:xlink="http://www.w3.org/1999/xlink" x="0px" y="0px"
	 viewBox="0 0 324.6 45.6" style="enable-background:new 0 0 324.6 45.6;" xml:space="preserve">
<style type="text/css">
	.st0{fill:#F6B21B;}
	.st1{fill-rule:evenodd;clip-rule:evenodd;fill:#F6B21B;}
</style>
<g>
	<g>
		<path class="st0" d="M291.9,23.8c-0.4,0.5-0.8,1.5-0.6,3c0.4,2.1,2.3,3.8,4.7,4.7c0.1,0,0.1-0.1,0.1-0.1c-1-0.7-1.6-1.7-1.6-3.3
			c0-3.1,2.4-4,7.2-4c2.4,0,4.6,0.2,6.1,0.5c1,0.1,1.9-0.6,1.9-1.6v-1.3c-1-0.3-3.6-0.8-8-0.8C296.9,20.7,293.5,21.6,291.9,23.8"/>
		<path class="st0" d="M300.4,32.3c3.4,0,5.3-0.3,6-0.6v-2h-2.8c-0.9,0-1.7-0.8-1.7-1.7v-1.4h6.9c0.7,0,1.3,0.6,1.3,1.4V28v1.7v5.2
			c0,0.5-0.4,0.7-0.7,0.7c-0.3,0-0.5-0.1-0.7-0.2l-2-1c-1.1,0.4-2.7,1.2-6.7,1.2c-6.3,0-9.5-2.3-9.5-7.5c0-0.2,0-0.4,0-0.6
			c0.3,0.9,0.8,1.9,1.9,2.8C294.3,31.6,297,32.3,300.4,32.3"/>
		<path class="st0" d="M279.5,26.2c-1.5,0-3.6,0.2-4.9,0.2l0.4-2.3h10.4c1,0,1.9-0.8,1.9-1.9V21h-14.5c-0.4,0-0.8,0.3-0.9,0.8
			L271,27c-0.2,1.3,0.2,2.3,1.7,2.2c2.9-0.1,4.1-0.1,6.3-0.1c3.9,0,5.2,0.2,5.2,1.7c0,1.5-1.2,1.7-5.3,1.7c-2.9,0-6.4-0.5-8.2-0.9
			v1.6c0,0.9,0.7,1.8,1.6,1.9c1.6,0.3,3.9,0.6,6.7,0.6c6.2,0,9.3-1.4,9.3-4.9C288.3,26.4,284.2,26.2,279.5,26.2"/>
		<path class="st0" d="M306.8,41.7h-31.2c-4.1,0-7.5-1.4-10-4.2c-2.2-2.4-3.4-5.7-3.4-9.3c0-3.6,1.2-6.9,3.4-9.3
			c2.4-2.7,5.9-4.2,10-4.2h31.2c4.1,0,7.6,1.4,10,4.2c2.2,2.4,3.4,5.8,3.4,9.3c0,3.6-1.2,6.9-3.4,9.3
			C314.4,40.2,310.9,41.7,306.8,41.7 M275.6,17.6c-5.2,0-10.4,3.3-10.4,10.6c0,7.3,5.2,10.6,10.4,10.6h31.2
			c5.2,0,10.5-3.3,10.5-10.6c0-7.3-5.3-10.6-10.5-10.6H275.6z"/>
	</g>
	<g>
		<g>
			<g>
				<g>
					<g>
						<g>
							<rect x="6.5" y="5.6" class="st1" width="5.9" height="5.9"/>
						</g>
					</g>
					<g>
						<g>
							<rect x="6.5" y="17.4" class="st1" width="5.9" height="24"/>
						</g>
					</g>
					<g>
						<g>
							<path class="st1" d="M29.8,23.5c0-6.6,5.4-12,12-12c6.6,0,12,5.4,12,12h5.9c0-9.9-8-17.9-17.9-17.9C32,5.6,24,13.6,24,23.5
								c0,9.9,8,17.9,17.9,17.9h0v-5.9h0C35.2,35.5,29.8,30.1,29.8,23.5z"/>
						</g>
					</g>
					<g>
						<g>
							<path class="st1" d="M89.2,5.6c-9.9,0-17.9,8-17.9,17.9c0,9.9,8,17.9,17.9,17.9c9.9,0,17.9-8,17.9-17.9
								C107,13.6,99,5.6,89.2,5.6z M89.2,35.5c-6.6,0-12-5.4-12-12c0-6.6,5.4-12,12-12c6.6,0,12,5.4,12,12
								C101.1,30.1,95.8,35.5,89.2,35.5z"/>
						</g>
					</g>
					<g>
						<g>
							<path class="st1" d="M154.1,20.8c-1.3-8.6-8.7-15.1-17.7-15.1c-9.9,0-17.9,8-17.9,17.9v0v0c0,9.9,8,17.9,17.9,17.9
								c9.9,0,17.9-8,17.9-17.9C154.4,22.6,154.3,21.7,154.1,20.8z M136.5,35.5c-6.6,0-12-5.4-12-12c0-6.6,5.4-12,12-12
								s12,5.4,12,12C148.5,30.1,143.1,35.5,136.5,35.5z"/>
						</g>
					</g>
					<g>
						<g>
							
								<rect x="47.9" y="22.2" transform="matrix(0.7089 -0.7053 0.7053 0.7089 -8.1314 45.2856)" class="st1" width="5.9" height="20.7"/>
						</g>
					</g>
				</g>
			</g>
		</g>
		<g>
			<path class="st0" d="M217.3,14.7c-4.3-0.4-7.2,1.4-9,3c-2.6,2.4-4.2,6-4.2,9.5v11.5h4V29c0-2.8,1.1-5.5,3.1-7.1
				c1.7-1.4,3.8-2.1,6-1.8l0.4,0.1v-5.4L217.3,14.7z"/>
			<rect x="172.1" y="6" class="st0" width="5.3" height="34.8"/>
			<path class="st0" d="M244.9,26.2c-1-6.6-6.8-11.5-13.5-11.5c-7.5,0-13.6,6.1-13.6,13.6c0,7.5,6.1,13.6,13.6,13.6
				c7.5,0,13.6-6.1,13.6-13.6C245.1,27.6,245.1,26.9,244.9,26.2z M240,28.3c0,4.7-3.8,8.6-8.6,8.6s-8.6-3.8-8.6-8.6s3.8-8.6,8.6-8.6
				S240,23.6,240,28.3z"/>
			<rect x="202.9" y="15.4" class="st0" width="5.3" height="25.4"/>
			<path class="st0" d="M186.7,6h-11.9v5.3h11.9c3.4,0,6.9,2.4,6.9,6.4c0,4-3.6,6.4-6.9,6.4h-11.9v5.3h11.9
				c6.8,0,12.1-5.1,12.1-11.7C198.8,11.2,193.5,6,186.7,6z"/>
		</g>
	</g>
</g>
</svg>
