<?xml version="1.0" encoding="utf-8"?>
<!-- Generator: Adobe Illustrator 23.0.1, SVG Export Plug-In . SVG Version: 6.00 Build 0)  -->
<svg version="1.1" id="图层_1" xmlns="http://www.w3.org/2000/svg" xmlns:xlink="http://www.w3.org/1999/xlink" x="0px" y="0px"
	 viewBox="0 0 446 57" style="enable-background:new 0 0 446 57;" xml:space="preserve">
<style type="text/css">
	.st0{fill:#FFFFFF;}
</style>
<g>
	<g>
		<g>
			<g id="XMLID_50_">
				<path id="XMLID_52_" class="st0" d="M384.09,18.93c-0.61,0.88-1.41,2.58-0.96,4.98c0.67,3.6,3.8,6.36,7.93,7.91
					c0.12,0.04,0.2-0.12,0.09-0.18c-1.73-1.1-2.68-2.87-2.68-5.58c0-5.21,3.97-6.79,12.11-6.79c4.08,0,7.68,0.39,10.21,0.76
					c1.66,0.24,3.15-1.05,3.15-2.74v-2.19c-1.73-0.48-6.11-1.37-13.36-1.37C392.47,13.73,386.9,15.25,384.09,18.93z"/>
				<path id="XMLID_51_" class="st0" d="M398.47,33.15c5.67,0,8.83-0.55,10.12-1.03v-3.29h-4.72c-1.56,0-2.83-1.27-2.83-2.84v-2.37
					h11.62c1.25,0,2.26,1.02,2.26,2.27v0.13v2.81v8.75c0,0.81-0.59,1.14-1.1,1.14c-0.44,0-0.81-0.18-1.25-0.37l-3.35-1.62
					c-1.8,0.66-4.56,1.99-11.3,1.99c-10.6,0-15.93-3.8-15.93-12.66c0-0.36,0.01-0.71,0.04-1.06c0.49,1.54,1.41,3.21,3.26,4.69
					C388.23,32.07,392.76,33.15,398.47,33.15z"/>
			</g>
			<path id="XMLID_49_" class="st0" d="M363.35,22.87c-2.48,0-6.07,0.26-8.15,0.41l0.63-3.89h17.5c1.73,0,3.13-1.4,3.13-3.13v-2.09
				h-24.32c-0.75,0-1.4,0.54-1.52,1.29l-1.49,8.75c-0.41,2.19,0.37,3.78,2.93,3.67c4.81-0.15,6.93-0.19,10.56-0.19
				c6.59,0,8.74,0.26,8.74,2.85c0,2.48-2.04,2.93-8.81,2.93c-4.81,0-10.67-0.89-13.78-1.59l0,2.64c0,1.58,1.13,2.95,2.69,3.23
				c2.66,0.48,6.6,0.98,11.16,0.98c10.37,0,15.56-2.33,15.56-8.18C378.16,23.28,371.16,22.87,363.35,22.87z"/>
		</g>
		<g>
			<path class="st0" d="M410.59,7.55c9.22,0,18.52,5.78,18.52,18.71c0,12.88-9.3,18.64-18.52,18.64h-55.14
				c-9.19,0-18.45-5.76-18.45-18.64c0-12.92,9.27-18.71,18.45-18.71H410.59 M410.59,3.42h-55.14c-10.88,0-22.58,7.15-22.58,22.83
				c0,9.03,3.91,14.36,7.18,17.25c4.04,3.56,9.51,5.52,15.4,5.52h55.14c10.91,0,22.65-7.13,22.65-22.77c0-9.06-3.92-14.4-7.2-17.3
				C421.98,5.39,416.5,3.42,410.59,3.42L410.59,3.42z"/>
		</g>
	</g>
	<g>
		<g>
			<g>
				<path id="XMLID_48_" class="st0" d="M197.72,27.95c0.23-0.29,0.04-0.75-0.31-0.75h-11.41c-2.01,0-2.67,0.16-3.94,1.11
					l-24.16,18.96c-0.33,0.26-0.16,0.82,0.24,0.82l21.03,0c1.79,0,3.51-0.89,4.79-2.48L197.72,27.95z"/>
				<path id="XMLID_47_" class="st0" d="M183.94,6.68c-1.27-1.59-2.99-2.48-4.79-2.48l-19.92,0c-0.41,0-0.57,0.58-0.23,0.83
					l24.03,17.76c1.27,0.94,1.94,1.11,3.94,1.11h10.39c0.36,0,0.55-0.47,0.3-0.76L183.94,6.68z"/>
				<path id="XMLID_46_" class="st0" d="M214.61,45.51c1.27,1.59,2.99,2.48,4.79,2.48l21.03,0c0.4,0,0.57-0.57,0.24-0.82
					L216.5,28.21c-1.27-0.94-1.94-1.11-3.94-1.11h-11.41c-0.35,0-0.54,0.45-0.31,0.75L214.61,45.51z"/>
				<path id="XMLID_45_" class="st0" d="M200.88,23.05c-0.24,0.29-0.05,0.76,0.3,0.76h10.39c2.01,0,2.67-0.16,3.94-1.11l24.03-17.76
					c0.34-0.25,0.18-0.83-0.23-0.83l-19.92,0c-1.79,0-3.51,0.89-4.79,2.48L200.88,23.05z"/>
			</g>
			<path class="st0" d="M78.57,4.7H68.23c-0.24,0-0.44,0.2-0.44,0.44v33.78L29.45,7.39C25.81,4.29,25.82,4.03,15.47,4h-3.8
				c-1.6,0-2.18,0.29-2.74,0.81C8.38,5.35,8.16,5.88,8.16,7.36v40.28c0,0.24,0.2,0.44,0.44,0.44h10.34c0.24,0,0.44-0.2,0.44-0.44
				V13.17L57.72,44.7c3.64,3.1,3.63,3.36,13.98,3.39h3.8c1.6,0,2.18-0.29,2.74-0.81c0.55-0.53,0.77-1.06,0.77-2.55V5.14
				C79.01,4.9,78.81,4.7,78.57,4.7z"/>
			<path class="st0" d="M153.02,47.45l-2.21-8.91c-0.06-0.22-0.25-0.38-0.48-0.38h-49.03c-3.08,0-3.44-0.43-3.44-2.4v-6.14h49.84
				c0.24,0,0.44-0.2,0.44-0.44v-7.83c0-0.24-0.2-0.44-0.44-0.44H97.85v-5.92c0-1.16,0.66-1.91,2.55-1.91h50.62
				c0.24,0,0.44-0.2,0.44-0.44V4.55c0-0.24-0.2-0.44-0.44-0.44H90.82c-1.54,0-2.63,0.36-3.35,1.02c-0.77,0.71-1.12,1.75-1.12,3.04
				v35.85c0,1.14,0.27,2.09,0.86,2.78c0.7,0.82,1.87,1.28,3.6,1.28h61.71C152.86,48.08,153.1,47.77,153.02,47.45z"/>
		</g>
		<g>
			<g>
				<path class="st0" d="M307.07,33.3c-0.34,9.13-9.34,16.88-25.81,16.88c-8.06,0-20.57-1.7-28.98-7.98
					c-0.22-0.17-0.23-0.5-0.03-0.68l6.54-5.95c0.14-0.13,0.34-0.15,0.51-0.06c4.21,2.35,10.89,4.35,18.7,4.71
					c9.18,0.42,16.01-2.29,16.06-6.85c0.05-4.18-4.55-6.45-14.57-6.15l-10.89,0.37c-0.41,0.01-0.61-0.49-0.31-0.77l11.64-10.67
					c0.08-0.07,0.19-0.12,0.3-0.12h11.86c0.4,0,0.59,0.49,0.3,0.77l-2.14,1.96C302.03,19.53,307.38,25.02,307.07,33.3z"/>
			</g>
			<g>
				<path class="st0" d="M305.51,4.77l-8.57,7.86c-0.08,0.07-0.19,0.12-0.3,0.12l-38.11-0.01c-0.24,0-0.44-0.2-0.44-0.44V4.45
					c0-0.24,0.2-0.44,0.44-0.44L305.22,4C305.62,4,305.81,4.5,305.51,4.77z"/>
			</g>
		</g>
	</g>
</g>
</svg>
